<svg width="16" height="14" viewBox="0 0 16 14" fill="none" xmlns="http://www.w3.org/2000/svg">
<path d="M10.8376 13.4068C10.8947 13.3785 10.9567 13.3644 11.0188 13.3644C11.0809 13.3644 11.1429 13.3785 11.2 13.4068L11.7901 13.699C11.9185 13.7625 12.0696 13.6701 12.0696 13.5279V10.7909C11.7443 10.9197 11.3899 10.9913 11.0188 10.9913C10.6477 10.9913 10.2933 10.9197 9.96802 10.7909V13.5279C9.96802 13.6701 10.1191 13.7625 10.2476 13.699L10.8376 13.4068Z" fill="#0872C7"/>
<path d="M11.0188 6.16754C9.89927 6.16754 8.98853 7.06949 8.98853 8.17818C8.98853 9.28686 9.89927 10.1888 11.0188 10.1888C12.1382 10.1888 13.049 9.28686 13.049 8.17818C13.049 7.06949 12.1382 6.16754 11.0188 6.16754Z" fill="#0872C7"/>
<path fill-rule="evenodd" clip-rule="evenodd" d="M1.22444 0.939117H15.2014C15.481 0.939117 15.7078 1.16369 15.7078 1.44065V11.8222C15.7078 12.0991 15.481 12.3237 15.2014 12.3237H12.8799V10.3006C13.4793 9.78445 13.8594 9.02465 13.8594 8.17813C13.8594 6.62699 12.5851 5.36506 11.0189 5.36506C9.45262 5.36506 8.17839 6.62699 8.17839 8.17813C8.17839 9.0247 8.55843 9.7845 9.15782 10.3006V12.3237H1.22444C0.944782 12.3237 0.718018 12.0991 0.718018 11.8222V1.44065C0.718018 1.16369 0.944782 0.939117 1.22444 0.939117ZM2.97153 9.62805H5.59222C5.81596 9.62805 5.99735 9.44841 5.99735 9.22684C5.99735 9.00526 5.81596 8.82562 5.59222 8.82562H2.97153C2.7478 8.82562 2.5664 9.00526 2.5664 9.22684C2.5664 9.44841 2.7478 9.62805 2.97153 9.62805ZM6.46577 7.03266H2.97153C2.7478 7.03266 2.5664 6.85302 2.5664 6.63144C2.5664 6.40986 2.7478 6.23022 2.97153 6.23022H6.46577C6.68951 6.23022 6.8709 6.40986 6.8709 6.63144C6.8709 6.85302 6.68951 7.03266 6.46577 7.03266ZM2.97153 4.43726H9.08646C9.31019 4.43726 9.49159 4.25762 9.49159 4.03605C9.49159 3.81447 9.31019 3.63483 9.08646 3.63483H2.97153C2.7478 3.63483 2.5664 3.81447 2.5664 4.03605C2.5664 4.25762 2.7478 4.43726 2.97153 4.43726Z" fill="#0872C7"/>
</svg>
