<svg width="19" height="13" viewBox="0 0 19 13" fill="none" xmlns="http://www.w3.org/2000/svg">
<ellipse cx="13.3564" cy="8.76408" rx="0.694328" ry="0.647178" fill="white"/>
<ellipse cx="9.56493" cy="4.40108" rx="0.694328" ry="0.647178" fill="white"/>
<path fill-rule="evenodd" clip-rule="evenodd" d="M6.27261 0.801605H17.0932C17.7219 0.801605 18.2322 1.27829 18.2322 1.86327V11.4182C18.2322 12.0043 17.7219 12.4799 17.0932 12.4799H6.27261C6.12112 12.4799 5.97647 12.4236 5.8694 12.3238L5.1336 11.638L4.3978 12.3249C4.29073 12.4236 4.14608 12.4799 3.99459 12.4799H1.14707C0.519472 12.4799 0.00805664 12.0043 0.00805664 11.4182V1.86327C0.00805664 1.27829 0.519472 0.801605 1.14707 0.801605H3.99459C4.14608 0.801605 4.29073 0.857873 4.3978 0.956608L5.1336 1.6435L5.8694 0.956608C5.97647 0.857873 6.12112 0.801605 6.27261 0.801605ZM4.5641 9.2949V10.3566H5.70311V9.2949H4.5641ZM4.5641 8.23324V7.17158H5.70311V8.23324H4.5641ZM4.5641 5.04825V6.10992H5.70311V5.04825H4.5641ZM4.5641 3.98659V2.92493H5.70311V3.98659H4.5641ZM11.2733 4.40108C11.2733 3.52308 10.5068 2.80858 9.56482 2.80858C8.62286 2.80858 7.8563 3.52308 7.8563 4.40108C7.8563 5.27907 8.62286 5.99357 9.56482 5.99357C10.5068 5.99357 11.2733 5.27907 11.2733 4.40108ZM8.55063 10.3566C8.42192 10.3566 8.29321 10.3162 8.18615 10.2334C7.94468 10.0455 7.91165 9.71107 8.11325 9.486L13.8083 3.11603C14.011 2.88989 14.3698 2.86229 14.6102 3.04808C14.8516 3.236 14.8835 3.57042 14.6819 3.79655L8.98687 10.1665C8.87525 10.2907 8.71351 10.3566 8.55063 10.3566ZM11.6478 8.76407C11.6478 9.64207 12.4144 10.3566 13.3563 10.3566C14.2983 10.3566 15.0648 9.64207 15.0648 8.76407C15.0648 7.88608 14.2983 7.17158 13.3563 7.17158C12.4144 7.17158 11.6478 7.88608 11.6478 8.76407Z" fill="white"/>
</svg>
