<svg width="37" height="39" viewBox="0 0 37 39" fill="none" xmlns="http://www.w3.org/2000/svg">
<g filter="url(#filter0_d_54_1150)">
<circle cx="17.5034" cy="17.5034" r="17.5034" transform="matrix(-1 0 0 1 36.0137 0.996582)" fill="white"/>
<circle cx="17.5034" cy="17.5034" r="17.5034" transform="matrix(-1 0 0 1 36.0137 0.996582)" stroke="#B6BBC8" stroke-width="0.605044"/>
</g>
<path d="M22.5332 18.372C22.5332 18.1829 22.4608 17.9939 22.3164 17.8498L17.7703 13.3149C17.4811 13.0264 17.0122 13.0264 16.7232 13.3149C16.4341 13.6032 16.4341 14.0709 16.7232 14.3594L20.7458 18.372L16.7233 22.3846C16.4342 22.673 16.4342 23.1406 16.7233 23.429C17.0124 23.7176 17.4812 23.7176 17.7704 23.429L22.3166 18.8941C22.461 18.7499 22.5332 18.5609 22.5332 18.372Z" fill="#363A47"/>
<defs>
<filter id="filter0_d_54_1150" x="0.704346" y="0.694031" width="35.6118" height="37.6287" filterUnits="userSpaceOnUse" color-interpolation-filters="sRGB">
<feFlood flood-opacity="0" result="BackgroundImageFix"/>
<feColorMatrix in="SourceAlpha" type="matrix" values="0 0 0 0 0 0 0 0 0 0 0 0 0 0 0 0 0 0 127 0" result="hardAlpha"/>
<feOffset dy="2.01681"/>
<feComposite in2="hardAlpha" operator="out"/>
<feColorMatrix type="matrix" values="0 0 0 0 0 0 0 0 0 0 0 0 0 0 0 0 0 0 0.04 0"/>
<feBlend mode="normal" in2="BackgroundImageFix" result="effect1_dropShadow_54_1150"/>
<feBlend mode="normal" in="SourceGraphic" in2="effect1_dropShadow_54_1150" result="shape"/>
</filter>
</defs>
</svg>
