<svg width="144" height="30" viewBox="0 0 144 30" fill="none" xmlns="http://www.w3.org/2000/svg">
<path fill-rule="evenodd" clip-rule="evenodd" d="M42.7221 24.7942H48.5057L49.7934 29.2903H52.6853L48.0088 14.1339C47.873 13.6263 47.534 13.3726 46.9919 13.3726H44.2359C43.6937 13.3726 43.3547 13.6263 43.2189 14.1339L38.5425 29.2903H41.4343L42.7221 24.7942ZM46.2689 16.9263L47.8275 22.4172H43.4011L44.9588 16.9263L45.3199 15.5643H45.9302C45.9451 15.6416 46.058 16.0956 46.2689 16.9263Z" fill="#0977BE"/>
<path fill-rule="evenodd" clip-rule="evenodd" d="M62.6253 29.2904H65.6297L64.2294 24.3071C64.0787 23.6145 63.8073 23.0762 63.4153 22.6922C63.068 22.3326 62.631 22.0769 62.1516 21.9529V21.837C63.1906 21.7016 63.9359 21.3068 64.3876 20.6527C64.8392 19.9985 65.065 19.0561 65.065 17.8256C65.065 16.057 64.6545 14.8381 63.8335 14.1687C63.0126 13.4993 61.6158 13.1646 59.6432 13.1646C57.2035 13.1646 55.3132 13.2339 53.9722 13.3726V29.2904H56.7746V22.8986L59.5761 22.9214C60.4948 22.9214 61.0971 23.3985 61.3831 24.3527L62.6253 29.2904ZM59.5753 20.5486H56.7737V15.5416H59.5761C60.5875 15.5416 61.2777 15.7108 61.6464 16.0492C62.0152 16.3875 62.1996 17.0411 62.1996 18.01C62.2018 18.9789 62.0172 19.6404 61.6456 19.9945C61.2741 20.3487 60.584 20.5334 59.5753 20.5486Z" fill="#0977BE"/>
<path d="M71.8201 22.1175H70.2839C70.3916 22.6332 70.4447 23.1593 70.4421 23.6866V29.29H67.6182V13.3723H70.4421V18.0562C70.4469 18.6746 70.394 19.2921 70.2839 19.9003H71.8201L76.0899 13.3706H79.1623L74.9604 19.7852C74.6739 20.2354 74.3237 20.6397 73.9211 20.9848V21.0541C74.3943 21.4405 74.8058 21.8997 75.1409 22.4152L79.4563 29.29H76.2928L71.8201 22.1175Z" fill="#0977BE"/>
<path fill-rule="evenodd" clip-rule="evenodd" d="M83.4325 24.7942H89.2162L90.5039 29.2903H93.3957L88.7234 14.1305C88.5882 13.6229 88.2492 13.3691 87.7065 13.3691H84.9463C84.4042 13.3691 84.0652 13.6229 83.9294 14.1305L79.2529 29.2903H82.1448L83.4325 24.7942ZM86.9794 16.9262L88.5379 22.4171H84.1099L85.6693 16.9262L86.0303 15.5643H86.6407C86.655 15.6416 86.7679 16.0956 86.9794 16.9262Z" fill="#0977BE"/>
<path fill-rule="evenodd" clip-rule="evenodd" d="M94.6826 13.3726V29.2904C96.7458 29.4308 98.6888 29.5007 100.512 29.5002C102.879 29.5002 104.532 28.908 105.471 27.7237C106.409 26.5395 106.878 24.4089 106.878 21.3319C106.882 18.2556 106.413 16.1253 105.471 14.941C104.529 13.7567 102.876 13.1646 100.512 13.1646C98.6894 13.1646 96.7463 13.2339 94.6826 13.3726ZM97.5065 27.0326V15.5864C97.7953 15.5876 98.2673 15.5842 98.9226 15.5763C99.578 15.5684 100.109 15.5644 100.516 15.5644C101.793 15.5644 102.676 15.9798 103.166 16.8105C103.656 17.6412 103.901 19.1486 103.901 21.3328C103.901 23.5175 103.66 25.0213 103.178 25.8441C102.696 26.6669 101.807 27.0783 100.512 27.0783C99.6837 27.0783 98.6819 27.0631 97.5065 27.0326Z" fill="#0977BE"/>
<path d="M119.218 26.963L119.353 29.1548C117.982 29.2783 115.692 29.3398 112.485 29.3392C111.46 29.3392 110.651 29.0702 110.056 28.5322C109.461 27.9942 109.158 27.2557 109.145 26.3168V16.3476C109.159 15.4091 109.463 14.6706 110.056 14.1321C110.649 13.5935 111.459 13.3242 112.485 13.3242C115.693 13.3242 117.982 13.386 119.353 13.5095L119.218 15.7241H113.118C112.711 15.7241 112.42 15.8248 112.248 16.0244C112.076 16.224 111.988 16.57 111.988 17.0624V19.8539H118.381V22.0685H111.988V25.6214C111.988 26.1137 112.075 26.4597 112.248 26.6594C112.42 26.8598 112.711 26.9597 113.118 26.9597L119.218 26.963Z" fill="#0977BE"/>
<path d="M133.924 13.3726H136.838C137.546 13.3726 137.915 13.7493 137.945 14.5027L138.578 29.2903H135.799L135.28 15.6997H134.851L132.162 26.2907C131.996 26.9358 131.604 27.2587 130.987 27.2592H128.819C128.186 27.2598 127.788 26.9381 127.622 26.294L124.889 15.7031H124.505L124.008 29.2937H121.252L121.839 14.5027C121.869 13.7498 122.238 13.3731 122.946 13.3726H125.883C126.501 13.3726 126.885 13.6957 127.035 14.342L129.249 22.9704C129.279 23.0776 129.437 23.8005 129.724 25.1394H130.062C130.228 24.2478 130.386 23.5172 130.537 22.9476L132.751 14.3411C132.915 13.6954 133.306 13.3726 133.924 13.3726Z" fill="#0977BE"/>
<path d="M144 29.2903H141.176V13.3726H144V29.2903Z" fill="#0977BE"/>
<path d="M15.4155 13.892L13.3872 17.4576C12.6682 18.7198 11.9498 19.982 11.2318 21.2443C10.4476 22.6211 9.66347 23.9982 8.87932 25.3755C8.21769 26.5368 7.55607 27.6998 6.89444 28.8646C6.76506 29.0918 6.53569 29.4992 6.16812 29.4992H0.825124C0.547241 29.4992 0.376689 29.2168 0.608993 28.8585C0.883935 28.3769 1.1579 27.8947 1.43088 27.412C2.00233 26.4108 2.57427 25.4091 3.1467 24.4069C3.78382 23.2901 4.41873 22.1725 5.05144 21.0542C5.63956 20.0191 6.22938 18.9841 6.82093 17.9491C7.48353 16.7838 8.14565 15.6182 8.80728 14.4525C9.4444 13.3301 10.0815 12.2075 10.7186 11.0846C11.3518 9.97381 11.9855 8.86305 12.6197 7.75229C13.0909 6.92376 13.5578 6.09144 14.0282 5.26216C14.6634 4.14433 15.2919 3.02271 15.9396 1.91321C16.1859 1.49137 15.9558 1.88898 16.6806 0.636338C16.7288 0.55098 16.8178 0.498909 16.9137 0.500017H17.1768C17.2763 0.500466 17.3681 0.555238 17.418 0.643912C18.1164 1.89958 18.0333 1.74508 18.1289 1.91397C18.7905 3.07875 19.4521 4.24329 20.1137 5.40757C20.5087 6.10129 20.9038 6.79501 21.2988 7.48873C22.0986 8.89688 22.8987 10.305 23.699 11.7132C24.4003 12.9446 25.1021 14.1758 25.8044 15.4067C26.3867 16.4291 26.9679 17.452 27.5482 18.4754C28.178 19.5816 28.8085 20.6879 29.4397 21.7941C30.0886 22.9336 30.7367 24.0739 31.3842 25.215C32.0487 26.3828 32.7138 27.5506 33.3793 28.7184C33.5999 29.06 33.5264 29.5 33.0904 29.5H27.618L27.56 29.4924C27.5362 29.4844 27.5115 29.4798 27.4865 29.4788C26.3205 29.4788 25.1543 29.4818 23.9879 29.4879C23.9527 29.4892 23.9176 29.4927 23.8828 29.4985H23.8556H12.1154C11.8302 29.4985 11.7478 29.2054 11.9147 28.9078C12.3823 28.0747 12.855 27.2416 13.3262 26.4085L15.225 23.052C15.6911 22.2301 16.1567 21.4076 16.6218 20.5846L16.7005 20.446C16.74 20.3755 16.8132 20.3321 16.8923 20.3324H17.2268C17.3055 20.3322 17.3784 20.3752 17.418 20.4453L17.4606 20.521C17.8047 21.1148 18.1391 21.7146 18.4773 22.3129C18.8841 23.0338 19.2906 23.7546 19.6969 24.4751C19.721 24.5255 19.7726 24.5556 19.827 24.5508C21.4179 24.5468 23.0085 24.5442 24.5988 24.5432C24.6282 24.5432 24.6576 24.5379 24.7039 24.5334L17.035 11.0664" fill="#0977BE"/>
</svg>
