<svg width="33" height="18" viewBox="0 0 33 18" fill="none" xmlns="http://www.w3.org/2000/svg">
<path d="M32.6219 8.08103C32.6215 8.08064 32.6212 8.08018 32.6207 8.07979L25.8851 1.3292C25.3805 0.82349 24.5644 0.825373 24.0621 1.33361C23.5599 1.84179 23.5618 2.66374 24.0664 3.16952L28.5887 7.70176H1.28906C0.577113 7.70176 0 8.28296 0 8.99995C0 9.71694 0.577113 10.2981 1.28906 10.2981H28.5886L24.0665 14.8304C23.5619 15.3362 23.5599 16.1581 24.0621 16.6663C24.5644 17.1746 25.3807 17.1763 25.8852 16.6707L32.6208 9.92011C32.6212 9.91972 32.6215 9.91927 32.622 9.91888C33.1268 9.41141 33.1252 8.5868 32.6219 8.08103Z" fill="white"/>
</svg>
