<svg width="10" height="5" viewBox="0 0 10 5" fill="none" xmlns="http://www.w3.org/2000/svg">
<path d="M1.18299 0.290413C1.3002 0.173244 1.45914 0.107422 1.62487 0.107422C1.79059 0.107422 1.94954 0.173244 2.06674 0.290413L5.16049 3.38416L8.25424 0.290413C8.37212 0.176565 8.52999 0.113568 8.69387 0.114992C8.85774 0.116416 9.0145 0.182147 9.13038 0.298027C9.24626 0.413907 9.31199 0.570665 9.31341 0.734538C9.31484 0.898411 9.25184 1.05629 9.13799 1.17416L5.60237 4.70979C5.48516 4.82696 5.32622 4.89278 5.16049 4.89278C4.99476 4.89278 4.83582 4.82696 4.71862 4.70979L1.18299 1.17416C1.06582 1.05696 1 0.898016 1 0.732288C1 0.566561 1.06582 0.407618 1.18299 0.290413Z" fill="white" stroke="white" stroke-width="0.2"/>
</svg>
