<svg width="10" height="5" viewBox="0 0 10 5" fill="none" xmlns="http://www.w3.org/2000/svg">
<path d="M9.13049 4.70959C9.01328 4.82676 8.85434 4.89258 8.68861 4.89258C8.52288 4.89258 8.36394 4.82676 8.24674 4.70959L5.15299 1.61584L2.05923 4.70959C1.94136 4.82344 1.78348 4.88643 1.61961 4.88501C1.45574 4.88358 1.29898 4.81785 1.1831 4.70197C1.06722 4.58609 1.00149 4.42934 1.00006 4.26546C0.99864 4.10159 1.06164 3.94371 1.17549 3.82584L4.71111 0.290212C4.82831 0.173042 4.98726 0.10722 5.15299 0.10722C5.31871 0.10722 5.47766 0.173042 5.59486 0.290212L9.13049 3.82584C9.24765 3.94304 9.31348 4.10198 9.31348 4.26771C9.31348 4.43344 9.24765 4.59238 9.13049 4.70959Z" fill="white" stroke="white" stroke-width="0.2"/>
</svg>
