<svg width="40" height="49" viewBox="0 0 40 49" fill="none" xmlns="http://www.w3.org/2000/svg">
<path d="M30.4554 32.0557H20.4445H10.4335L4.44446 43.1212L11.4894 42.5192L14.7158 48.9446L20.4445 38.328L26.1731 48.9446L29.3995 42.5192L36.4445 43.1212L30.4554 32.0557Z" fill="#FF7B4A"/>
<path d="M29.3995 42.5192L36.4445 43.1212L30.4554 32.0557H20.4445V38.328L26.1731 48.9446L29.3995 42.5192Z" fill="#FF435B"/>
<path d="M40 19.7933L35.7732 15.511L37.3209 9.66214L31.5463 8.09552L29.9578 1.98371L24.1512 4.23913L20 0.0556641L15.8488 4.23913L10.0422 1.98371L8.45371 8.09552L2.67908 9.66214L4.22681 15.511L0 19.7933L4.22681 24.0755L2.67908 29.9244L8.45371 31.491L10.0001 37.3414L15.7732 35.7734L20 40.0557L24.2268 35.7734L29.9999 37.3414L31.5463 31.491L37.3209 29.9244L35.7732 24.0755L40 19.7933Z" fill="#F9CC1C"/>
<path d="M30.2222 37.3414L31.7341 31.491L37.3805 29.9244L35.8671 24.0755L40 19.7933L35.8671 15.511L37.3805 9.66214L31.7341 8.09552L30.181 1.98371L24.5034 4.23913L20 0.0556641V40.0557L24.5773 35.7734L30.2222 37.3414Z" fill="#F6B21A"/>
<path d="M23.5032 16.4401L21.4783 12.3228C21.264 11.8872 20.8219 11.6113 20.3378 11.6113C19.8536 11.6113 19.4115 11.8872 19.1973 12.3228L17.1724 16.4401L12.6444 17.1004C12.1654 17.1703 11.7674 17.5071 11.6178 17.9691C11.4682 18.4311 11.593 18.9383 11.9396 19.2774L15.216 22.4825L14.4423 27.0082C14.3605 27.4871 14.5567 27.971 14.9484 28.2565C15.34 28.542 15.8592 28.5797 16.2877 28.3536L20.3378 26.2169L24.3876 28.3536C24.8161 28.5797 25.3353 28.542 25.727 28.2565C26.1186 27.971 26.3148 27.4871 26.233 27.0082L25.4593 22.4825L28.7359 19.2774C29.0825 18.9383 29.2073 18.4311 29.0577 17.9691C28.9081 17.5071 28.5102 17.1703 28.0311 17.1004L23.5032 16.4401Z" fill="#FF7B4A"/>
</svg>
