<svg width="45" height="45" viewBox="0 0 45 45" fill="none" xmlns="http://www.w3.org/2000/svg">
<path fill-rule="evenodd" clip-rule="evenodd" d="M3.95508 0.0439453H41.0449C43.2257 0.0439453 45 1.81824 45 3.99902V27.4545C45 29.6356 43.2257 31.4096 41.0449 31.4096H33.9261L36.9855 39.536C37.3559 40.5207 37.3178 41.5922 36.8777 42.5535C36.4334 43.5234 35.6366 44.2605 34.6337 44.6289C34.1795 44.7957 33.7133 44.8747 33.2546 44.8747C31.6365 44.8747 30.1097 43.8907 29.512 42.3029L27.6337 37.3144H17.3763L15.4983 42.3029C14.9006 43.8907 13.3735 44.8747 11.7557 44.8747C11.2967 44.8747 10.8308 44.7957 10.3766 44.6289C9.37374 44.2605 8.57689 43.5234 8.13263 42.5535C7.69249 41.5922 7.65438 40.5203 8.02483 39.536L11.0842 31.4096H3.95508C1.77429 31.4096 0 29.6356 0 27.4545V3.99902C0 1.81824 1.77429 0.0439453 3.95508 0.0439453ZM41.0449 28.7729C41.7717 28.7729 42.3633 28.1816 42.3633 27.4545V3.99902C42.3633 3.27221 41.7717 2.68066 41.0449 2.68066H3.95508C3.22826 2.68066 2.63672 3.27221 2.63672 3.99902V27.4545C2.63672 28.1816 3.22826 28.7729 3.95508 28.7729H29.4585V25.7386C29.4585 25.0104 30.0486 24.4202 30.7768 24.4202H38.4309C39.1587 24.4202 39.7492 25.0104 39.7492 25.7386V28.7729H41.0449ZM34.4803 41.4555C34.3309 41.7817 34.0628 42.0296 33.7249 42.1535C33.0338 42.4072 32.2346 42.0502 31.9798 41.3738L28.2283 31.4096H31.1088L34.5177 40.4647C34.6389 40.7864 34.6255 41.1383 34.4803 41.4555ZM10.53 41.4555C10.6794 41.7817 10.9475 42.0296 11.2853 42.1535C11.9765 42.4076 12.7761 42.0502 13.0308 41.3738L16.7819 31.4096H13.9018L10.4926 40.465C10.3714 40.7864 10.3848 41.1383 10.53 41.4555ZM37.1125 28.2874H32.0952V27.0569H37.1125V28.2874ZM25.411 31.4096H19.5993L18.3691 34.6773H26.6412L25.411 31.4096Z" fill="white"/>
<rect x="12.2168" y="9.66797" width="20.5664" height="2.63672" rx="1.31836" fill="white"/>
<rect x="14.6777" y="17.4023" width="15.6445" height="2.63672" rx="1.31836" fill="white"/>
</svg>
