<svg width="54" height="14" viewBox="0 0 54 14" fill="none" xmlns="http://www.w3.org/2000/svg">
<path fill-rule="evenodd" clip-rule="evenodd" d="M21.5354 8.90325C21.3928 8.90325 21.2672 8.92616 21.1608 8.9715C21.0696 9.01089 20.9713 9.06655 20.8687 9.13709C20.7664 9.20741 20.7103 9.23901 20.6814 9.25275C20.5032 9.33864 20.2144 9.38238 19.8228 9.38238C19.2967 9.38238 18.8783 9.20854 18.543 8.85104C18.2019 8.48826 18.0362 8.04052 18.0362 7.48284C18.0362 6.9002 18.1995 6.44467 18.5356 6.0899C18.8669 5.74041 19.3178 5.57071 19.9145 5.57071C20.0033 5.57071 20.1275 5.58651 20.2832 5.61697C20.471 5.65407 20.5683 5.6898 20.6077 5.70857C20.6761 5.74545 20.7481 5.79239 20.8211 5.84782C20.9173 5.92111 21.0184 5.98089 21.1209 6.02532C21.2366 6.07571 21.3768 6.10044 21.5486 6.10044C21.7959 6.10044 22.0075 6.00128 22.1614 5.8137C22.3043 5.63804 22.3768 5.43192 22.3768 5.2006C22.3768 4.74896 22.1089 4.38802 21.5802 4.12807C21.0984 3.89148 20.463 3.77148 19.6919 3.77148C18.9942 3.77148 18.3591 3.93179 17.8048 4.24785C17.2498 4.56483 16.8116 5.00959 16.5027 5.57024C16.1953 6.12724 16.0396 6.77056 16.0396 7.48284C16.0396 8.16832 16.188 8.79996 16.4808 9.35971C16.7762 9.92563 17.2009 10.3757 17.7428 10.697C18.2845 11.0185 18.9182 11.1816 19.6266 11.1816C20.0964 11.1816 20.5464 11.1262 20.9642 11.0169C21.3891 10.9054 21.7386 10.7517 22.0039 10.5603C22.3034 10.3436 22.4554 10.0972 22.4554 9.82806C22.4554 9.56651 22.373 9.34619 22.2104 9.1726C22.0422 8.99395 21.8151 8.90325 21.5354 8.90325Z" fill="#00ADC6"/>
<mask id="mask0" mask-type="alpha" maskUnits="userSpaceOnUse" x="31" y="1" width="7" height="11">
<path fill-rule="evenodd" clip-rule="evenodd" d="M31.646 1.125H37.9596V11.2915H31.646V1.125Z" fill="white"/>
</mask>
<g mask="url(#mask0)">
<path fill-rule="evenodd" clip-rule="evenodd" d="M35.3986 7.13008L37.1363 5.47233C37.3822 5.24889 37.5072 4.99854 37.5072 4.72768C37.5072 4.50824 37.4143 4.29519 37.2317 4.09463C37.0458 3.891 36.829 3.7879 36.588 3.7879C36.3235 3.7879 36.0893 3.89171 35.8939 4.0944L33.5594 6.43522V2.12989C33.5594 1.84865 33.4686 1.60893 33.2883 1.41663C33.1068 1.22315 32.8761 1.125 32.6027 1.125C32.3292 1.125 32.0984 1.22315 31.917 1.41663C31.737 1.60869 31.646 1.84841 31.646 2.12989V10.2866C31.646 10.5681 31.7372 10.808 31.9168 10.9994C32.098 11.1933 32.3288 11.2915 32.6027 11.2915C32.8763 11.2915 33.1071 11.1933 33.2885 10.9996C33.4686 10.8078 33.5594 10.5678 33.5594 10.2866V8.88671L33.9587 8.50684L36.2867 10.9564C36.4769 11.1756 36.7137 11.2865 36.9904 11.2865C37.2245 11.2865 37.4448 11.1947 37.6451 11.0135C37.8538 10.825 37.9596 10.5874 37.9596 10.3078C37.9596 10.0363 37.8606 9.79062 37.6677 9.57945L35.3986 7.13008Z" fill="#00ADC6"/>
</g>
<path fill-rule="evenodd" clip-rule="evenodd" d="M52.1527 7.03558C52.1527 7.60939 52.001 8.07213 51.6888 8.44982C51.3847 8.81765 51.0061 8.99663 50.531 8.99663C50.0474 8.99663 49.6645 8.81787 49.3607 8.44982C49.0485 8.07235 48.897 7.60963 48.897 7.03558C48.897 6.46198 49.0484 6.00161 49.36 5.62838C49.6641 5.26431 50.0468 5.08744 50.531 5.08744C51.0145 5.08744 51.3952 5.26407 51.6949 5.62744C52.003 6.00091 52.1527 6.46175 52.1527 7.03558ZM53.5709 5.08956C53.2842 4.51526 52.8874 4.05911 52.3918 3.73404C51.8931 3.40778 51.3305 3.24219 50.7187 3.24219C50.2952 3.24219 49.8846 3.34812 49.4982 3.55717C49.2655 3.6833 49.0619 3.82377 48.8893 3.97785C48.8441 3.86158 48.7979 3.24219 48.0044 3.24219C47.7313 3.24219 47.5009 3.3399 47.3201 3.5325C47.1404 3.72347 47.0496 4.09176 47.0496 4.37175V12.2984C47.0496 12.5885 47.141 12.8302 47.3221 13.0169C47.5028 13.2041 47.7324 13.2988 48.0044 13.2988C48.2773 13.2988 48.5073 13.2011 48.6892 13.0082C48.8684 12.817 48.9593 12.5784 48.9593 12.2984V10.2185C49.1361 10.3496 49.334 10.4672 49.5515 10.5704C49.9312 10.7505 50.3407 10.8419 50.7687 10.8419C51.3645 10.8419 51.9174 10.676 52.411 10.3493C52.9029 10.0245 53.2955 9.56552 53.5779 8.9863C53.8581 8.41153 54.0001 7.75527 54.0001 7.03558C54.0001 6.31542 53.8558 5.66055 53.5709 5.08956Z" fill="#00ADC6"/>
<path fill-rule="evenodd" clip-rule="evenodd" d="M43.5369 7.48284C43.5369 8.04212 43.3883 8.49101 43.0824 8.85494C42.7842 9.20992 42.4084 9.38238 41.9333 9.38238C41.4589 9.38238 41.0855 9.21016 40.7915 8.85585C40.4892 8.49193 40.3423 8.04281 40.3423 7.48284C40.3423 6.9231 40.4914 6.47192 40.7973 6.10388C41.0957 5.745 41.4672 5.57071 41.9333 5.57071C42.4077 5.57071 42.7836 5.74523 43.0818 6.10388C43.3881 6.47216 43.5369 6.92333 43.5369 7.48284ZM45.1729 4.04608C44.9918 3.86377 44.7625 3.77148 44.4907 3.77148C44.2176 3.77148 43.9873 3.86676 43.8063 4.05455C43.7136 4.15053 43.6448 4.25885 43.5996 4.37863C43.4013 4.23571 43.1775 4.11158 42.9307 4.00807C42.557 3.85119 42.1514 3.77148 41.7263 3.77148C41.1308 3.77148 40.5784 3.93317 40.0839 4.25175C39.5921 4.56895 39.1993 5.016 38.9171 5.58079C38.6371 6.14121 38.4951 6.78111 38.4951 7.48284C38.4951 8.18549 38.6394 8.82379 38.9242 9.38031C39.2109 9.94052 39.6075 10.3853 40.1035 10.702C40.6013 11.0201 41.1642 11.1816 41.7764 11.1816C42.1972 11.1816 42.6038 11.0877 42.9846 10.9029C43.228 10.7845 43.4412 10.6484 43.6225 10.4961C43.6253 10.6464 43.8713 11.1809 44.4907 11.1809C44.7635 11.1809 44.9939 11.0856 45.1752 10.8978C45.3547 10.7117 45.4456 10.4787 45.4456 10.2057V4.7469C45.4456 4.46452 45.354 4.22885 45.1732 4.04632L45.1729 4.04608Z" fill="#00ADC6"/>
<path fill-rule="evenodd" clip-rule="evenodd" d="M28.0318 7.48284C28.0318 8.04212 27.8831 8.49101 27.5773 8.85494C27.2791 9.20992 26.9033 9.38238 26.4282 9.38238C25.9538 9.38238 25.5804 9.21016 25.2864 8.85585C24.9841 8.49193 24.8372 8.04281 24.8372 7.48284C24.8372 6.9231 24.9863 6.47192 25.2922 6.10388C25.5906 5.745 25.9621 5.57071 26.4282 5.57071C26.9026 5.57071 27.2784 5.74523 27.5766 6.10388C27.883 6.47216 28.0318 6.92333 28.0318 7.48284ZM29.6678 4.04608C29.4867 3.86377 29.2573 3.77148 28.9856 3.77148C28.7125 3.77148 28.4821 3.86676 28.3012 4.05455C28.2085 4.15053 28.1397 4.25885 28.0945 4.37863C27.8962 4.23571 27.6723 4.11158 27.4256 4.00807C27.0519 3.85119 26.6463 3.77148 26.2212 3.77148C25.6257 3.77148 25.0733 3.93317 24.5788 4.25175C24.087 4.56895 23.6942 5.016 23.412 5.58079C23.1321 6.14121 22.99 6.78111 22.99 7.48284C22.99 8.18549 23.1343 8.82379 23.4191 9.38031C23.7057 9.94052 24.1023 10.3853 24.5983 10.702C25.0962 11.0201 25.6591 11.1816 26.2713 11.1816C26.6921 11.1816 27.0987 11.0877 27.4795 10.9029C27.7228 10.7845 27.9361 10.6484 28.1174 10.4961C28.1201 10.6464 28.3662 11.1809 28.9856 11.1809C29.2584 11.1809 29.4888 11.0856 29.6701 10.8978C29.8495 10.7117 29.9405 10.4787 29.9405 10.2057V4.7469C29.9405 4.46452 29.8489 4.22885 29.6681 4.04632L29.6678 4.04608Z" fill="#00ADC6"/>
<path fill-rule="evenodd" clip-rule="evenodd" d="M13.3663 6.68258C13.3663 10.3367 10.3742 13.2988 6.68305 13.2988C2.99215 13.2988 0 10.3367 0 6.68258C0 3.02852 2.99215 0.0664062 6.68305 0.0664062C10.3742 0.0664062 13.3663 3.02852 13.3663 6.68258Z" fill="#0069B1"/>
<path fill-rule="evenodd" clip-rule="evenodd" d="M13.3664 6.66117C13.3664 9.02345 12.105 11.091 10.2132 12.2402L5.59332 10.6331H5.59126L5.18433 10.4923C5.17999 10.488 5.17314 10.4855 5.16605 10.4832C5.13635 10.4721 5.10688 10.4585 5.0749 10.4426C5.05409 10.4356 5.03354 10.4288 5.01298 10.4175C4.98556 10.4041 4.95813 10.3928 4.93324 10.3812C4.84162 10.3361 4.75502 10.2907 4.6682 10.2384C4.6385 10.2202 4.6088 10.2021 4.58138 10.1865C4.38945 10.0683 4.20645 9.93458 4.03759 9.78494C4.01452 9.76455 3.98961 9.73984 3.96654 9.7192C3.79746 9.56527 3.64439 9.39524 3.50296 9.21388C3.48217 9.18441 3.4616 9.1572 3.43898 9.12523C3.391 9.05972 3.3453 8.99148 3.30166 8.92143L3.29504 8.9144C3.21963 8.82145 3.16023 8.71513 3.11888 8.59724C2.83122 8.03705 2.67334 7.39796 2.67334 6.72011V6.69064C2.67334 4.99034 3.6606 3.51675 5.19348 2.89331L5.58645 2.75705L10.2819 1.125C12.1347 2.27893 13.3664 4.32836 13.3664 6.66117Z" fill="#00ADC6"/>
<path fill-rule="evenodd" clip-rule="evenodd" d="M10.1585 8.87708C10.1585 9.18291 10.0185 9.425 9.81972 9.60828C9.13703 10.2295 8.26516 10.6523 6.92675 10.6523C6.85806 10.6523 6.78914 10.6523 6.72303 10.65C6.63699 10.6451 6.55588 10.6404 6.47241 10.6329C6.40864 10.6255 6.34723 10.6182 6.28557 10.6084C6.2661 10.6084 6.24641 10.6037 6.22672 10.6012C6.16295 10.5914 6.09919 10.5816 6.03776 10.5669C5.97634 10.5571 5.91491 10.5426 5.85584 10.5276C5.79208 10.5132 5.73065 10.4961 5.66947 10.4788C5.65212 10.4739 5.63758 10.4714 5.62046 10.4641C5.55881 10.4471 5.49739 10.4251 5.43596 10.403C5.39915 10.3932 5.36234 10.3787 5.32812 10.364C5.26412 10.3395 5.20035 10.3124 5.13635 10.2832C5.1169 10.2757 5.09461 10.2685 5.07492 10.2564C5.04562 10.244 5.01866 10.2318 4.9917 10.2197C4.8984 10.1732 4.81001 10.1268 4.71905 10.0729C4.68951 10.0532 4.66021 10.0362 4.63067 10.0192C4.43421 9.89682 4.24737 9.75979 4.07317 9.6057C4.04856 9.58376 4.02394 9.55925 3.99956 9.5373C3.82749 9.37831 3.67041 9.20462 3.52553 9.01645C3.50326 8.98703 3.48145 8.95786 3.45918 8.92587C3.41019 8.85747 3.36354 8.78906 3.31922 8.71575L3.31195 8.70829C3.23318 8.6128 3.17176 8.50284 3.13026 8.38309C2.83557 7.80597 2.67334 7.14808 2.67334 6.44865V6.41947C2.67334 4.60221 3.76372 3.03712 5.43854 2.44062C5.90273 2.27417 6.41122 2.18359 6.9563 2.18359C8.19131 2.18359 9.0585 2.51627 9.74329 3.09361C9.89825 3.21827 10.1095 3.48955 10.1095 3.88317C10.1095 4.46285 9.63779 4.91785 9.0585 4.91785C8.75396 4.91785 8.52538 4.79553 8.38777 4.68789C7.97774 4.36993 7.5506 4.17196 6.94129 4.17196C5.78246 4.17196 4.95958 5.1917 4.95958 6.38747V6.41947C4.95958 6.79346 5.03344 7.14318 5.16847 7.45369C5.20035 7.53189 5.23973 7.60544 5.28123 7.67873C5.29108 7.69345 5.29859 7.70815 5.30843 7.72286C5.35743 7.80341 5.41159 7.87694 5.47043 7.94792C5.49012 7.9771 5.5145 8.0016 5.53935 8.02845C5.55389 8.0455 5.57123 8.06278 5.58577 8.07982C5.61273 8.10409 5.63993 8.13118 5.66947 8.15803C5.70135 8.18744 5.7358 8.21686 5.77261 8.24604C5.79957 8.27056 5.83146 8.28993 5.861 8.30954C5.87319 8.32191 5.88797 8.33172 5.90507 8.34152C5.93696 8.36348 5.97165 8.38565 6.00822 8.40526C6.04269 8.42697 6.0795 8.44425 6.11631 8.46362C6.21453 8.51265 6.31769 8.55163 6.42576 8.58106C6.46748 8.59343 6.50945 8.60557 6.55588 8.61537H6.56079C6.59994 8.62518 6.64449 8.63241 6.68856 8.63965C6.70333 8.64222 6.71787 8.64222 6.73287 8.64712C6.76453 8.64946 6.79407 8.65459 6.82852 8.65459C6.85291 8.65926 6.88011 8.65926 6.90965 8.66183C6.94903 8.6644 6.98818 8.66673 7.0299 8.66673C7.52597 8.66673 7.93109 8.52479 8.30197 8.28526C8.35847 8.2486 8.41731 8.20938 8.47381 8.16783C8.48857 8.15803 8.501 8.14822 8.51296 8.13609C8.52796 8.12628 8.5425 8.11648 8.55728 8.10409C8.57204 8.09219 8.58681 8.07982 8.60651 8.07002C8.62362 8.05763 8.64331 8.0455 8.66535 8.03336C8.73169 7.99671 8.80789 7.96238 8.89369 7.93553C8.98207 7.9087 9.07795 7.89142 9.18111 7.89142C9.72875 7.89142 10.1585 8.33172 10.1585 8.87708Z" fill="#FEFEFE"/>
<path fill-rule="evenodd" clip-rule="evenodd" d="M5.34662 8.00463C5.34662 8.28472 5.23684 8.53918 5.05453 8.72672C4.86285 8.93479 4.58704 9.06444 4.27843 9.06444C3.94417 9.06444 3.64984 8.9116 3.45347 8.67812L3.44633 8.67127C3.37136 8.58071 3.31311 8.4769 3.2734 8.36335C3.23144 8.25225 3.20801 8.12966 3.20801 8.00463C3.20801 7.42151 3.6871 6.94727 4.27843 6.94727C4.38599 6.94727 4.49109 6.9636 4.58928 6.99608C4.85593 7.07449 5.0755 7.25495 5.20872 7.48865C5.29754 7.63929 5.34662 7.81732 5.34662 8.00463Z" fill="#98C93C"/>
</svg>
