<svg width="14" height="14" viewBox="0 0 14 14" fill="none" xmlns="http://www.w3.org/2000/svg">
<path d="M7 0.25C3.41576 0.25 0.5 3.16576 0.5 6.75C0.5 10.3342 3.41576 13.25 7 13.25C10.5842 13.25 13.5 10.3342 13.5 6.75C13.5 3.16576 10.5842 0.25 7 0.25Z" fill="#3CD162"/>
<path d="M10.3253 5.25424L6.45312 9.07756C6.33695 9.19227 6.18445 9.25 6.03196 9.25C5.87946 9.25 5.72697 9.19227 5.6108 9.07756L3.67475 7.1659C3.44175 6.93595 3.44175 6.56415 3.67475 6.3342C3.90763 6.10415 4.28407 6.10415 4.51706 6.3342L6.03196 7.83001L9.48302 4.42254C9.71591 4.19249 10.0923 4.19249 10.3253 4.42254C10.5582 4.65249 10.5582 5.02419 10.3253 5.25424Z" fill="#FAFAFA"/>
</svg>
