<svg width="67" height="68" viewBox="0 0 67 68" fill="none" xmlns="http://www.w3.org/2000/svg">
<path d="M61.5968 52.3884C61.5968 54.7994 59.6613 56.7541 57.2742 56.7541C54.8871 56.7541 52.9516 54.7994 52.9516 52.3884C52.9516 49.9775 54.8871 48.0227 57.2742 48.0227C59.6613 48.0227 61.5968 49.9775 61.5968 52.3884Z" fill="#4BA3DD"/>
<path d="M4.32258 5.45703H17.2903V10.9142H4.32258V5.45703Z" fill="#4BA3DD"/>
<path d="M56.1935 51.2971H58.3548V53.48H56.1935V51.2971Z" fill="black"/>
<path d="M4.32258 4.36572H17.2903V6.54858H4.32258V4.36572Z" fill="black"/>
<path d="M15.129 8.73145H17.2903V10.9143H15.129V8.73145Z" fill="black"/>
<path d="M4.32258 8.73145H12.9677V10.9143H4.32258V8.73145Z" fill="black"/>
<path d="M29.1774 49.1143H37.8226V51.2971H29.1774V49.1143Z" fill="black"/>
<path fill-rule="evenodd" clip-rule="evenodd" d="M23.7742 14.1885H43.2258C45.013 14.1885 46.4677 15.6577 46.4677 17.4628V52.3884C46.4677 54.1934 45.013 55.6627 43.2258 55.6627H23.7742C21.987 55.6627 20.5323 54.1934 20.5323 52.3884V17.4628C20.5323 15.6577 21.987 14.1885 23.7742 14.1885ZM43.2258 16.3713H23.7742C23.179 16.3713 22.6935 16.8606 22.6935 17.4628V20.737H44.3065V17.4628C44.3065 16.8606 43.821 16.3713 43.2258 16.3713ZM44.3065 22.9199V44.7484H22.6935V22.9199H44.3065ZM23.7742 53.4798H43.2258C43.821 53.4798 44.3065 52.9906 44.3065 52.3884V46.9313H22.6935V52.3884C22.6935 52.9906 23.179 53.4798 23.7742 53.4798Z" fill="black"/>
<path fill-rule="evenodd" clip-rule="evenodd" d="M27.0161 25.1028H39.9839C41.178 25.1028 42.1452 26.0796 42.1452 27.2856V40.3828C42.1452 41.5888 41.178 42.5656 39.9839 42.5656H27.0161C25.822 42.5656 24.8548 41.5888 24.8548 40.3828V27.2856C24.8548 26.0796 25.822 25.1028 27.0161 25.1028ZM36.7419 33.8342L30.2581 29.4685V38.1999L36.7419 33.8342Z" fill="#4BA3DD"/>
<path fill-rule="evenodd" clip-rule="evenodd" d="M38.6906 33.8341L29.1774 27.4294V40.2388L38.6906 33.8341ZM34.7933 33.8341L31.3387 36.1609V31.5074L34.7933 33.8341Z" fill="black"/>
<path fill-rule="evenodd" clip-rule="evenodd" d="M50.2131 7.05484C45.2161 3.86796 39.4383 2.18285 33.5 2.18285C29.3785 2.18285 25.3846 2.9849 21.6129 4.54903V6.91521C25.3303 5.24343 29.4043 4.36571 33.5 4.36571C39.0911 4.36571 44.5238 5.96767 49.2116 8.99894L48.0465 10.837C43.7065 8.03062 38.6774 6.54856 33.5 6.54856C29.3785 6.54856 25.2859 7.51901 21.6129 9.33841V12.0057C21.6129 13.8107 20.1581 15.28 18.371 15.28H13.6358L10.8065 20.9945L10.2693 19.91C7.79141 24.1142 6.48387 28.8876 6.48387 33.8342C6.48387 41.9816 10.0487 49.6391 16.2635 54.8463L14.8847 56.5261C8.17185 50.9043 4.32258 42.6333 4.32258 33.8342C4.32258 28.0312 5.99737 22.4505 9.14327 17.6355L8.03994 15.4079C4.20386 20.8016 2.16129 27.1514 2.16129 33.8342C2.16129 41.6336 4.99587 49.1286 10.1405 54.9348L8.53066 56.3907C3.03034 50.1827 0 42.1729 0 33.8342C0 27.1578 1.90749 20.7936 5.50348 15.28H3.24194C1.45476 15.28 0 13.8107 0 12.0057V3.27428C0 1.46927 1.45476 0 3.24194 0H18.371C19.8083 0 21.0151 0.954998 21.4388 2.26599C25.2807 0.765278 29.3299 0 33.5 0C39.8467 0 46.0245 1.80075 51.3676 5.20932L50.2131 7.05484ZM18.371 13.0971C18.9662 13.0971 19.4516 12.6079 19.4516 12.0057V3.27428C19.4516 2.67208 18.9662 2.18285 18.371 2.18285H3.24194C2.64674 2.18285 2.16129 2.67208 2.16129 3.27428V12.0057C2.16129 12.6079 2.64674 13.0971 3.24194 13.0971H9.31318L10.8065 16.114L12.2997 13.0971H18.371Z" fill="black"/>
<path fill-rule="evenodd" clip-rule="evenodd" d="M67 33.8342C67 27.4231 65.217 21.1826 61.8421 15.7883L60.0159 16.9544C63.1713 21.9985 64.8387 27.8367 64.8387 33.8342C64.8387 37.8956 64.0889 41.8179 62.6225 45.5297C62.0421 45.0629 61.41 44.6829 60.743 44.385C62.0215 41.0201 62.6774 37.4762 62.6774 33.8342C62.6774 28.1623 61.0781 22.6534 58.0514 17.9035L56.2337 19.0845C59.0345 23.4821 60.5161 28.5822 60.5161 33.8342C60.5161 37.2678 59.8882 40.6044 58.6619 43.7652C58.1612 43.6863 57.6504 43.6437 57.127 43.657C52.6071 43.7322 48.7963 47.5053 48.6343 52.0665C48.5868 53.4015 48.8549 54.7013 49.3714 55.8876C44.7386 59.3015 39.2784 61.1198 33.5 61.1198C28.5907 61.1198 23.7816 59.7763 19.5962 57.2332L18.4834 59.1049C23.0049 61.851 28.197 63.3027 33.5 63.3027C39.6747 63.3027 45.5137 61.3783 50.4843 57.7683C50.9317 58.3433 51.4504 58.8661 52.0409 59.3202C46.6872 63.292 40.1749 65.4855 33.5 65.4855C29.9156 65.4855 26.4014 64.8796 23.0534 63.6859L22.3326 65.7429C25.9128 67.0198 29.6692 67.6684 33.5 67.6684C40.4778 67.6684 47.3009 65.4418 52.9516 61.373V63.3027C52.9516 65.7104 54.8902 67.6684 57.2742 67.6684C59.6582 67.6684 61.5968 65.7104 61.5968 63.3027V61.1065C61.5968 60.4148 61.8854 59.7891 62.3693 59.4326C64.5923 57.7933 65.9194 55.1596 65.9194 52.3884C65.9194 50.5099 65.3294 48.731 64.253 47.2478C66.0697 43.0132 67 38.51 67 33.8342ZM57.2742 65.4855C56.0822 65.4855 55.1129 64.5066 55.1129 63.3027H59.4355C59.4355 64.5066 58.4662 65.4855 57.2742 65.4855ZM59.4355 61.1065C59.4355 59.7204 60.056 58.436 61.0955 57.6697C62.7629 56.4397 63.7581 54.4652 63.7581 52.3884C63.7581 50.6191 63.0695 48.9601 61.8216 47.7206C60.5985 46.5044 58.987 45.8399 57.2742 45.8399C57.2373 45.8399 57.2009 45.8399 57.1639 45.8409C53.7727 45.8964 50.9159 48.7256 50.7946 52.1459C50.718 54.3069 51.7027 56.3646 53.427 57.65C54.4829 58.4371 55.1129 59.7273 55.1129 61.1033V61.1198H56.1936V55.6627H58.3549V61.1198H59.4355V61.1065Z" fill="black"/>
<path fill-rule="evenodd" clip-rule="evenodd" d="M64.8065 5.5392C65.149 6.14993 65.4149 6.7985 65.6006 7.47425L67 7.94428V11.7014L65.6006 12.1714C65.4149 12.8472 65.149 13.4931 64.8065 14.1054L65.4666 15.4393L62.8362 18.097L61.5155 17.4303C60.9108 17.7762 60.2687 18.0448 59.5996 18.2324L59.1331 19.6457H55.4142L54.9488 18.2324C54.2797 18.0448 53.6392 17.7762 53.0329 17.4303L51.7121 18.097L49.0818 15.4393L49.7419 14.1054C49.3994 13.4941 49.1335 12.8472 48.9477 12.1714L47.5484 11.7003V7.94428L48.9477 7.47425C49.1335 6.7985 49.3994 6.15153 49.7419 5.5392L49.0818 4.2053L51.7121 1.54867L53.0329 2.21536C53.6376 1.86949 54.2797 1.6009 54.9488 1.41331L55.4153 0H59.1342L59.6006 1.41331C60.2697 1.6009 60.9108 1.86949 61.5166 2.21536L62.8362 1.54867L65.4666 4.2053L64.8065 5.5392ZM54.0323 9.82284C54.0323 11.6316 55.4833 13.0971 57.2742 13.0971C59.0651 13.0971 60.5161 11.6316 60.5161 9.82284C60.5161 8.0141 59.0651 6.54856 57.2742 6.54856C55.4833 6.54856 54.0323 8.0141 54.0323 9.82284Z" fill="#4BA3DD"/>
<path fill-rule="evenodd" clip-rule="evenodd" d="M52.9516 9.82274C52.9516 12.2305 54.8902 14.1884 57.2742 14.1884C59.6582 14.1884 61.5968 12.2305 61.5968 9.82274C61.5968 7.41499 59.6582 5.45703 57.2742 5.45703C54.8902 5.45703 52.9516 7.41499 52.9516 9.82274ZM55.1129 9.82274C55.1129 8.61886 56.0822 7.63988 57.2742 7.63988C58.4662 7.63988 59.4355 8.61886 59.4355 9.82274C59.4355 11.0266 58.4662 12.0056 57.2742 12.0056C56.0822 12.0056 55.1129 11.0266 55.1129 9.82274Z" fill="black"/>
<path d="M19.4516 67.6684H4.32258C1.93862 67.6684 0 65.7104 0 63.3027C0 61.2408 1.42204 59.5078 3.32847 59.0526C3.78437 56.5074 5.99526 54.5713 8.64516 54.5713C9.81973 54.5713 10.9558 54.9673 11.8871 55.6835C12.8184 54.9673 13.9545 54.5713 15.129 54.5713C17.7789 54.5713 19.9898 56.5074 20.4457 59.0526C22.3522 59.5078 23.7742 61.2408 23.7742 63.3027C23.7742 65.7104 21.8356 67.6684 19.4516 67.6684Z" fill="#4BA3DD"/>
</svg>
