<svg height="496pt" viewBox="0 0 496 496" width="496pt" xmlns="http://www.w3.org/2000/svg"><path d="m456 384c0 17.671875-14.328125 32-32 32s-32-14.328125-32-32 14.328125-32 32-32 32 14.328125 32 32zm0 0" fill="#f0bc5e"/><path d="m32 40h96v40h-96zm0 0" fill="#f0bc5e"/><path d="m416 376h16v16h-16zm0 0"/><path d="m32 32h96v16h-96zm0 0"/><path d="m112 64h16v16h-16zm0 0"/><path d="m32 64h64v16h-64zm0 0"/><path d="m216 360h64v16h-64zm0 0"/><path d="m320 104h-144c-13.230469 0-24 10.769531-24 24v256c0 13.230469 10.769531 24 24 24h144c13.230469 0 24-10.769531 24-24v-256c0-13.230469-10.769531-24-24-24zm-144 16h144c4.40625 0 8 3.585938 8 8v24h-160v-24c0-4.414062 3.59375-8 8-8zm152 48v160h-160v-160zm-8 224h-144c-4.40625 0-8-3.585938-8-8v-40h160v40c0 4.414062-3.59375 8-8 8zm0 0"/><path d="m296 184h-96c-8.839844 0-16 7.160156-16 16v96c0 8.839844 7.160156 16 16 16h96c8.839844 0 16-7.160156 16-16v-96c0-8.839844-7.160156-16-16-16zm-72 96v-64l48 32zm0 0" fill="#f0bc5e"/><path d="m216 294.945312v-93.890624l70.425781 46.945312zm16-64v34.109376l25.574219-17.054688zm0 0"/><path d="m248 16c43.960938 0 86.734375 12.351562 123.726562 35.710938l8.546876-13.527344c-39.554688-24.984375-85.289063-38.183594-132.273438-38.183594-30.871094 0-60.847656 5.609375-89.289062 16.609375-3.136719-9.609375-12.070313-16.609375-22.710938-16.609375h-112c-13.230469 0-24 10.769531-24 24v64c0 13.230469 10.769531 24 24 24h16.742188c-26.621094 40.414062-40.742188 87.0625-40.742188 136 0 61.121094 22.433594 119.832031 63.152344 165.335938l11.917968-10.671876c-38.085937-42.558593-59.070312-97.496093-59.070312-154.664062 0-48.984375 15.121094-95.527344 43.519531-135.0625l8.167969 16.328125c-23.289062 35.292969-35.6875 76.199219-35.6875 118.734375 0 64.496094 28.496094 125.121094 78.191406 166.328125l10.207032-12.3125c-46.007813-38.167969-72.398438-94.296875-72.398438-154.015625 0-36.257812 9.679688-71.246094 28.023438-102.0625l3.976562 7.949219 20.945312-41.886719h35.054688c13.230469 0 24-10.769531 24-24v-19.550781c27.191406-13.335938 57.488281-20.449219 88-20.449219 38.328125 0 75.558594 10.863281 107.6875 31.433594l8.625-13.472656c-34.703125-22.21875-74.921875-33.960938-116.3125-33.960938-30.320312 0-60.480469 6.433594-88 18.6875v-17.34375c27.921875-11.464844 57.488281-17.34375 88-17.34375zm-104 72c0 4.414062-3.59375 8-8 8h-44.945312l-11.054688 22.113281-11.054688-22.113281h-44.945312c-4.40625 0-8-3.585938-8-8v-64c0-4.414062 3.59375-8 8-8h112c4.40625 0 8 3.585938 8 8zm0 0"/><path d="m496 248c0-46.992188-13.199219-92.734375-38.183594-132.273438l-13.519531 8.546876c23.359375 36.972656 35.703125 79.765624 35.703125 123.726562 0 29.769531-5.550781 58.519531-16.40625 85.726562-4.296875-3.421874-8.976562-6.207031-13.914062-8.390624 9.464843-24.664063 14.320312-50.640626 14.320312-77.335938 0-41.574219-11.839844-81.953125-34.246094-116.769531l-13.457031 8.65625c20.734375 32.234375 31.703125 69.617187 31.703125 108.113281 0 25.167969-4.648438 49.625-13.726562 72.792969-3.707032-.578125-7.488282-.890625-11.363282-.792969-33.460937.550781-61.671875 28.207031-62.871094 61.640625-.351562 9.785156 1.632813 19.3125 5.457032 28.007813-34.296875 25.023437-74.71875 38.351562-117.496094 38.351562-36.34375 0-71.945312-9.847656-102.929688-28.488281l-8.238281 13.71875c33.472657 20.128906 71.910157 30.769531 111.167969 30.769531 45.710938 0 88.9375-14.105469 125.734375-40.566406 3.3125 4.214844 7.152344 8.046875 11.523437 11.375-39.632812 29.113281-87.84375 45.191406-137.257812 45.191406-26.535156 0-52.550781-4.441406-77.335938-13.191406l-5.335937 15.078125c26.503906 9.359375 54.3125 14.113281 82.671875 14.113281 51.65625 0 102.167969-16.320312 144-46.144531v14.144531c0 17.648438 14.351562 32 32 32s32-14.351562 32-32v-16.097656c0-5.070313 2.136719-9.65625 5.71875-12.269532 16.457031-12.015624 26.28125-31.320312 26.28125-51.632812 0-13.769531-4.367188-26.808594-12.335938-37.679688 13.449219-31.039062 20.335938-64.046874 20.335938-98.320312zm-72 232c-8.824219 0-16-7.175781-16-16h32c0 8.824219-7.175781 16-16 16zm28.289062-57.289062c-7.695312 5.617187-12.289062 15.03125-12.289062 25.191406v.097656h-8v-40h-16v40h-8v-.121094c0-10.085937-4.664062-19.542968-12.480469-25.3125-12.765625-9.421875-20.054687-24.503906-19.488281-40.34375.898438-25.070312 22.046875-45.808594 47.152344-46.214844.273437-.007812.542968-.007812.816406-.007812 12.679688 0 24.609375 4.871094 33.664062 13.785156 9.238282 9.085938 14.335938 21.246094 14.335938 34.214844 0 15.222656-7.367188 29.695312-19.710938 38.710938zm0 0"/><path d="m485.640625 54.785156c-1.375-4.953125-3.34375-9.707031-5.878906-14.183594l4.886719-9.777343-19.472657-19.472657-9.769531 4.886719c-4.484375-2.535156-9.230469-4.503906-14.183594-5.878906l-3.453125-10.359375h-27.53125l-3.453125 10.359375c-4.953125 1.375-9.707031 3.34375-14.183594 5.878906l-9.777343-4.886719-19.472657 19.472657 4.886719 9.777343c-2.535156 4.488282-4.503906 9.230469-5.878906 14.183594l-10.359375 3.445313v27.53125l10.359375 3.453125c1.375 4.953125 3.34375 9.695312 5.878906 14.175781l-4.886719 9.777344 19.472657 19.480469 9.777343-4.886719c4.488282 2.535156 9.230469 4.503906 14.183594 5.878906l3.445313 10.359375h27.53125l3.453125-10.359375c4.953125-1.375 9.707031-3.34375 14.183594-5.878906l9.777343 4.886719 19.472657-19.480469-4.886719-9.777344c2.535156-4.488281 4.503906-9.222656 5.878906-14.175781l10.359375-3.445313v-27.539062zm-61.640625 41.214844c-13.257812 0-24-10.742188-24-24s10.742188-24 24-24 24 10.742188 24 24-10.742188 24-24 24zm0 0" fill="#f0bc5e"/><path d="m424 104c-17.648438 0-32-14.351562-32-32s14.351562-32 32-32 32 14.351562 32 32-14.351562 32-32 32zm0-48c-8.824219 0-16 7.175781-16 16s7.175781 16 16 16 16-7.175781 16-16-7.175781-16-16-16zm0 0"/><path d="m144 496h-112c-17.648438 0-32-14.351562-32-32 0-15.113281 10.527344-27.816406 24.640625-31.152344 3.375-18.65625 19.742187-32.847656 39.359375-32.847656 8.695312 0 17.105469 2.902344 24 8.152344 6.894531-5.25 15.304688-8.152344 24-8.152344 19.617188 0 35.984375 14.191406 39.359375 32.847656 14.113281 3.335938 24.640625 16.039063 24.640625 31.152344 0 17.648438-14.351562 32-32 32zm0 0" fill="#f0bc5e"/></svg>