<?xml version="1.0" encoding="UTF-8"?>
<svg width="15px" height="14px" viewBox="0 0 15 14" version="1.1" xmlns="http://www.w3.org/2000/svg" xmlns:xlink="http://www.w3.org/1999/xlink">
    <title>Combined Shape</title>
    <g id="PROFILE" stroke="none" stroke-width="1" fill="none" fill-rule="evenodd">
        <g id="Artboard-Copy-7" transform="translate(-699.000000, -333.000000)" fill="#2BA0E7" fill-rule="nonzero" stroke="#2BA0E7" stroke-width="1.12128182">
            <g id="Group-5" transform="translate(479.225806, 240.000000)">
                <g id="Group-3" transform="translate(207.000000, 84.000000)">
                    <path d="M26.2127964,17.542178 C26.3237433,17.542178 26.3977079,17.6137109 26.3977079,17.7210102 L26.3977079,19.8669969 C26.3977079,21.154589 25.3252211,22.1918159 23.9938583,22.1918159 L16.597398,22.1918159 C15.2660351,22.1918159 14.1935484,21.154589 14.1935484,19.8669969 L14.1935484,17.7210102 C14.1935484,17.6137109 14.267513,17.542178 14.3784599,17.542178 C14.4894068,17.542178 14.5633714,17.6137109 14.5633714,17.7210102 L14.5633714,19.8669969 C14.5633714,20.9399903 15.4879289,21.8341514 16.597398,21.8341514 L23.9938583,21.8341514 C25.1033273,21.8341514 26.0278849,20.9399903 26.0278849,19.8669969 L26.0278849,17.7210102 C26.0278849,17.6137109 26.1018495,17.542178 26.2127964,17.542178 Z M20.2956281,9.88888889 C20.406575,9.88888889 20.4805396,9.96042178 20.4805396,10.0677211 L20.4795484,17.6858889 L23.4391237,14.8246584 C23.5130884,14.7531255 23.6240353,14.7531255 23.6979999,14.8246584 C23.7719645,14.8961912 23.7719645,15.0034906 23.6979999,15.0750235 L20.4715484,18.1948889 C20.4577984,18.2373715 20.4267379,18.279554 20.3835087,18.3052534 C20.3794547,18.3106946 20.3621963,18.3207092 20.3352732,18.3260503 L20.2956281,18.32977 L20.2956281,18.32977 C20.2582107,18.32977 20.2249998,18.3216338 20.1974138,18.3067334 C20.1794854,18.298733 20.161147,18.2940036 20.1476989,18.2940036 L16.8192918,15.0750235 C16.7453272,15.0034906 16.7453272,14.8961912 16.8192918,14.8246584 C16.8932564,14.7531255 17.0042033,14.7531255 17.0781679,14.8246584 L20.1105484,17.7568889 L20.1107166,10.0677211 C20.1107166,9.96042178 20.1846812,9.88888889 20.2956281,9.88888889 Z" id="Combined-Shape"></path>
                </g>
            </g>
        </g>
    </g>
</svg>