<svg width="49" height="62" viewBox="0 0 49 62" fill="none" xmlns="http://www.w3.org/2000/svg">
<path d="M40.9422 22.81C30.6517 11.1042 28.3141 2 28.3141 2C28.3141 2 26.5318 2.81915 24.5256 4.69597L22 34.5157L24.5256 60H24.5257C36.9379 59.9999 47 49.6366 47 36.8528C46.9999 31.5724 44.1366 26.4438 40.9422 22.81Z" fill="#FF6200"/>
<path d="M21.2915 9.07975C20.0314 11.7169 19.7346 14.69 19.7467 16.9716C19.7582 19.1849 18.2681 21.0951 16.194 21.5292C14.7449 21.8325 13.2469 21.3578 12.2019 20.2644L10.1659 18.134C10.1659 18.134 7.14767 22.4888 6.63045 23.308C4.30718 26.9879 2.96679 31.4067 3.00063 36.1553C3.09079 48.8372 12.8796 59 25 59V4C23.7153 5.22089 22.3371 6.89166 21.2915 9.07975Z" fill="#FD7D21"/>
<path d="M42.3905 21.9761C37.2196 16.1753 34.1467 11.0689 32.4791 7.80655C30.6732 4.27291 30.0813 2.08172 30.0768 2.06429L29.5392 0L27.6193 0.869816C27.51 0.919344 26.1957 1.52784 24.5327 2.83614L23.2609 5.11197L24.5327 7.7902C25.5265 6.65786 26.5516 5.81141 27.376 5.22544C28.721 8.70034 32.1306 15.8794 39.7391 24.4146C41.4341 26.316 45.3765 31.3624 45.3765 37.1414C45.3765 48.8152 36.026 58.3126 24.5328 58.3126H24.5327L23.2609 60.6537L24.5327 61.9454H24.5328C37.9982 61.9453 48.9531 50.8183 48.9531 37.1414C48.9533 32.1824 46.5612 26.6549 42.3905 21.9761Z" fill="#FFB62D"/>
<path d="M9.83567 52.1821C5.91352 48.2289 3.73082 42.9445 3.68945 37.3026C3.65845 33.0791 4.84733 28.9936 7.12744 25.4881C7.40582 25.0602 8.52257 23.4777 9.49195 22.1121L10.1022 22.732C11.6035 24.2568 13.7421 24.9147 15.8244 24.4917C18.7916 23.8889 20.9333 21.2217 20.9167 18.1495C20.9063 16.2482 21.141 13.4803 22.3171 11.0909C22.955 9.79495 23.7338 8.70039 24.5327 7.79012V2.83594C22.7811 4.21411 20.6427 6.36885 19.118 9.46618C17.626 12.4973 17.3275 15.872 17.3401 18.1692C17.3473 19.5061 16.4148 20.6669 15.1228 20.9293C14.2169 21.1131 13.2851 20.8271 12.6313 20.163L9.05501 16.5306L7.82476 18.2536C7.69708 18.4324 4.69055 22.644 4.14321 23.4854C1.47038 27.595 0.0766823 32.3822 0.112806 37.3295C0.16121 43.937 2.71946 50.1274 7.31628 54.7607C11.9127 59.3936 18.027 61.9451 24.5327 61.9451V58.3123C18.9772 58.3123 13.7577 56.1352 9.83567 52.1821Z" fill="#FDCB02"/>
<path d="M24.9733 26.0049C24.9602 26.0049 24.947 26.0054 24.9338 26.0054L21.9681 39.985L24.9338 53.9646C24.947 53.9646 24.9602 53.9651 24.9733 53.9651C32.6616 53.9651 38.8942 47.706 38.8942 39.985C38.8942 32.264 32.6616 26.0049 24.9733 26.0049Z" fill="#ED3800"/>
<path d="M11.0523 39.985C11.0523 47.6927 17.2636 53.9432 24.9337 53.9646V26.0054C17.2637 26.0268 11.0523 32.2773 11.0523 39.985Z" fill="#FF4B00"/>
<path d="M33.1718 31.3149H29.1812L25.4929 36.9805L24.2529 42.1878L25.4929 43.1107L33.1718 31.3149Z" fill="#D9E7EC"/>
<path fill-rule="evenodd" clip-rule="evenodd" d="M27.1976 44.0713C27.1976 40.9998 29.0868 39.2412 31.5898 39.2412C34.0927 39.2412 35.9819 40.9998 35.9819 44.0713C35.9819 47.1674 34.0928 48.9012 31.5898 48.9012C29.0867 48.9012 27.1976 47.1674 27.1976 44.0713ZM30.5508 44.0711C30.5508 45.7307 31.0703 46.2261 31.5898 46.2261C32.1092 46.2261 32.6287 45.7307 32.6287 44.0711C32.6287 42.4116 32.1092 41.9162 31.5898 41.9162C31.0703 41.9162 30.5508 42.4116 30.5508 44.0711Z" fill="#D9E7EC"/>
<path d="M21.8846 48.6533L25.4929 43.1107V36.9805L17.894 48.6533H21.8846Z" fill="#FAFCFD"/>
<path fill-rule="evenodd" clip-rule="evenodd" d="M19.4761 31.0674C21.9792 31.0674 23.8682 32.8261 23.8682 35.8974C23.8682 38.9936 21.9792 40.7275 19.4761 40.7275C16.973 40.7275 15.084 38.9936 15.084 35.8974C15.084 32.826 16.973 31.0674 19.4761 31.0674ZM19.4761 33.7425C18.9566 33.7425 18.4371 34.2379 18.4371 35.8974C18.4371 37.5569 18.9566 38.0524 19.4761 38.0524C19.9956 38.0524 20.5151 37.5569 20.5151 35.8974C20.5151 34.2379 19.9956 33.7425 19.4761 33.7425Z" fill="#FAFCFD"/>
</svg>
