<svg width="15" height="15" viewBox="0 0 15 15" fill="none" xmlns="http://www.w3.org/2000/svg">
<path d="M7.49545 3.20191C7.69331 3.20191 7.85496 3.04027 7.85496 2.84241V2.69134C7.85496 2.49348 7.69331 2.33183 7.49545 2.33183C7.29759 2.33183 7.13594 2.49348 7.13594 2.69134V2.84241C7.13594 3.04027 7.29759 3.20191 7.49545 3.20191ZM7.49545 12.4533C7.29759 12.4533 7.13594 12.6149 7.13594 12.8128V12.9639C7.13594 13.1617 7.29759 13.3234 7.49545 13.3234C7.69331 13.3234 7.85496 13.1617 7.85496 12.9639V12.8128C7.85496 12.6149 7.69331 12.4533 7.49545 12.4533ZM2.51025 7.46809H2.35919C2.16133 7.46809 1.99968 7.62974 1.99968 7.8276C1.99968 8.02546 2.16133 8.18711 2.35919 8.18711H2.51025C2.70811 8.18711 2.86976 8.02546 2.86976 7.8276C2.86976 7.62974 2.70811 7.46809 2.51025 7.46809ZM12.6317 7.46809H12.4806C12.2828 7.46809 12.1211 7.62974 12.1211 7.8276C12.1211 8.02546 12.2828 8.18711 12.4806 8.18711H12.6317C12.8296 8.18711 12.9912 8.02546 12.9912 7.8276C12.9912 7.62974 12.8296 7.46809 12.6317 7.46809ZM4.12192 3.94994C3.97866 3.80668 3.76105 3.80668 3.61779 3.94994C3.47453 4.0932 3.47453 4.31081 3.61779 4.45407L3.72353 4.55981C3.79438 4.63066 3.88437 4.66726 3.9756 4.66726C4.06683 4.66726 4.15682 4.63066 4.22766 4.55982C4.37092 4.41656 4.37092 4.19895 4.22766 4.05569L4.12192 3.94994ZM3.72353 11.0954L3.61779 11.2011C3.47453 11.3444 3.47453 11.562 3.61779 11.7053C3.68863 11.7761 3.77862 11.8127 3.86985 11.8127C3.96108 11.8127 4.05107 11.7761 4.12192 11.7053L4.22766 11.5995C4.37092 11.4563 4.37092 11.2387 4.22766 11.0954C4.0844 10.9521 3.86679 10.9521 3.72353 11.0954ZM10.869 3.94994L10.7632 4.05569C10.62 4.19895 10.62 4.41656 10.7632 4.55982C10.8341 4.63066 10.9241 4.66726 11.0153 4.66726C11.1065 4.66726 11.1965 4.63066 11.2674 4.55982L11.3731 4.45407C11.5164 4.31081 11.5164 4.0932 11.3731 3.94994C11.2299 3.80668 11.0122 3.80668 10.869 3.94994ZM7.85496 7.68298V4.95734C7.85496 4.75948 7.69331 4.59783 7.49545 4.59783C7.29759 4.59783 7.13594 4.75948 7.13594 4.95734V7.8276C7.13594 7.91883 7.17254 8.00882 7.24339 8.07967L10.5517 11.388C10.6226 11.4589 10.7126 11.4955 10.8038 11.4955C10.895 11.4955 10.985 11.4589 11.0559 11.388C11.1991 11.2448 11.1991 11.0272 11.0559 10.8839L7.85496 7.68298ZM7.49545 0.821165C3.62667 0.821165 0.489012 3.95882 0.489012 7.8276C0.489012 11.6964 3.62667 14.834 7.49545 14.834C11.3642 14.834 14.5019 11.6964 14.5019 7.8276C14.5019 3.95882 11.3642 0.821165 7.49545 0.821165ZM7.49545 14.115C4.02239 14.115 1.20803 11.3007 1.20803 7.8276C1.20803 4.35455 4.02239 1.54018 7.49545 1.54018C10.9685 1.54018 13.7829 4.35455 13.7829 7.8276C13.7829 11.3007 10.9685 14.115 7.49545 14.115Z" fill="#737887" stroke="#737887" stroke-width="0.11475"/>
</svg>
