<svg width="41" height="35" viewBox="0 0 41 35" fill="none" xmlns="http://www.w3.org/2000/svg">
<circle cx="25" cy="20" r="14" fill="white"/>
<path d="M26.4111 11.6672L24.0778 11.6661L24.0737 21H33.4111V18.6667H26.408L26.4111 11.6672Z" fill="url(#paint0_linear_228_491)"/>
<path d="M34.8697 8.12101L36.9069 5.21166L34.9955 3.87333L32.9597 6.78074C31.0132 5.62574 28.7882 4.89277 26.4111 4.71108V2.33333H28.7444V0H21.7444V2.33333H24.0778V4.71108C21.7006 4.89277 19.4756 5.62574 17.5291 6.78074L15.4933 3.87333L13.582 5.21166L15.6192 8.12101C13.7205 9.68419 12.2074 11.6993 11.2451 14H5.41109V16.3333H10.4862C10.3065 17.091 10.1831 17.8702 10.1222 18.6667H0.588867V21H10.1222C10.1831 21.7964 10.3064 22.5757 10.4861 23.3333H5.41109V25.6667H11.245C13.5353 31.1425 18.9475 35 25.2444 35C33.6073 35 40.4111 28.1962 40.4111 19.8333C40.4111 15.1216 38.2512 10.9049 34.8697 8.12101ZM25.2444 32.6667C20.2673 32.6667 15.9428 29.8186 13.8151 25.6667H17.0778V23.3333H12.8963C12.6828 22.5812 12.5372 21.801 12.4647 21H14.7444V18.6667H12.4647C12.5372 17.8656 12.6828 17.0854 12.8963 16.3333H17.0778V14H13.8151C15.9428 9.84807 20.2673 7 25.2444 7C32.3207 7 38.0778 12.757 38.0778 19.8333C38.0778 26.9096 32.3207 32.6667 25.2444 32.6667Z" fill="url(#paint1_linear_228_491)"/>
<defs>
<linearGradient id="paint0_linear_228_491" x1="21" y1="35" x2="53" y2="3.5" gradientUnits="userSpaceOnUse">
<stop stop-color="#1F2228"/>
<stop offset="1" stop-color="#8A8D94"/>
</linearGradient>
<linearGradient id="paint1_linear_228_491" x1="21" y1="35" x2="53" y2="3.5" gradientUnits="userSpaceOnUse">
<stop stop-color="#1F2228"/>
<stop offset="1" stop-color="#8A8D94"/>
</linearGradient>
</defs>
</svg>
