<svg width="54" height="39" viewBox="0 0 54 39" fill="none" xmlns="http://www.w3.org/2000/svg">
<path d="M30.2143 38.5995L30.1322 36.248C37.3928 31.955 41.7844 26.6805 43.3029 20.4227C41.4654 21.6446 39.7787 22.2838 38.2407 22.3375C35.6772 22.427 33.4783 21.5232 31.6449 19.6231C29.8115 17.7249 28.8444 15.3582 28.7452 12.5199C28.6357 9.38384 29.705 6.70789 31.9503 4.50019C34.1966 2.29245 37.0147 1.12739 40.4016 1.00911C43.7906 0.89077 46.6711 2.145 49.0433 4.77382C51.4164 7.4016 52.6724 10.7318 52.8131 14.7613C53.0114 20.4399 50.8974 25.6058 46.4694 30.2662C42.0422 34.9235 36.6239 37.7013 30.2143 38.5995Z" fill="url(#paint0_linear)"/>
<path d="M2.2143 38.5995L2.13218 36.248C9.39278 31.955 13.7844 26.6805 15.3029 20.4227C13.4654 21.6446 11.7787 22.2838 10.2407 22.3375C7.67722 22.427 5.47834 21.5232 3.6449 19.6231C1.81154 17.7249 0.844356 15.3582 0.745241 12.5199C0.635727 9.38384 1.70499 6.70789 3.95031 4.50019C6.19663 2.29245 9.01468 1.12739 12.4016 1.00911C15.7906 0.89077 18.6711 2.145 21.0433 4.77382C23.4164 7.4016 24.6724 10.7318 24.8131 14.7613C25.0114 20.4399 22.8974 25.6058 18.4694 30.2662C14.0422 34.9235 8.62386 37.7013 2.2143 38.5995Z" fill="url(#paint1_linear)"/>
<defs>
<linearGradient id="paint0_linear" x1="41.0402" y1="-10.0882" x2="14.6001" y2="11.5826" gradientUnits="userSpaceOnUse">
<stop stop-color="#91CBF1"/>
<stop offset="1" stop-color="#2C92D6"/>
</linearGradient>
<linearGradient id="paint1_linear" x1="13.0402" y1="-10.0882" x2="-13.3999" y2="11.5826" gradientUnits="userSpaceOnUse">
<stop stop-color="#91CBF1"/>
<stop offset="1" stop-color="#2C92D6"/>
</linearGradient>
</defs>
</svg>
