<svg width="9" height="9" viewBox="0 0 9 9" fill="none" xmlns="http://www.w3.org/2000/svg">
<path d="M6.7944 5.6071C7.68821 5.6071 8.40973 6.32861 8.40973 7.22243C8.40973 8.11625 7.68821 8.83776 6.7944 8.83776C5.90058 8.83776 5.17906 8.11625 5.17906 7.22243C5.17906 7.09321 5.19522 6.97475 5.22752 6.85091L2.86914 5.61248C2.57299 5.94093 2.15301 6.14554 1.67918 6.14554C0.785358 6.14554 0.0638428 5.42403 0.0638428 4.53021C0.0638428 3.63639 0.785358 2.91488 1.67918 2.91488C2.15301 2.91488 2.57299 3.12487 2.86914 3.44794L5.22752 2.20952C5.19522 2.08567 5.17906 1.96722 5.17906 1.83799C5.17906 0.944172 5.90058 0.222656 6.7944 0.222656C7.68821 0.222656 8.40973 0.944172 8.40973 1.83799C8.40973 2.73181 7.68821 3.45332 6.7944 3.45332C6.32057 3.45332 5.90058 3.24333 5.60443 2.92026L3.24605 4.15868C3.31126 4.40208 3.31126 4.65835 3.24605 4.90174L5.60443 6.14016C5.90058 5.81171 6.32057 5.6071 6.7944 5.6071Z" fill="#0977BE"/>
</svg>
