<svg width="537" height="367" viewBox="0 0 537 367" fill="none" xmlns="http://www.w3.org/2000/svg">
<path d="M110.553 365.808C110.553 365.808 61.7335 340.014 20.9838 252.764C-26.7469 150.535 11.1868 37.7752 92 13.2117C179.25 -13.2922 232.305 34.5332 232.305 34.5332C232.305 34.5332 314.514 -18.025 415.064 6.53841C515.234 31.0072 551.961 127.249 531.326 242.944C517.53 320.326 460.901 365.524 460.901 365.524L110.553 365.808Z" fill="url(#paint0_linear_1_61)"/>
<path d="M369.966 155.829C367.789 155.9 354.655 152.942 354.632 154.74C354.608 156.515 362.938 161.129 368.215 160.656C368.215 160.656 359.885 173.009 352.833 170.808C345.805 168.607 344.503 163.685 340.125 162.407C335.748 161.129 332.245 161.626 334.209 163.307C336.197 164.963 343.888 165.744 346.846 169.578C349.804 173.388 352.313 175.896 345.332 175.849C338.374 175.801 326.566 172.417 325.264 166.785C325.201 166.533 325.146 166.296 325.099 166.075C325.146 166.525 325.264 166.785 325.264 166.785C323.868 167.235 321.312 170.264 319.467 172.63C319.183 173.033 318.78 173.601 318.165 174.334C317.905 174.689 317.715 174.973 317.574 175.162C317.574 175.162 317.566 175.162 317.55 175.162C317.55 175.162 317.55 175.17 317.55 175.186C317.345 175.502 317.14 175.833 316.935 176.18L315.538 175.896C316.816 173.979 317.881 172.914 317.881 172.914C322.898 166.998 323.939 161.129 323.939 161.129C323.939 161.129 312.628 151.238 320.674 142.742C320.674 142.742 326.732 137.749 332.198 137.3C332.198 137.3 326.377 151.262 329.051 152.184C331.725 153.107 334.422 136.164 334.422 136.164C334.422 136.164 349.307 132.496 354.513 134.152C354.513 134.152 343.107 146.576 345.923 146.813C348.739 147.049 361.187 134.649 361.187 134.649C361.187 134.649 375.598 135.028 376.095 143.713C376.592 152.397 372.119 155.758 369.966 155.829Z" fill="url(#paint1_linear_1_61)"/>
<path d="M322.07 290.052C322.07 290.052 355.91 273.085 362.039 279.001C368.168 284.917 322.07 290.052 322.07 290.052Z" fill="url(#paint2_linear_1_61)"/>
<path d="M316.556 292.087C316.556 292.087 361.897 288.112 362.607 297.554C363.316 307.019 316.556 292.087 316.556 292.087Z" fill="url(#paint3_linear_1_61)"/>
<path d="M160.325 92.4797C166.123 74.6606 196.318 81.8072 196.318 81.8072C196.318 81.8072 215.463 114.44 221.45 115.481C227.437 116.523 210.54 84.3865 210.54 84.3865C222.254 83.8186 251.29 99.579 251.29 99.579C251.29 99.579 247.599 136.377 253.657 135.927C259.715 135.478 255.266 103.176 255.266 103.176C266.388 107.128 276.28 120.806 276.28 120.806C288.396 142.908 259.407 157.343 259.407 157.343C259.407 157.343 258.389 170.122 265.583 185.172C265.583 185.172 267.216 187.988 268.802 192.674L265.725 192.532C265.52 191.696 265.284 190.883 265.015 190.095C265.015 190.095 265.015 190.087 265.015 190.071C265.015 190.071 265.007 190.063 264.992 190.047C264.802 189.55 264.542 188.864 264.211 188.036C264.211 188.036 264.211 188.028 264.211 188.012C263.359 186.143 262.791 184.746 262.436 183.729C259.88 177.813 256.212 170.075 253.562 168.371C253.562 168.371 253.941 167.897 254.295 166.998C254.059 167.424 253.814 167.882 253.562 168.371C247.741 179.398 221.308 179.99 206.778 176.251C192.248 172.536 198.85 168.702 207.085 162.36C215.321 156.042 231.791 158.621 236.808 156.231C241.824 153.841 234.82 150.836 224.999 151.12C215.155 151.38 209.783 160.94 193.904 161.674C178.026 162.384 167.448 132.07 167.448 132.07C178.191 135.998 198.069 130.934 198.992 127.195C199.939 123.48 170.927 122.439 166.478 121.09C162.005 119.717 154.551 110.299 160.325 92.4797Z" fill="url(#paint4_linear_1_61)"/>
<path d="M363.174 243.599C360.5 244.262 343.462 244.025 343.912 246.25C344.338 248.45 355.862 252 362.275 250.012C362.275 250.012 355.2 267.5 345.9 266.601C336.6 265.725 333.713 259.975 327.962 259.525C322.212 259.076 317.999 260.638 320.887 262.176C323.75 263.738 333.5 262.696 338.161 266.648C342.8 270.6 346.562 273.038 337.925 274.812C329.287 276.564 313.787 275.475 310.711 268.825C310.569 268.541 310.435 268.265 310.309 267.997C310.498 268.541 310.711 268.825 310.711 268.825C309.102 269.748 306.712 274.173 305.055 277.581C304.819 278.173 304.44 278.977 303.896 280.042C303.683 280.539 303.493 280.941 303.375 281.225C303.375 281.225 303.367 281.225 303.351 281.225C303.351 281.241 303.351 281.249 303.351 281.249C303.178 281.691 303.02 282.156 302.878 282.645H301.056C302.121 279.948 303.162 278.338 303.162 278.338C307.824 269.701 307.611 262.176 307.611 262.176C307.611 262.176 290.999 252.876 298.737 240.263C298.737 240.263 304.937 232.524 311.586 230.537C311.586 230.537 308.037 249.35 311.586 249.799C315.136 250.225 314.024 228.525 314.024 228.525C314.024 228.525 331.512 220.124 338.374 220.787C338.374 220.787 327.512 239.15 331.062 238.724C334.612 238.275 346.775 219.675 346.775 219.675C346.775 219.675 364.713 216.362 367.6 226.987C370.463 237.612 365.825 242.937 363.174 243.599Z" fill="url(#paint5_linear_1_61)"/>
<path d="M181.765 214.563C188.13 202.471 208.931 211.369 208.931 211.369C208.931 211.369 218.61 237.21 222.775 238.701C226.963 240.192 218.823 215.013 218.823 215.013C227.318 216.078 246.202 231.01 246.202 231.01C246.202 231.01 238.937 256.97 243.363 257.395C247.764 257.821 248.592 234.086 248.592 234.086C256.094 238.298 261.489 249.373 261.489 249.373C267.429 266.767 244.806 273.487 244.806 273.487C244.806 273.487 242.487 282.551 245.776 294.264C245.776 294.264 246.605 296.489 247.149 300.062L244.972 299.565C244.924 298.934 244.854 298.319 244.759 297.719C244.759 297.703 244.759 297.696 244.759 297.696C244.664 297.317 244.57 296.773 244.428 296.134C244.049 294.667 243.812 293.602 243.694 292.844C243.694 292.829 243.694 292.821 243.694 292.821C242.605 288.254 240.925 282.243 239.245 280.681C239.245 280.681 239.576 280.397 239.931 279.782C239.71 280.082 239.482 280.381 239.245 280.681C233.684 287.899 214.634 285.012 204.648 280.515C194.685 276.019 199.915 274.102 206.612 270.576C213.309 267.05 224.81 270.979 228.738 269.89C232.643 268.778 227.957 265.773 220.882 264.731C213.782 263.714 208.742 269.89 197.241 268.423C185.74 266.979 181.93 243.883 181.93 243.883C189.148 248.024 204.056 246.889 205.192 244.309C206.328 241.753 185.646 237.399 182.593 235.861C179.564 234.347 175.375 226.632 181.765 214.563Z" fill="url(#paint6_linear_1_61)"/>
<path d="M175.92 313.148C172.559 305.836 184.178 299.281 184.178 299.281C184.178 299.281 199.726 303.99 201.903 302.594C204.104 301.174 189.408 295.944 189.408 295.944C192.934 292.371 206.707 288.869 206.707 288.869C206.707 288.869 216.243 301.553 218.042 299.66C219.817 297.743 209.002 288.845 209.002 288.845C213.664 286.857 220.763 288.277 220.763 288.277C231.034 291.732 226.088 304.724 226.088 304.724C226.088 304.724 229.495 309.054 236.145 311.729C236.145 311.729 237.494 312.131 239.363 313.148L238.346 314C238.03 313.795 237.715 313.606 237.399 313.432C237.399 313.432 237.391 313.432 237.376 313.432C237.186 313.314 236.902 313.172 236.547 313.006C235.719 312.675 235.127 312.391 234.725 312.178C232.217 311.042 228.785 309.693 227.46 309.906C227.46 309.906 227.437 309.67 227.295 309.267C227.342 309.473 227.397 309.685 227.46 309.906C228.833 315.089 220.669 322.993 214.989 326.045C209.333 329.098 210.28 325.974 211.037 321.573C211.795 317.171 217.758 313.196 218.633 310.971C219.533 308.747 216.433 309.859 213.404 312.793C210.398 315.751 211.487 320.319 206.683 325.193C201.879 330.045 189.716 323.561 189.716 323.561C194.236 321.667 199.04 314.284 198.235 312.817C197.454 311.374 187.988 319.49 186.19 320.366C184.391 321.242 179.304 320.461 175.92 313.148Z" fill="url(#paint7_linear_1_61)"/>
<path d="M284.87 236.618C284.657 236.926 283.781 238.346 284.917 239.931C284.98 240.026 285.027 240.113 285.059 240.192C298.689 248.379 339.581 281.509 339.581 304.866V353.235H216.172V304.842C216.172 281.344 257.632 247.67 270.955 239.931C271.381 239.34 271.523 238.772 271.523 238.251C271.523 237.257 270.955 236.571 270.955 236.571C257.608 228.643 216.172 195.23 216.172 171.731V123.361H339.581V171.755C339.581 195.206 298.264 228.809 284.87 236.618Z" fill="white"/>
<path d="M346.657 365.707H208.127V359.743C208.127 356.146 211.037 353.236 214.611 353.236H340.433C343.864 353.236 346.657 356.028 346.657 359.483V365.707Z" fill="url(#paint8_linear_1_61)"/>
<path d="M251.503 307.848C250.864 318.662 252.923 342.019 252.757 353.235H216.172V304.842C216.172 281.344 257.632 247.67 270.955 239.931C271.381 239.34 271.523 238.772 271.523 238.251C271.523 237.257 270.955 236.571 270.955 236.571C257.608 228.643 216.172 195.23 216.172 171.731V123.361H240.641L258.105 128.142V166.383C258.105 166.383 256.378 177.411 260.708 188.225C265.039 199.063 274.339 233.779 274.197 238.298C274.055 242.818 252.592 289.271 251.503 307.848Z" fill="#D8F0FF"/>
<path d="M332.6 164.372V174.121C332.6 189.479 292.158 222.893 281.438 231.483C279.805 232.785 278.859 234.749 278.859 236.855V323.916C278.859 326.282 279.971 328.506 281.841 329.95C290.099 336.245 304.795 353.235 304.795 353.235H249.989C249.989 353.235 264.495 335.629 273.085 329.619C275.475 327.938 276.918 325.217 276.918 322.306V236.879C276.918 234.773 275.948 232.785 274.292 231.483C263.359 222.964 222.017 189.669 222.017 174.31V168.726C222.017 164.135 226.088 160.609 230.655 161.248C243.647 163.117 268.21 165.815 282.456 162.218C303.257 156.988 316.106 155.639 323.584 155.521C328.554 155.45 332.6 159.426 332.6 164.372Z" fill="url(#paint9_linear_1_61)"/>
<path d="M340.196 128.142H214.35C210.919 128.142 208.127 125.349 208.127 121.894V115.671H346.657V121.658C346.657 125.231 343.77 128.142 340.196 128.142Z" fill="url(#paint10_linear_1_61)"/>
<path d="M106.11 145.724L114.014 144.304L115.103 139.595L136.637 154.267L104.17 149.652L106.11 145.724Z" fill="#B9E2FC"/>
<path d="M83.156 139.003L109.636 140.352L136.637 154.267L83.156 139.003Z" fill="white"/>
<path d="M119.977 131.336L136.637 154.267L115.103 139.595L119.977 131.336Z" fill="white"/>
<path d="M268.849 109.731C265.962 114.748 262.341 116.688 262.341 116.688H247.22C247.22 116.688 271.05 105.897 268.849 109.731Z" fill="#233862"/>
<path d="M258.626 147.523C258.689 147.491 258.752 147.452 258.815 147.404C259.667 146.884 260.685 146.86 261.584 146.15C263.264 144.801 264.779 136.093 264.779 136.093L269.843 136.968C269.843 136.968 266.364 147.925 266.128 150.291C265.867 153.249 265.56 154.172 266.719 156.136C266.845 156.357 266.979 156.578 267.121 156.799C267.169 156.878 267.216 156.957 267.263 157.036C268.234 158.668 269.133 160.136 268.707 160.349C268.186 160.609 266.364 160.538 263.714 157.793C261.395 155.379 261.892 155.119 260.59 153.912C260.559 153.896 260.535 153.873 260.519 153.841C260.472 153.809 260.432 153.778 260.401 153.746C260.259 153.636 260.101 153.51 259.928 153.368C258.555 152.255 257.348 151.143 256.993 150.149C256.993 150.134 256.993 150.126 256.993 150.126C256.804 149.605 256.851 149.084 257.253 148.635C257.632 148.185 258.129 147.854 258.626 147.523Z" fill="#FFB27D"/>
<path d="M258.626 147.523C258.689 147.491 258.752 147.452 258.815 147.404C259.904 148.919 260.945 151.522 262.554 153.557C264.353 155.876 266.743 156.846 267.263 157.036C268.234 158.668 269.133 160.136 268.707 160.349C268.186 160.609 266.364 160.538 263.714 157.793C261.395 155.379 261.892 155.119 260.59 153.912C260.559 153.896 260.535 153.872 260.519 153.841C260.472 153.809 260.432 153.778 260.401 153.746C260.259 153.62 260.101 153.486 259.928 153.344C258.602 152.232 257.443 151.143 256.993 150.149C256.993 150.134 256.993 150.126 256.993 150.126C256.804 149.605 256.851 149.084 257.253 148.635C257.632 148.185 258.129 147.854 258.626 147.523Z" fill="#233862"/>
<path d="M298.051 143.807C298.122 142.79 298.169 141.488 297.577 140.494C296.583 138.814 294.051 134.933 294.051 134.933L298.902 134.555C298.902 134.555 301.624 138.885 303.446 139.95C305.386 141.086 306.925 142.458 309.054 142.719C309.291 142.75 309.528 142.774 309.764 142.79C311.634 143.026 313.385 143.192 313.29 143.642C313.196 144.186 312.107 145.488 308.557 145.89C305.032 146.292 305.623 145.559 303.115 146.174C300.63 146.765 298.406 147.026 298.098 145.464C297.98 144.92 298.027 144.352 298.051 143.807Z" fill="#FFB27D"/>
<path d="M298.098 145.464C297.98 144.92 298.027 144.352 298.051 143.807C299.707 143.784 302.263 144.47 304.677 144.423C307.611 144.352 309.741 142.837 309.741 142.837L309.764 142.79C311.634 143.026 313.385 143.192 313.29 143.642C313.196 144.186 312.107 145.487 308.557 145.89C305.032 146.292 305.623 145.558 303.115 146.174C300.63 146.765 298.406 147.026 298.098 145.464Z" fill="#233862"/>
<path d="M279.474 114.393L274.931 126.627L268.991 142.577C268.991 142.577 267.382 142.742 265.844 142.293C264.424 141.891 262.791 140.802 262.791 140.802C262.791 140.802 264.447 123.669 267.5 113.825C268.305 111.316 269.18 109.258 270.15 108.122C274.907 102.49 279.474 114.393 279.474 114.393Z" fill="#233862"/>
<path d="M301.719 137.252C301.719 137.252 301.269 137.844 300.015 138.317C298.855 138.743 296.063 138.72 296.063 138.72C296.063 138.72 277.865 123.125 275.712 118.581C273.534 114.038 272.683 109.707 270.505 110.133C269.18 110.393 258.957 116.688 249.799 116.688C246.25 116.688 235.246 116.428 235.246 116.428C233.589 116.404 232.382 115.86 231.885 114.606C228.573 106.016 234.631 92.527 234.631 92.527L253.065 93.9705L254.84 96.9049C263.383 95.2484 271.878 94.0178 274.836 94.9644C281.557 97.1415 301.719 137.252 301.719 137.252Z" fill="#2B478B"/>
<path d="M252.947 68.6025C246.392 72.2231 233.092 79.701 233.021 79.6537C233.021 79.6537 228.123 81.4995 225.354 79.6537C220.716 76.5774 218.255 68.3185 226.703 61.1956C230.915 57.646 233.921 56.7941 234.37 51.1147C234.631 48.0383 238.819 37.91 245.8 38.833C246.392 38.9276 246.983 38.9749 247.575 38.9513C248.379 38.9276 249.728 39.0459 251.101 39.8742C255.053 42.2169 262.791 67.2063 252.947 68.6025Z" fill="#233862"/>
<path d="M247.457 65.5262C247.48 65.5498 244.238 66.6621 242.061 65.6918C240.002 64.7926 238.44 61.4086 238.488 61.4086C239.411 61.3613 240.428 60.5567 241.233 55.2086L241.611 55.3506L248.285 57.7643C248.285 57.7643 247.811 59.8941 247.504 61.9292C247.244 63.633 247.102 65.2895 247.457 65.5262Z" fill="#FFB27D"/>
<path d="M248.285 57.7643C248.285 57.7643 247.811 59.8941 247.504 61.9292C243.67 61.2429 242.156 57.433 241.611 55.3505L248.285 57.7643Z" fill="#ED975D"/>
<path d="M249.279 59.8704C249.279 59.8704 240.168 58.6636 240.996 52.9842C241.848 47.3048 241.257 43.3292 247.125 43.8734C252.97 44.4177 253.799 46.7368 253.964 48.7009C254.13 50.6651 251.692 60.0598 249.279 59.8704Z" fill="#FFB27D"/>
<path d="M253.633 45.6009C253.633 45.6009 247.788 50.6414 243.812 51.0437C239.837 51.446 238.322 50.1681 238.322 50.1681C238.322 50.1681 240.665 48.2277 242.085 45.0803C242.511 44.1574 243.386 43.5185 244.38 43.4475C247.22 43.1872 252.615 43.0925 253.633 45.6009Z" fill="#233862"/>
<path d="M254.177 45.5062C255.905 48.3933 252.852 54.3093 252.852 54.3093C253.325 53.0315 253.136 49.7895 252.544 48.4406C251.929 47.0444 249.989 45.1513 249.989 45.1513C249.989 45.1513 252.331 42.4536 254.177 45.5062Z" fill="#233862"/>
<path d="M247.504 61.9292C247.504 61.9292 255.431 63.2781 256.378 66.7094C257.301 70.117 262.791 90.2079 262.791 90.2079C262.791 90.2079 258.744 90.9415 256.898 89.072C255.029 87.2026 250.391 71.7735 250.391 71.7735L247.504 61.9292Z" fill="url(#paint11_linear_1_61)"/>
<path d="M255.147 78.9674C254.863 97.4492 255.076 93.5919 253.041 95.343C252.568 95.769 251.195 96.0056 249.397 96.1476C243.718 96.5026 233.755 95.5797 233.376 94.5385C232.075 90.9178 232.998 89.782 231.909 84.2445C231.799 83.645 231.657 82.9982 231.483 82.3041C230.584 78.4941 229.685 77.2163 232.927 71.0872C235.837 65.5498 238.89 61.03 239.15 61.1956C246.865 65.7865 247.504 61.9292 247.504 61.9292C247.504 61.9292 255.289 69.9514 255.147 78.9674Z" fill="url(#paint12_linear_1_61)"/>
<path d="M274.931 126.627L268.991 142.577C268.991 142.577 267.382 142.742 265.844 142.293C264.424 141.891 262.791 140.802 262.791 140.802C262.791 140.802 264.447 123.669 267.5 113.825L274.931 126.627Z" fill="#2B478B"/>
<path d="M242.889 92.527C242.889 92.527 248.474 91.2965 249.397 91.7934C250.296 92.2904 252.497 94.0888 252.781 94.7041C253.041 95.343 250.769 94.2308 250.012 94.0415C249.539 93.8995 248.261 94.3491 247.646 94.5621C244.995 95.4377 243.386 94.9881 243.386 94.9881L242.889 92.527Z" fill="#FFB27D"/>
<path d="M236.737 75.2048C236.737 76.9323 228.951 87.6049 229.519 88.1965C230.111 88.7644 242.629 90.7995 243.386 92.0537C244.167 93.2843 243.599 95.8873 243.599 95.8873C243.599 95.8873 226.987 98.3011 222.301 95.0354C218.137 92.1247 225.401 70.3773 229.046 65.2895C231.649 61.6689 239.15 61.1956 239.15 61.1956C239.15 61.1956 236.737 73.4773 236.737 75.2048Z" fill="url(#paint13_linear_1_61)"/>
<path d="M251.053 93.7339L251.834 95.1537C251.834 95.1537 251.598 95.201 251.219 95.0354C250.84 94.8461 249.657 93.3316 249.657 93.3316L251.053 93.7339Z" fill="#FFB27D"/>
<path d="M249.397 91.7934L252.781 93.4262C252.781 93.4262 252.639 93.6629 252.237 93.6629C251.811 93.6392 250.746 93.2606 250.746 93.2606L249.397 91.7934Z" fill="#FFB27D"/>
<path d="M259.36 77.1926H286.242L278.149 97.3545H251.219L259.36 77.1926Z" fill="url(#paint14_linear_1_61)"/>
<path d="M278.149 97.3545H242.889V96.5499H278.457L278.149 97.3545Z" fill="#ED7D2B"/>
<path d="M269.701 88.5514C268.991 88.5514 268.589 87.9835 268.778 87.2735C268.991 86.5636 269.725 85.9957 270.434 85.9957C271.144 85.9957 271.547 86.5636 271.357 87.2735C271.144 87.9835 270.411 88.5514 269.701 88.5514Z" fill="white"/>
<path d="M446.709 110.819L452.483 129.42C452.578 129.68 452.601 129.964 452.601 130.224C452.554 131.218 451.891 132.117 450.898 132.425L418.62 142.458C417.626 142.79 416.584 142.411 415.993 141.607C415.819 141.401 415.693 141.157 415.614 140.873L409.84 122.297C409.438 121.042 410.148 119.694 411.402 119.291L443.68 109.258C444.958 108.855 446.307 109.565 446.709 110.819Z" fill="#B9E2FC"/>
<path d="M452.601 130.224C452.554 131.218 451.892 132.117 450.898 132.425L418.62 142.459C417.626 142.79 416.585 142.411 415.993 141.607L432.179 126.154L452.601 130.224Z" fill="#9AD5FA"/>
<path d="M446.709 110.819L432.582 129.23L410.124 123.267L409.84 122.297C409.438 121.042 410.148 119.694 411.402 119.291L443.68 109.258C444.958 108.855 446.307 109.565 446.709 110.819Z" fill="white"/>
<path d="M333.807 42.7139L329.761 58.2376C329.697 58.4742 329.603 58.6872 329.477 58.8765C329.003 59.5391 328.151 59.8941 327.323 59.6574L300.37 52.6292C299.541 52.4162 298.973 51.6826 298.902 50.878C298.871 50.6572 298.887 50.4363 298.95 50.2154L302.996 34.6917C303.28 33.6268 304.369 32.9879 305.434 33.2719L332.387 40.3001C333.429 40.5841 334.067 41.6727 333.807 42.7139Z" fill="#B9E2FC"/>
<path d="M329.477 58.8765C329.003 59.5391 328.151 59.8941 327.323 59.6575L300.37 52.6292C299.541 52.4162 298.973 51.6826 298.902 50.8781L316.958 47.1154L329.477 58.8765Z" fill="#9AD5FA"/>
<path d="M333.807 42.7139L315.893 49.4345L302.783 35.4963L302.996 34.6917C303.28 33.6268 304.369 32.9879 305.434 33.2719L332.387 40.3001C333.429 40.5841 334.067 41.6727 333.807 42.7139Z" fill="white"/>
<path d="M536.397 367H0.602513C0.278084 367 0 366.82 0 366.574V366.426C0 366.197 0.278084 366 0.602513 366H536.397C536.745 366 537 366.197 537 366.426V366.574C537 366.82 536.745 367 536.397 367Z" fill="#006AAF"/>
<defs>
<linearGradient id="paint0_linear_1_61" x1="505.419" y1="464.946" x2="536.391" y2="11.4811" gradientUnits="userSpaceOnUse">
<stop offset="0.131542" stop-color="white"/>
<stop offset="0.437201" stop-color="#EEF9FF"/>
<stop offset="0.710069" stop-color="#E7F7FF"/>
<stop offset="1" stop-color="#E2F5FF"/>
</linearGradient>
<linearGradient id="paint1_linear_1_61" x1="332.673" y1="132.404" x2="332.673" y2="167.608" gradientUnits="userSpaceOnUse">
<stop stop-color="#D0ECFD"/>
<stop offset="1" stop-color="#5FBDF6"/>
</linearGradient>
<linearGradient id="paint2_linear_1_61" x1="333.531" y1="277.366" x2="333.531" y2="287.568" gradientUnits="userSpaceOnUse">
<stop stop-color="#D0ECFD"/>
<stop offset="1" stop-color="#5FBDF6"/>
</linearGradient>
<linearGradient id="paint3_linear_1_61" x1="329.58" y1="290.963" x2="329.58" y2="298.791" gradientUnits="userSpaceOnUse">
<stop stop-color="#D0ECFD"/>
<stop offset="1" stop-color="#5FBDF6"/>
</linearGradient>
<linearGradient id="paint4_linear_1_61" x1="192.441" y1="76.9027" x2="192.441" y2="170.003" gradientUnits="userSpaceOnUse">
<stop stop-color="#D0ECFD"/>
<stop offset="1" stop-color="#5FBDF6"/>
</linearGradient>
<linearGradient id="paint5_linear_1_61" x1="316.991" y1="217.214" x2="316.991" y2="269.832" gradientUnits="userSpaceOnUse">
<stop stop-color="#D0ECFD"/>
<stop offset="1" stop-color="#5FBDF6"/>
</linearGradient>
<linearGradient id="paint6_linear_1_61" x1="202.191" y1="205.361" x2="202.191" y2="281.517" gradientUnits="userSpaceOnUse">
<stop stop-color="#D0ECFD"/>
<stop offset="1" stop-color="#5FBDF6"/>
</linearGradient>
<linearGradient id="paint7_linear_1_61" x1="193.423" y1="286.559" x2="193.423" y2="319.294" gradientUnits="userSpaceOnUse">
<stop stop-color="#D0ECFD"/>
<stop offset="1" stop-color="#5FBDF6"/>
</linearGradient>
<linearGradient id="paint8_linear_1_61" x1="315.476" y1="346.355" x2="312.31" y2="375.741" gradientUnits="userSpaceOnUse">
<stop stop-color="#FFDF6F"/>
<stop offset="1" stop-color="#FF8017"/>
</linearGradient>
<linearGradient id="paint9_linear_1_61" x1="304.484" y1="144.07" x2="223.928" y2="158.362" gradientUnits="userSpaceOnUse">
<stop stop-color="#60BAF1"/>
<stop offset="1" stop-color="#0977BE"/>
</linearGradient>
<linearGradient id="paint10_linear_1_61" x1="315.476" y1="108.79" x2="312.31" y2="138.176" gradientUnits="userSpaceOnUse">
<stop stop-color="#FFDF6F"/>
<stop offset="1" stop-color="#FF8017"/>
</linearGradient>
<linearGradient id="paint11_linear_1_61" x1="258.904" y1="60.2833" x2="247.742" y2="62.1877" gradientUnits="userSpaceOnUse">
<stop stop-color="#60BAF1"/>
<stop offset="1" stop-color="#0977BE"/>
</linearGradient>
<linearGradient id="paint12_linear_1_61" x1="248.919" y1="59.1623" x2="231.37" y2="63.0558" gradientUnits="userSpaceOnUse">
<stop stop-color="#60BAF1"/>
<stop offset="1" stop-color="#0977BE"/>
</linearGradient>
<linearGradient id="paint13_linear_1_61" x1="238.015" y1="59.1368" x2="221.598" y2="62.4691" gradientUnits="userSpaceOnUse">
<stop stop-color="#60BAF1"/>
<stop offset="1" stop-color="#0977BE"/>
</linearGradient>
<linearGradient id="paint14_linear_1_61" x1="278.359" y1="66.0694" x2="255.904" y2="98.6537" gradientUnits="userSpaceOnUse">
<stop stop-color="#FFDF6F"/>
<stop offset="1" stop-color="#FF8017"/>
</linearGradient>
</defs>
</svg>
