<svg width="270" height="184" viewBox="0 0 270 184" fill="none" xmlns="http://www.w3.org/2000/svg">
<path d="M55.427 183.403C55.427 183.403 30.9509 170.47 10.5205 126.727C-13.4099 75.4726 5.60864 18.939 46.1254 6.62386C89.8692 -6.6642 116.469 17.3136 116.469 17.3136C116.469 17.3136 157.686 -9.03707 208.097 3.27812C258.319 15.5458 276.733 63.7981 266.387 121.803C259.47 160.599 231.079 183.26 231.079 183.26L55.427 183.403Z" fill="url(#paint0_linear_1_12)"/>
<path d="M185.487 78.1267C184.396 78.1623 177.811 76.6792 177.799 77.5809C177.787 78.4707 181.963 80.7843 184.609 80.547C184.609 80.547 180.433 86.7402 176.897 85.6368C173.374 84.5334 172.721 82.0656 170.526 81.4249C168.331 80.7843 166.575 81.0334 167.56 81.8758C168.557 82.7063 172.413 83.0978 173.896 85.0198C175.379 86.93 176.636 88.1876 173.136 88.1639C169.648 88.1402 163.728 86.4436 163.075 83.6199C163.044 83.4933 163.016 83.3747 162.992 83.2639C163.016 83.4893 163.075 83.6199 163.075 83.6199C162.375 83.8453 161.094 85.3639 160.169 86.5503C160.026 86.752 159.825 87.0368 159.516 87.4046C159.386 87.5825 159.291 87.7249 159.219 87.8198C159.219 87.8198 159.215 87.8198 159.208 87.8198C159.208 87.8198 159.208 87.8238 159.208 87.8317C159.105 87.9899 159.002 88.156 158.899 88.33L158.199 88.1876C158.84 87.2266 159.374 86.6927 159.374 86.6927C161.889 83.7266 162.411 80.7843 162.411 80.7843C162.411 80.7843 156.74 75.825 160.774 71.5657C160.774 71.5657 163.811 69.0623 166.552 68.8369C166.552 68.8369 163.633 75.8368 164.974 76.2996C166.314 76.7623 167.667 68.2674 167.667 68.2674C167.667 68.2674 175.13 66.4284 177.74 67.2589C177.74 67.2589 172.021 73.4877 173.433 73.6064C174.845 73.725 181.085 67.5081 181.085 67.5081C181.085 67.5081 188.311 67.6979 188.56 72.0521C188.809 76.4063 186.567 78.0911 185.487 78.1267Z" fill="url(#paint1_linear_1_12)"/>
<path d="M161.474 145.421C161.474 145.421 178.44 136.914 181.513 139.881C184.585 142.847 161.474 145.421 161.474 145.421Z" fill="url(#paint2_linear_1_12)"/>
<path d="M158.709 146.442C158.709 146.442 181.441 144.448 181.797 149.182C182.153 153.928 158.709 146.442 158.709 146.442Z" fill="url(#paint3_linear_1_12)"/>
<path d="M80.3809 46.3658C83.2877 37.432 98.4266 41.015 98.4266 41.015C98.4266 41.015 108.025 57.3759 111.027 57.898C114.028 58.42 105.557 42.3082 105.557 42.3082C111.43 42.0235 125.987 49.9251 125.987 49.9251C125.987 49.9251 124.137 68.3742 127.174 68.1488C130.211 67.9233 127.981 51.7285 127.981 51.7285C133.557 53.7099 138.516 60.5675 138.516 60.5675C144.591 71.6487 130.057 78.886 130.057 78.886C130.057 78.886 129.547 85.2927 133.154 92.8385C133.154 92.8385 133.972 94.2503 134.767 96.5994L133.225 96.5283C133.122 96.1091 133.003 95.7017 132.869 95.3062C132.869 95.3062 132.869 95.3023 132.869 95.2944C132.869 95.2944 132.865 95.2904 132.857 95.2825C132.762 95.0334 132.631 94.6893 132.465 94.274C132.465 94.274 132.465 94.2701 132.465 94.2622C132.038 93.3249 131.754 92.6249 131.576 92.1147C130.294 89.1486 128.455 85.269 127.126 84.4148C127.126 84.4148 127.316 84.1775 127.494 83.7266C127.376 83.9402 127.253 84.1696 127.126 84.4148C124.208 89.9436 110.955 90.2402 103.671 88.3656C96.3859 86.5029 99.6961 84.5809 103.825 81.4012C107.954 78.2334 116.211 79.5267 118.726 78.3284C121.242 77.1301 117.73 75.6233 112.806 75.7657C107.871 75.8962 105.177 80.6894 97.2164 81.0572C89.2555 81.4131 83.9521 66.2149 83.9521 66.2149C89.3385 68.1844 99.3046 65.6454 99.7673 63.7708C100.242 61.9081 85.6962 61.3861 83.4657 60.7098C81.2233 60.0217 77.486 55.2997 80.3809 46.3658Z" fill="url(#paint4_linear_1_12)"/>
<path d="M182.082 122.132C180.741 122.464 172.199 122.345 172.424 123.46C172.638 124.564 178.416 126.343 181.631 125.347C181.631 125.347 178.084 134.115 173.421 133.664C168.758 133.225 167.311 130.342 164.428 130.116C161.545 129.891 159.433 130.674 160.88 131.445C162.316 132.228 167.204 131.706 169.541 133.687C171.867 135.669 173.753 136.891 169.423 137.781C165.092 138.659 157.321 138.113 155.779 134.779C155.708 134.637 155.64 134.498 155.577 134.364C155.672 134.637 155.779 134.779 155.779 134.779C154.972 135.242 153.774 137.46 152.943 139.169C152.825 139.465 152.635 139.869 152.362 140.403C152.255 140.652 152.16 140.853 152.101 140.996C152.101 140.996 152.097 140.996 152.089 140.996C152.089 141.004 152.089 141.008 152.089 141.008C152.002 141.229 151.923 141.462 151.852 141.708H150.938C151.472 140.355 151.994 139.548 151.994 139.548C154.331 135.218 154.225 131.445 154.225 131.445C154.225 131.445 145.896 126.782 149.775 120.459C149.775 120.459 152.884 116.579 156.218 115.582C156.218 115.582 154.438 125.015 156.218 125.24C157.997 125.454 157.44 114.574 157.44 114.574C157.44 114.574 166.208 110.362 169.648 110.694C169.648 110.694 164.202 119.901 165.982 119.687C167.762 119.462 173.86 110.137 173.86 110.137C173.86 110.137 182.853 108.476 184.301 113.803C185.736 119.13 183.411 121.799 182.082 122.132Z" fill="url(#paint5_linear_1_12)"/>
<path d="M91.13 107.574C94.3215 101.511 104.75 105.972 104.75 105.972C104.75 105.972 109.603 118.928 111.691 119.676C113.791 120.423 109.71 107.799 109.71 107.799C113.969 108.333 123.437 115.82 123.437 115.82C123.437 115.82 119.794 128.835 122.013 129.048C124.22 129.262 124.635 117.362 124.635 117.362C128.396 119.474 131.101 125.026 131.101 125.026C134.079 133.747 122.737 137.116 122.737 137.116C122.737 137.116 121.574 141.66 123.223 147.533C123.223 147.533 123.638 148.648 123.911 150.44L122.82 150.191C122.796 149.874 122.76 149.566 122.713 149.265C122.713 149.257 122.713 149.253 122.713 149.253C122.665 149.064 122.618 148.791 122.547 148.47C122.357 147.735 122.238 147.201 122.179 146.821C122.179 146.813 122.179 146.809 122.179 146.809C121.633 144.519 120.791 141.506 119.949 140.723C119.949 140.723 120.115 140.581 120.293 140.272C120.182 140.422 120.067 140.573 119.949 140.723C117.16 144.342 107.61 142.894 102.603 140.64C97.608 138.386 100.23 137.425 103.588 135.657C106.945 133.889 112.711 135.859 114.681 135.313C116.638 134.755 114.289 133.248 110.742 132.726C107.182 132.216 104.655 135.313 98.8893 134.577C93.1232 133.853 91.2131 122.274 91.2131 122.274C94.8317 124.35 102.306 123.781 102.876 122.487C103.445 121.206 93.0758 119.023 91.5453 118.252C90.0267 117.493 87.9267 113.625 91.13 107.574Z" fill="url(#paint6_linear_1_12)"/>
<path d="M88.1995 157.001C86.5148 153.335 92.3401 150.048 92.3401 150.048C92.3401 150.048 100.135 152.409 101.227 151.709C102.33 150.997 94.9622 148.375 94.9622 148.375C96.73 146.584 103.635 144.828 103.635 144.828C103.635 144.828 108.416 151.187 109.318 150.238C110.208 149.277 104.786 144.816 104.786 144.816C107.123 143.82 110.682 144.531 110.682 144.531C115.832 146.264 113.352 152.777 113.352 152.777C113.352 152.777 115.06 154.948 118.394 156.289C118.394 156.289 119.07 156.491 120.008 157.001L119.498 157.428C119.339 157.325 119.181 157.23 119.023 157.143C119.023 157.143 119.019 157.143 119.011 157.143C118.916 157.084 118.774 157.013 118.596 156.93C118.181 156.764 117.884 156.621 117.682 156.514C116.425 155.945 114.704 155.269 114.04 155.375C114.04 155.375 114.028 155.257 113.957 155.055C113.981 155.158 114.008 155.265 114.04 155.375C114.728 157.974 110.635 161.936 107.788 163.467C104.952 164.997 105.427 163.431 105.806 161.225C106.186 159.018 109.176 157.025 109.615 155.909C110.065 154.794 108.511 155.352 106.993 156.823C105.486 158.306 106.032 160.596 103.623 163.04C101.215 165.472 95.1164 162.221 95.1164 162.221C97.3825 161.272 99.7909 157.57 99.3876 156.835C98.996 156.111 94.2503 160.18 93.3486 160.619C92.4469 161.058 89.8961 160.667 88.1995 157.001Z" fill="url(#paint7_linear_1_12)"/>
<path d="M142.823 118.632C142.716 118.786 142.277 119.498 142.847 120.293C142.878 120.34 142.902 120.383 142.918 120.423C149.752 124.528 170.253 141.138 170.253 152.848V177.099H108.381V152.836C108.381 141.055 129.167 124.172 135.847 120.293C136.06 119.996 136.131 119.711 136.131 119.45C136.131 118.952 135.847 118.608 135.847 118.608C129.155 114.633 108.381 97.8808 108.381 86.0995V61.8488H170.253V86.1114C170.253 97.8689 149.538 114.716 142.823 118.632Z" fill="white"/>
<path d="M173.801 183.352H104.347V180.362C104.347 178.558 105.806 177.099 107.598 177.099H170.68C172.401 177.099 173.801 178.499 173.801 180.231V183.352Z" fill="url(#paint8_linear_1_12)"/>
<path d="M126.094 154.343C125.774 159.765 126.806 171.475 126.723 177.099H108.381V152.836C108.381 141.055 129.167 124.172 135.847 120.293C136.06 119.996 136.131 119.711 136.131 119.45C136.131 118.952 135.847 118.608 135.847 118.608C129.155 114.633 108.381 97.8808 108.381 86.0995V61.8488H120.648L129.404 64.2454V83.4182C129.404 83.4182 128.538 88.9469 130.709 94.3689C132.881 99.8028 137.543 117.208 137.472 119.474C137.401 121.74 126.64 145.03 126.094 154.343Z" fill="#D8F0FF"/>
<path d="M166.753 82.4097V87.2978C166.753 94.9977 146.477 111.75 141.103 116.057C140.284 116.709 139.809 117.694 139.809 118.75V162.399C139.809 163.585 140.367 164.701 141.304 165.424C145.445 168.58 152.813 177.099 152.813 177.099H125.335C125.335 177.099 132.608 168.272 136.914 165.258C138.113 164.416 138.836 163.052 138.836 161.592V118.762C138.836 117.706 138.35 116.709 137.52 116.057C132.038 111.786 111.311 95.0927 111.311 87.3927V84.5927C111.311 82.291 113.352 80.5233 115.642 80.8436C122.155 81.7809 134.47 83.1334 141.613 81.33C152.041 78.708 158.484 78.0317 162.233 77.9724C164.724 77.9368 166.753 79.93 166.753 82.4097Z" fill="url(#paint9_linear_1_12)"/>
<path d="M170.562 64.2454H107.467C105.747 64.2454 104.347 62.8454 104.347 61.1132V57.9929H173.801V60.9946C173.801 62.7861 172.353 64.2454 170.562 64.2454Z" fill="url(#paint10_linear_1_12)"/>
<path d="M53.1997 73.0606L57.1624 72.3487L57.7081 69.9877L68.5047 77.3436L52.2268 75.0301L53.1997 73.0606Z" fill="#B9E2FC"/>
<path d="M41.6913 69.6911L54.9675 70.3674L68.5047 77.3436L41.6913 69.6911Z" fill="white"/>
<path d="M60.1522 65.8471L68.5047 77.3436L57.7081 69.9877L60.1522 65.8471Z" fill="white"/>
<path d="M134.791 55.0149C133.343 57.5302 131.528 58.503 131.528 58.503H123.947C123.947 58.503 135.894 53.0929 134.791 55.0149Z" fill="#233862"/>
<path d="M129.665 73.9623C129.697 73.9465 129.729 73.9267 129.76 73.903C130.187 73.642 130.698 73.6301 131.148 73.2742C131.991 72.5979 132.75 68.2318 132.75 68.2318L135.289 68.6708C135.289 68.6708 133.545 74.164 133.426 75.3504C133.296 76.8335 133.142 77.2962 133.723 78.2809C133.786 78.3917 133.853 78.5024 133.925 78.6131C133.948 78.6527 133.972 78.6922 133.996 78.7318C134.482 79.5504 134.933 80.286 134.72 80.3928C134.459 80.5233 133.545 80.4877 132.216 79.1114C131.053 77.9013 131.303 77.7708 130.65 77.1657C130.634 77.1578 130.622 77.1459 130.615 77.1301C130.591 77.1143 130.571 77.0984 130.555 77.0826C130.484 77.0273 130.405 76.964 130.318 76.8928C129.63 76.3352 129.025 75.7775 128.847 75.2792C128.847 75.2713 128.847 75.2674 128.847 75.2674C128.752 75.0064 128.776 74.7453 128.977 74.5199C129.167 74.2945 129.416 74.1284 129.665 73.9623Z" fill="#FFB27D"/>
<path d="M129.665 73.9623C129.697 73.9465 129.729 73.9267 129.76 73.903C130.306 74.6623 130.828 75.9674 131.635 76.9877C132.537 78.1504 133.735 78.6368 133.996 78.7317C134.482 79.5504 134.933 80.286 134.72 80.3928C134.459 80.5233 133.545 80.4877 132.216 79.1114C131.053 77.9012 131.303 77.7707 130.65 77.1657C130.634 77.1578 130.622 77.1459 130.615 77.1301C130.591 77.1142 130.571 77.0984 130.555 77.0826C130.484 77.0193 130.405 76.9521 130.318 76.8809C129.653 76.3233 129.072 75.7775 128.847 75.2792C128.847 75.2713 128.847 75.2674 128.847 75.2674C128.752 75.0064 128.776 74.7453 128.977 74.5199C129.167 74.2945 129.416 74.1284 129.665 73.9623Z" fill="#233862"/>
<path d="M149.431 72.0996C149.467 71.5895 149.491 70.9369 149.194 70.4386C148.696 69.5962 147.426 67.6505 147.426 67.6505L149.858 67.4607C149.858 67.4607 151.223 69.6318 152.136 70.1657C153.109 70.7352 153.88 71.4234 154.948 71.5539C155.067 71.5697 155.186 71.5815 155.304 71.5895C156.241 71.7081 157.119 71.7911 157.072 72.0166C157.025 72.2895 156.479 72.942 154.699 73.1437C152.931 73.3454 153.228 72.9776 151.97 73.2861C150.725 73.5827 149.609 73.7132 149.455 72.9301C149.396 72.6572 149.419 72.3725 149.431 72.0996Z" fill="#FFB27D"/>
<path d="M149.455 72.9301C149.396 72.6572 149.419 72.3724 149.431 72.0996C150.262 72.0877 151.543 72.4318 152.753 72.408C154.225 72.3724 155.292 71.6131 155.292 71.6131L155.304 71.5894C156.241 71.708 157.119 71.7911 157.072 72.0165C157.025 72.2894 156.479 72.9419 154.699 73.1436C152.931 73.3453 153.228 72.9775 151.97 73.286C150.725 73.5826 149.609 73.7131 149.455 72.9301Z" fill="#233862"/>
<path d="M140.118 57.3522L137.84 63.4861L134.862 71.4826C134.862 71.4826 134.055 71.5657 133.284 71.3403C132.572 71.1386 131.753 70.5928 131.753 70.5928C131.753 70.5928 132.584 62.003 134.114 57.0675C134.518 55.8099 134.957 54.7777 135.443 54.2082C137.828 51.3845 140.118 57.3522 140.118 57.3522Z" fill="#233862"/>
<path d="M151.27 68.8132C151.27 68.8132 151.045 69.1098 150.416 69.3471C149.835 69.5606 148.435 69.5488 148.435 69.5488C148.435 69.5488 139.311 61.7302 138.231 59.4522C137.14 57.1743 136.713 55.0031 135.621 55.2167C134.957 55.3472 129.831 58.5031 125.24 58.5031C123.46 58.5031 117.943 58.3726 117.943 58.3726C117.113 58.3607 116.508 58.0878 116.259 57.459C114.598 53.1523 117.635 46.3896 117.635 46.3896L126.877 47.1133L127.767 48.5845C132.05 47.754 136.309 47.137 137.792 47.6116C141.162 48.7031 151.27 68.8132 151.27 68.8132Z" fill="#2B478B"/>
<path d="M126.818 34.3947C123.532 36.21 116.864 39.9591 116.828 39.9354C116.828 39.9354 114.372 40.8608 112.984 39.9354C110.659 38.393 109.425 34.2523 113.66 30.6812C115.772 28.9015 117.279 28.4744 117.504 25.627C117.635 24.0846 119.735 19.0067 123.235 19.4694C123.532 19.5168 123.828 19.5406 124.125 19.5287C124.528 19.5168 125.204 19.5762 125.893 19.9914C127.874 21.166 131.753 33.6947 126.818 34.3947Z" fill="#233862"/>
<path d="M124.065 32.8523C124.077 32.8642 122.452 33.4218 121.36 32.9354C120.328 32.4845 119.545 30.7879 119.569 30.7879C120.032 30.7642 120.542 30.3608 120.945 27.6795L121.135 27.7507L124.481 28.9608C124.481 28.9608 124.243 30.0286 124.089 31.049C123.959 31.9032 123.887 32.7337 124.065 32.8523Z" fill="#FFB27D"/>
<path d="M124.481 28.9608C124.481 28.9608 124.243 30.0286 124.089 31.049C122.167 30.7049 121.408 28.7947 121.135 27.7507L124.481 28.9608Z" fill="#ED975D"/>
<path d="M124.979 30.0168C124.979 30.0168 120.411 29.4117 120.826 26.5643C121.254 23.7168 120.957 21.7236 123.899 21.9965C126.83 22.2694 127.245 23.4321 127.328 24.4168C127.411 25.4016 126.189 30.1117 124.979 30.0168Z" fill="#FFB27D"/>
<path d="M127.162 22.8626C127.162 22.8626 124.232 25.3897 122.238 25.5914C120.245 25.7931 119.486 25.1524 119.486 25.1524C119.486 25.1524 120.66 24.1795 121.372 22.6016C121.586 22.1389 122.025 21.8185 122.523 21.7829C123.947 21.6524 126.652 21.605 127.162 22.8626Z" fill="#233862"/>
<path d="M127.435 22.8151C128.301 24.2626 126.77 27.2287 126.77 27.2287C127.008 26.588 126.913 24.9626 126.616 24.2863C126.308 23.5863 125.335 22.6372 125.335 22.6372C125.335 22.6372 126.509 21.2846 127.435 22.8151Z" fill="#233862"/>
<path d="M124.089 31.049C124.089 31.049 128.064 31.7252 128.538 33.4456C129.001 35.154 131.753 45.2269 131.753 45.2269C131.753 45.2269 129.725 45.5946 128.799 44.6574C127.862 43.7201 125.537 35.9845 125.537 35.9845L124.089 31.049Z" fill="url(#paint11_linear_1_12)"/>
<path d="M127.921 39.5913C127.779 48.8573 127.886 46.9234 126.865 47.8014C126.628 48.015 125.94 48.1336 125.038 48.2048C122.191 48.3828 117.196 47.9201 117.006 47.398C116.354 45.5828 116.816 45.0133 116.271 42.237C116.215 41.9365 116.144 41.6122 116.057 41.2642C115.606 39.354 115.155 38.7133 116.781 35.6405C118.24 32.8642 119.77 30.5981 119.901 30.6812C123.769 32.9828 124.089 31.049 124.089 31.049C124.089 31.049 127.992 35.071 127.921 39.5913Z" fill="url(#paint12_linear_1_12)"/>
<path d="M137.84 63.4861L134.862 71.4826C134.862 71.4826 134.055 71.5657 133.284 71.3403C132.572 71.1386 131.753 70.5928 131.753 70.5928C131.753 70.5928 132.584 62.003 134.114 57.0675L137.84 63.4861Z" fill="#2B478B"/>
<path d="M121.776 46.3895C121.776 46.3895 124.576 45.7726 125.038 46.0217C125.489 46.2709 126.592 47.1726 126.735 47.4811C126.865 47.8014 125.726 47.2438 125.347 47.1489C125.109 47.0777 124.469 47.3031 124.16 47.4099C122.831 47.8489 122.025 47.6234 122.025 47.6234L121.776 46.3895Z" fill="#FFB27D"/>
<path d="M118.691 37.7049C118.691 38.571 114.787 43.9218 115.072 44.2184C115.369 44.5031 121.645 45.5235 122.025 46.1523C122.416 46.7692 122.131 48.0743 122.131 48.0743C122.131 48.0743 113.803 49.2845 111.454 47.6472C109.365 46.1879 113.008 35.2845 114.835 32.7337C116.14 30.9185 119.901 30.6812 119.901 30.6812C119.901 30.6812 118.691 36.8388 118.691 37.7049Z" fill="url(#paint13_linear_1_12)"/>
<path d="M125.869 46.9946L126.26 47.7065C126.26 47.7065 126.142 47.7302 125.952 47.6471C125.762 47.5522 125.169 46.7929 125.169 46.7929L125.869 46.9946Z" fill="#FFB27D"/>
<path d="M125.038 46.0218L126.735 46.8404C126.735 46.8404 126.664 46.959 126.462 46.959C126.248 46.9472 125.715 46.7573 125.715 46.7573L125.038 46.0218Z" fill="#FFB27D"/>
<path d="M130.033 38.7015H143.511L139.453 48.8099H125.952L130.033 38.7015Z" fill="url(#paint14_linear_1_12)"/>
<path d="M139.453 48.8099H121.776V48.4065H139.608L139.453 48.8099Z" fill="#ED7D2B"/>
<path d="M135.218 44.3963C134.862 44.3963 134.66 44.1116 134.755 43.7557C134.862 43.3997 135.23 43.115 135.586 43.115C135.942 43.115 136.143 43.3997 136.048 43.7557C135.942 44.1116 135.574 44.3963 135.218 44.3963Z" fill="white"/>
<path d="M223.963 55.5607L226.858 64.8861C226.905 65.0166 226.917 65.159 226.917 65.2895C226.894 65.7878 226.561 66.2386 226.063 66.3929L209.88 71.4233C209.382 71.5894 208.86 71.3996 208.563 70.9962C208.476 70.8934 208.413 70.7708 208.373 70.6284L205.478 61.3149C205.277 60.6861 205.633 60.0098 206.262 59.8081L222.444 54.7777C223.085 54.576 223.761 54.9319 223.963 55.5607Z" fill="#B9E2FC"/>
<path d="M226.917 65.2895C226.894 65.7878 226.561 66.2386 226.063 66.3929L209.88 71.4233C209.382 71.5894 208.86 71.3996 208.563 70.9962L216.678 63.2488L226.917 65.2895Z" fill="#9AD5FA"/>
<path d="M223.963 55.5607L216.88 64.7912L205.621 61.8014L205.478 61.3149C205.277 60.6861 205.633 60.0098 206.262 59.8081L222.444 54.7777C223.085 54.576 223.761 54.9319 223.963 55.5607Z" fill="white"/>
<path d="M167.358 21.4151L165.33 29.1981C165.298 29.3168 165.251 29.4236 165.187 29.5185C164.95 29.8507 164.523 30.0287 164.108 29.91L150.594 26.3863C150.179 26.2795 149.894 25.9117 149.858 25.5083C149.843 25.3976 149.851 25.2869 149.882 25.1761L151.911 17.3931C152.053 16.8592 152.599 16.5389 153.133 16.6813L166.647 20.205C167.169 20.3473 167.489 20.8931 167.358 21.4151Z" fill="#B9E2FC"/>
<path d="M165.187 29.5185C164.95 29.8507 164.523 30.0286 164.108 29.91L150.594 26.3863C150.179 26.2795 149.894 25.9117 149.858 25.5083L158.911 23.6219L165.187 29.5185Z" fill="#9AD5FA"/>
<path d="M167.358 21.4151L158.377 24.7846L151.804 17.7965L151.911 17.3931C152.053 16.8592 152.599 16.5389 153.133 16.6813L166.646 20.205C167.169 20.3473 167.489 20.8931 167.358 21.4151Z" fill="white"/>
<path d="M268.93 184H0.302077C0.139421 184 0 183.91 0 183.786V183.712C0 183.597 0.139421 183.499 0.302077 183.499H268.93C269.104 183.499 269.232 183.597 269.232 183.712V183.786C269.232 183.91 269.104 184 268.93 184Z" fill="#006AAF"/>
<defs>
<linearGradient id="paint0_linear_1_12" x1="253.398" y1="233.106" x2="268.926" y2="5.75617" gradientUnits="userSpaceOnUse">
<stop offset="0.131542" stop-color="white"/>
<stop offset="0.437201" stop-color="#EEF9FF"/>
<stop offset="0.710069" stop-color="#E7F7FF"/>
<stop offset="1" stop-color="#E2F5FF"/>
</linearGradient>
<linearGradient id="paint1_linear_1_12" x1="166.79" y1="66.3822" x2="166.79" y2="84.0321" gradientUnits="userSpaceOnUse">
<stop stop-color="#D0ECFD"/>
<stop offset="1" stop-color="#5FBDF6"/>
</linearGradient>
<linearGradient id="paint2_linear_1_12" x1="167.22" y1="139.061" x2="167.22" y2="144.176" gradientUnits="userSpaceOnUse">
<stop stop-color="#D0ECFD"/>
<stop offset="1" stop-color="#5FBDF6"/>
</linearGradient>
<linearGradient id="paint3_linear_1_12" x1="165.239" y1="145.878" x2="165.239" y2="149.802" gradientUnits="userSpaceOnUse">
<stop stop-color="#D0ECFD"/>
<stop offset="1" stop-color="#5FBDF6"/>
</linearGradient>
<linearGradient id="paint4_linear_1_12" x1="96.4828" y1="38.5561" x2="96.4828" y2="85.2332" gradientUnits="userSpaceOnUse">
<stop stop-color="#D0ECFD"/>
<stop offset="1" stop-color="#5FBDF6"/>
</linearGradient>
<linearGradient id="paint5_linear_1_12" x1="158.927" y1="108.903" x2="158.927" y2="135.284" gradientUnits="userSpaceOnUse">
<stop stop-color="#D0ECFD"/>
<stop offset="1" stop-color="#5FBDF6"/>
</linearGradient>
<linearGradient id="paint6_linear_1_12" x1="101.371" y1="102.96" x2="101.371" y2="141.142" gradientUnits="userSpaceOnUse">
<stop stop-color="#D0ECFD"/>
<stop offset="1" stop-color="#5FBDF6"/>
</linearGradient>
<linearGradient id="paint7_linear_1_12" x1="96.9749" y1="143.67" x2="96.9749" y2="160.082" gradientUnits="userSpaceOnUse">
<stop stop-color="#D0ECFD"/>
<stop offset="1" stop-color="#5FBDF6"/>
</linearGradient>
<linearGradient id="paint8_linear_1_12" x1="158.168" y1="173.65" x2="156.58" y2="188.382" gradientUnits="userSpaceOnUse">
<stop stop-color="#FFDF6F"/>
<stop offset="1" stop-color="#FF8017"/>
</linearGradient>
<linearGradient id="paint9_linear_1_12" x1="152.657" y1="72.2311" x2="112.269" y2="79.3967" gradientUnits="userSpaceOnUse">
<stop stop-color="#60BAF1"/>
<stop offset="1" stop-color="#0977BE"/>
</linearGradient>
<linearGradient id="paint10_linear_1_12" x1="158.168" y1="54.5434" x2="156.58" y2="69.2762" gradientUnits="userSpaceOnUse">
<stop stop-color="#FFDF6F"/>
<stop offset="1" stop-color="#FF8017"/>
</linearGradient>
<linearGradient id="paint11_linear_1_12" x1="129.805" y1="30.2238" x2="124.209" y2="31.1786" gradientUnits="userSpaceOnUse">
<stop stop-color="#60BAF1"/>
<stop offset="1" stop-color="#0977BE"/>
</linearGradient>
<linearGradient id="paint12_linear_1_12" x1="124.799" y1="29.6617" x2="116" y2="31.6138" gradientUnits="userSpaceOnUse">
<stop stop-color="#60BAF1"/>
<stop offset="1" stop-color="#0977BE"/>
</linearGradient>
<linearGradient id="paint13_linear_1_12" x1="119.332" y1="29.6489" x2="111.101" y2="31.3196" gradientUnits="userSpaceOnUse">
<stop stop-color="#60BAF1"/>
<stop offset="1" stop-color="#0977BE"/>
</linearGradient>
<linearGradient id="paint14_linear_1_12" x1="139.559" y1="33.1247" x2="128.301" y2="49.4613" gradientUnits="userSpaceOnUse">
<stop stop-color="#FFDF6F"/>
<stop offset="1" stop-color="#FF8017"/>
</linearGradient>
</defs>
</svg>
