<svg width="10" height="11" viewBox="0 0 10 11" fill="none" xmlns="http://www.w3.org/2000/svg">
<g clip-path="url(#clip0_1624_159)">
<path fill-rule="evenodd" clip-rule="evenodd" d="M0.416504 1.68234C0.416504 1.47923 0.49719 1.28443 0.640811 1.14081C0.784433 0.997191 0.979226 0.916505 1.18234 0.916505H8.8165C8.91716 0.916341 9.01686 0.936031 9.1099 0.974449C9.20293 1.01287 9.28748 1.06926 9.35869 1.1404C9.4299 1.21153 9.48639 1.29601 9.52491 1.38901C9.56343 1.482 9.58323 1.58168 9.58317 1.68234V9.31651C9.58328 9.41718 9.56354 9.51689 9.52507 9.60993C9.48661 9.70297 9.43018 9.78751 9.35901 9.85872C9.28784 9.92992 9.20333 9.9864 9.11031 10.0249C9.0173 10.0634 8.9176 10.0832 8.81692 10.0832H1.18234C1.08173 10.0832 0.982112 10.0633 0.889169 10.0248C0.796227 9.98632 0.711784 9.92988 0.640664 9.85872C0.569544 9.78756 0.513142 9.70308 0.47468 9.61012C0.436218 9.51716 0.416449 9.41753 0.416504 9.31692V1.68234ZM4.04484 4.4115H5.28609V5.03484C5.46525 4.67651 5.92359 4.35401 6.61234 4.35401C7.93275 4.35401 8.24567 5.06776 8.24567 6.37734V8.80317H6.90942V6.67567C6.90942 5.92984 6.73025 5.50901 6.27525 5.50901C5.644 5.50901 5.3815 5.96276 5.3815 6.67567V8.80317H4.04484V4.4115ZM1.75317 8.74609H3.08984V4.35401H1.75317V8.74567V8.74609ZM3.28109 2.9215C3.28361 3.03595 3.26324 3.14975 3.22119 3.25622C3.17913 3.36269 3.11623 3.45969 3.03618 3.54152C2.95613 3.62335 2.86055 3.68837 2.75503 3.73276C2.64951 3.77715 2.53619 3.80001 2.42171 3.80001C2.30724 3.80001 2.19392 3.77715 2.0884 3.73276C1.98288 3.68837 1.88729 3.62335 1.80724 3.54152C1.72719 3.45969 1.66429 3.36269 1.62224 3.25622C1.58018 3.14975 1.55982 3.03595 1.56234 2.9215C1.56728 2.69686 1.66 2.48308 1.82062 2.32596C1.98125 2.16883 2.19701 2.08085 2.42171 2.08085C2.64641 2.08085 2.86218 2.16883 3.0228 2.32596C3.18343 2.48308 3.27614 2.69686 3.28109 2.9215Z" fill="white"/>
</g>
<defs>
<clipPath id="clip0_1624_159">
<rect width="10" height="10" fill="white" transform="translate(0 0.5)"/>
</clipPath>
</defs>
</svg>
