<svg width="13" height="13" viewBox="0 0 13 13" fill="none" xmlns="http://www.w3.org/2000/svg">
<path fill-rule="evenodd" clip-rule="evenodd" d="M0.546662 2.93548H2.36923C2.67112 2.93548 2.91589 2.6888 2.91589 2.38515V0.550336C2.91589 0.246415 2.67112 0 2.36923 0H0.546662C0.245037 0 0 0.246415 0 0.550336V2.38515C0 2.6888 0.245037 2.93548 0.546662 2.93548ZM7.36789 2.93548H5.54533C5.2437 2.93548 4.99866 2.6888 4.99866 2.38515V0.550336C4.99866 0.246415 5.2437 0 5.54533 0H7.36789C7.66978 0 7.91455 0.246415 7.91455 0.550336V2.38515C7.91455 2.6888 7.66978 2.93548 7.36789 2.93548ZM12.3666 2.93548H10.544C10.2424 2.93548 9.99733 2.6888 9.99733 2.38515V0.550336C9.99733 0.246415 10.2424 0 10.544 0H12.3666C12.6684 0 12.9132 0.246415 12.9132 0.550336V2.38515C12.9132 2.6888 12.6684 2.93548 12.3666 2.93548ZM12.3666 8.10721H10.544C10.2424 8.10721 9.99733 7.86053 9.99733 7.55688V5.72206C9.99733 5.41814 10.2424 5.17173 10.544 5.17173H12.3666C12.6684 5.17173 12.9132 5.41814 12.9132 5.72206V7.55688C12.9132 7.86053 12.6684 8.10721 12.3666 8.10721ZM10.544 12.8605H12.3666C12.6684 12.8605 12.9132 12.6141 12.9132 12.3102V10.4754C12.9132 10.1717 12.6684 9.92505 12.3666 9.92505H10.544C10.2424 9.92505 9.99733 10.1717 9.99733 10.4754V12.3102C9.99733 12.6141 10.2424 12.8605 10.544 12.8605ZM5.54533 8.10721H7.36789C7.66978 8.10721 7.91455 7.86053 7.91455 7.55688V5.72206C7.91455 5.41814 7.66978 5.17173 7.36789 5.17173H5.54533C5.2437 5.17173 4.99866 5.41814 4.99866 5.72206V7.55688C4.99866 7.86053 5.2437 8.10721 5.54533 8.10721ZM7.36789 12.8605H5.54533C5.2437 12.8605 4.99866 12.6141 4.99866 12.3102V10.4754C4.99866 10.1717 5.2437 9.92505 5.54533 9.92505H7.36789C7.66978 9.92505 7.91455 10.1717 7.91455 10.4754V12.3102C7.91455 12.6141 7.66978 12.8605 7.36789 12.8605ZM2.36923 8.10721H0.546662C0.245037 8.10721 0 7.86053 0 7.55688V5.72206C0 5.41814 0.245037 5.17173 0.546662 5.17173H2.36923C2.67112 5.17173 2.91589 5.41814 2.91589 5.72206V7.55688C2.91589 7.86053 2.67112 8.10721 2.36923 8.10721ZM0.546662 12.8605H2.36923C2.67112 12.8605 2.91589 12.6141 2.91589 12.3102V10.4754C2.91589 10.1717 2.67112 9.92505 2.36923 9.92505H0.546662C0.245037 9.92505 0 10.1717 0 10.4754V12.3102C0 12.6141 0.245037 12.8605 0.546662 12.8605Z" fill="#000000"/>
</svg>
