<svg width="15" height="13" viewBox="0 0 15 13" fill="none" xmlns="http://www.w3.org/2000/svg">
<path fill-rule="evenodd" clip-rule="evenodd" d="M2.91589 2.38515C2.91589 2.6888 2.67112 2.93548 2.36923 2.93548H0.546662C0.245037 2.93548 0 2.6888 0 2.38515V0.550336C0 0.246415 0.245037 0 0.546662 0H2.36923C2.67112 0 2.91589 0.246415 2.91589 0.550336V2.38515ZM14.996 1.50285C14.996 1.85964 14.7088 2.14967 14.3535 2.14967H5.1372C4.78279 2.14967 4.4947 1.86059 4.4947 1.50285C4.4947 1.14605 4.78185 0.856025 5.1372 0.856025H14.3535C14.7088 0.856025 14.996 1.14511 14.996 1.50285ZM0.546662 13H2.36923C2.67112 13 2.91589 12.7533 2.91589 12.4497V10.6149C2.91589 10.3109 2.67112 10.0645 2.36923 10.0645H0.546662C0.245037 10.0645 0 10.3109 0 10.6149V12.4497C0 12.7533 0.245037 13 0.546662 13ZM5.1372 12.2142H14.3535C14.7088 12.2142 14.996 11.9242 14.996 11.5674C14.996 11.2096 14.7088 10.9205 14.3535 10.9205H5.1372C4.78185 10.9205 4.4947 11.2106 4.4947 11.5674C4.4947 11.9251 4.78279 12.2142 5.1372 12.2142ZM2.36923 7.93548H0.546662C0.245037 7.93548 0 7.6888 0 7.38515V5.55034C0 5.24642 0.245037 5 0.546662 5H2.36923C2.67112 5 2.91589 5.24642 2.91589 5.55034V7.38515C2.91589 7.6888 2.67112 7.93548 2.36923 7.93548ZM5.13713 7.14972H14.3534C14.7088 7.14972 14.9959 6.85969 14.9959 6.5029C14.9959 6.14516 14.7088 5.85608 14.3534 5.85608H5.13713C4.78178 5.85608 4.49463 6.14611 4.49463 6.5029C4.49463 6.86064 4.78272 7.14972 5.13713 7.14972Z" fill="black"/>
</svg>
