<svg width="18" height="19" viewBox="0 0 18 19" fill="none" xmlns="http://www.w3.org/2000/svg">
<path fill-rule="evenodd" clip-rule="evenodd" d="M15.6926 2.75C16.3765 2.74919 17.0254 3.04519 17.4633 3.55775C17.9019 4.06895 18.085 4.74383 17.963 5.39975L17.3595 8.66525C17.0295 10.451 15.4361 11.7501 13.5759 11.75H4.41099C4.73602 12.6468 5.60407 13.2473 6.57919 13.25H14.6085C15.0331 13.25 15.3773 13.5858 15.3773 14C15.3773 14.4142 15.0331 14.75 14.6085 14.75H6.57919C4.62939 14.75 2.98834 13.3262 2.761 11.4373L1.70304 2.66225C1.65743 2.28463 1.32935 2.00005 0.939555 2H0.768866C0.344233 2 0 1.66421 0 1.25C0 0.835786 0.344233 0.5 0.768866 0.5H0.939555C2.10865 0.500531 3.09245 1.35418 3.22924 2.48675L3.26153 2.75H15.6926ZM15.8494 8.399L16.4537 5.1335C16.4944 4.914 16.4329 4.68822 16.2858 4.51746C16.1386 4.34669 15.9212 4.24867 15.6926 4.25H3.44298L4.16649 10.25H13.5759C14.6933 10.2517 15.6513 9.47174 15.8494 8.399ZM6.9198 17C6.9198 17.8284 6.23133 18.5 5.38206 18.5C4.5328 18.5 3.84433 17.8284 3.84433 17C3.84433 16.1716 4.5328 15.5 5.38206 15.5C6.23133 15.5 6.9198 16.1716 6.9198 17ZM13.0707 18.5C13.92 18.5 14.6085 17.8284 14.6085 17C14.6085 16.1716 13.92 15.5 13.0707 15.5C12.2215 15.5 11.533 16.1716 11.533 17C11.533 17.8284 12.2215 18.5 13.0707 18.5Z" fill="white"/>
</svg>
