<svg width="68" height="68" viewBox="0 0 68 68" fill="none" xmlns="http://www.w3.org/2000/svg">
<path d="M29.6129 50.2055H23.0323V46.9312H19.7419V40.3827H23.0323V37.1084H29.6129V40.3827H32.9032V46.9312H29.6129V50.2055Z" fill="#4BA3DD"/>
<path d="M25.2258 56.7542H27.4194V58.937H25.2258V56.7542Z" fill="black"/>
<path d="M25.2258 61.1199H27.4194V63.3027H25.2258V61.1199Z" fill="black"/>
<path fill-rule="evenodd" clip-rule="evenodd" d="M50.4516 9.82286C50.4516 11.6281 48.9754 13.0971 47.1613 13.0971C45.3472 13.0971 43.871 11.6281 43.871 9.82286C43.871 8.01764 45.3472 6.54858 47.1613 6.54858C48.9754 6.54858 50.4516 8.01764 50.4516 9.82286ZM48.2581 9.82286C48.2581 9.2204 47.7667 8.73144 47.1613 8.73144C46.5559 8.73144 46.0645 9.2204 46.0645 9.82286C46.0645 10.4253 46.5559 10.9143 47.1613 10.9143C47.7667 10.9143 48.2581 10.4253 48.2581 9.82286Z" fill="black"/>
<path fill-rule="evenodd" clip-rule="evenodd" d="M53.7419 19.6456C53.7419 17.8404 55.2182 16.3713 57.0323 16.3713C58.8463 16.3713 60.3226 17.8404 60.3226 19.6456C60.3226 21.4508 58.8463 22.9199 57.0323 22.9199C55.2182 22.9199 53.7419 21.4508 53.7419 19.6456ZM55.9355 19.6456C55.9355 20.2481 56.4268 20.737 57.0323 20.737C57.6377 20.737 58.129 20.2481 58.129 19.6456C58.129 19.0432 57.6377 18.5542 57.0323 18.5542C56.4268 18.5542 55.9355 19.0432 55.9355 19.6456Z" fill="black"/>
<path fill-rule="evenodd" clip-rule="evenodd" d="M63.6129 48.6622V46.9312C63.6129 45.126 62.1366 43.6569 60.3226 43.6569H59.2258V40.3826C59.2258 38.5774 57.7495 37.1083 55.9355 37.1083C54.1214 37.1083 52.6452 38.5774 52.6452 40.3826V43.6569H51.5484C51.1623 43.6569 50.796 43.7355 50.4516 43.8577V41.2721C51.725 40.8203 52.6452 39.6197 52.6452 38.1987V37.5591L66.9032 23.3706C67.6106 22.6666 68 21.7312 68 20.7359C68 19.7405 67.6106 18.804 66.9032 18.1012L49.8089 1.09127C48.3952 -0.315579 45.9274 -0.315579 44.5137 1.09127L26.9653 18.5541H14.2581C10.0256 18.5541 6.58065 21.9823 6.58065 26.1941V32.7426H3.29032C1.47626 32.7426 0 34.2117 0 36.0169V38.1998C0 39.6208 0.920194 40.8214 2.19355 41.2732V62.2112C2.19355 65.2202 4.65361 67.6683 7.67742 67.6683H49.3548H62.5161C65.5399 67.6683 68 65.2202 68 62.2112V55.2882C68 53.8301 67.4286 52.4593 66.3932 51.429L63.6129 48.6622ZM51.5484 45.8399H54.8387V40.3827C54.8387 39.7803 55.3301 39.2913 55.9355 39.2913C56.5409 39.2913 57.0323 39.7803 57.0323 40.3827V45.8399H60.3226C60.928 45.8399 61.4194 46.3288 61.4194 46.9313V48.0227H50.4516V46.9313C50.4516 46.3288 50.943 45.8399 51.5484 45.8399ZM31.8065 65.4855H44.9963C44.2998 64.5709 43.871 63.4446 43.871 62.2113V55.2883C43.871 53.8302 44.4424 52.4594 45.4777 51.4291L48.2581 48.6623V46.9313V41.4742H37.2903V51.297C37.2903 53.1022 35.8141 54.5713 34 54.5713H31.8065V65.4855ZM39.4839 32.7427H13.1613V27.2856C13.1613 26.6831 13.6526 26.1942 14.2581 26.1942H38.3871C38.9925 26.1942 39.4839 26.6831 39.4839 27.2856V32.7427ZM35.0968 34.9256H17.5484V51.297C17.5484 51.8994 18.0397 52.3884 18.6452 52.3884H34C34.6054 52.3884 35.0968 51.8994 35.0968 51.297V34.9256ZM29.6129 54.5713V65.4855H23.0323V54.5713H29.6129ZM49.3548 39.2913C49.9603 39.2913 50.4516 38.8023 50.4516 38.1999V36.017C50.4516 35.4145 49.9603 34.9256 49.3548 34.9256H37.2903V39.2913H49.3548ZM45.662 23.7723L47.7097 21.7346L56.5782 30.5599L52.3819 34.7357C51.8796 33.5657 50.7126 32.7427 49.3548 32.7427H46.0645V26.1942C46.0645 25.3472 45.9197 24.5341 45.662 23.7723ZM65.3524 21.8285C65.6452 21.536 65.8065 21.1496 65.8065 20.737C65.8065 20.3245 65.6452 19.9381 65.3524 19.6456L57.5807 11.9118L49.2605 20.1913L58.129 29.0166L65.3524 21.8285ZM46.0645 2.63463C46.6513 2.0529 47.6713 2.0529 48.2581 2.63463L56.0298 10.3685L47.7097 18.648L38.8412 9.82277L46.0645 2.63463ZM46.1588 20.1913L37.2903 11.366L30.067 18.5542H38.3871C40.9469 18.5542 43.2118 19.8126 44.608 21.7346L46.1588 20.1913ZM8.77419 26.1942C8.77419 23.1851 11.2343 20.737 14.2581 20.737H38.3871C41.4109 20.737 43.871 23.1851 43.871 26.1942V32.7427H41.6774V27.2856C41.6774 25.4804 40.2012 24.0113 38.3871 24.0113H14.2581C12.444 24.0113 10.9677 25.4804 10.9677 27.2856V32.7427H8.77419V26.1942ZM3.29032 34.9256C2.6849 34.9256 2.19355 35.4145 2.19355 36.017V38.1999C2.19355 38.8023 2.6849 39.2913 3.29032 39.2913H15.3548V34.9256H3.29032ZM4.3871 62.2113V41.4742H15.3548V51.297C15.3548 53.1022 16.8311 54.5713 18.6452 54.5713H20.8387V65.4855H7.67742C5.86335 65.4855 4.3871 64.0165 4.3871 62.2113ZM62.5161 65.4855C64.3302 65.4855 65.8064 64.0165 65.8064 62.2113V55.2883C65.8064 54.413 65.4643 53.5912 64.8424 52.9723L62.0621 50.2056H49.8089L47.0286 52.9723C46.4067 53.5901 46.0645 54.413 46.0645 55.2883V62.2113C46.0645 64.0165 47.5408 65.4855 49.3548 65.4855H62.5161Z" fill="black"/>
<path d="M61.4193 63.3027H50.4516C49.2419 63.3027 48.2581 62.3237 48.2581 61.1198V54.5713C48.2581 53.3674 49.2419 52.3884 50.4516 52.3884H61.4193C62.6291 52.3884 63.6129 53.3674 63.6129 54.5713V61.1198C63.6129 62.3237 62.6291 63.3027 61.4193 63.3027Z" fill="#4BA3DD"/>
</svg>
