<svg width="66" height="66" viewBox="0 0 66 66" fill="none" xmlns="http://www.w3.org/2000/svg">
<path d="M28.7419 27.3813H24.189C24.371 27.692 24.4839 28.049 24.4839 28.4345V32.647H27.6774C28.265 32.647 28.7419 33.1188 28.7419 33.7001V58.9753C28.7419 59.5566 28.265 60.0284 27.6774 60.0284H6.3871C5.79948 60.0284 5.32258 59.5566 5.32258 58.9753V33.7001C5.32258 33.1188 5.79948 32.647 6.3871 32.647H9.58064V28.4345C9.58064 28.049 9.69348 27.692 9.87552 27.3813H5.32258C2.38771 27.3813 0 29.7435 0 32.647V60.0284C0 62.9319 2.38771 65.2941 5.32258 65.2941H28.7419C31.6768 65.2941 34.0645 62.9319 34.0645 60.0284V32.647C34.0645 29.7435 31.6768 27.3813 28.7419 27.3813Z" fill="#4BA3DD"/>
<path d="M17.0323 56.869C13.5098 56.869 10.6452 54.035 10.6452 50.5502C10.6452 47.0654 13.5098 44.2314 17.0323 44.2314C20.5548 44.2314 23.4194 47.0654 23.4194 50.5502C23.4194 54.035 20.5548 56.869 17.0323 56.869Z" fill="#4BA3DD"/>
<path d="M43.6452 34.7532H50.0323V38.9657H43.6452V34.7532Z" fill="#4BA3DD"/>
<path fill-rule="evenodd" clip-rule="evenodd" d="M66 15.797V14.5332C66 13.8339 65.8627 13.1526 65.5902 12.508L60.3229 0H18.4513L13.183 12.508C12.9115 13.1526 12.7742 13.8339 12.7742 14.5332V15.797C12.7742 17.5104 13.6183 19.0206 14.9032 19.9821V25.2751H11.7097C9.94896 25.2751 8.51612 26.6927 8.51612 28.4345V31.5939H6.38709C5.21293 31.5939 4.25806 32.5386 4.25806 33.7002V58.9753C4.25806 60.1369 5.21293 61.0816 6.38709 61.0816H27.6774C28.8516 61.0816 29.8064 60.1369 29.8064 58.9753V33.7002C29.8064 32.5386 28.8516 31.5939 27.6774 31.5939H25.5484V28.4345C25.5484 27.0634 24.6553 25.9049 23.4193 25.4689V19.9821C24.3114 20.6508 25.41 21.0626 26.6129 21.0626C28.3598 21.0626 29.9001 20.2138 30.871 18.9237C31.8418 20.2138 33.3822 21.0626 35.129 21.0626C36.8759 21.0626 38.4163 20.2138 39.3871 18.9237C40.3579 20.2138 41.8983 21.0626 43.6452 21.0626C45.392 21.0626 46.9324 20.2138 47.9032 18.9237C48.8741 20.2138 50.4144 21.0626 52.1613 21.0626C53.3642 21.0626 54.4628 20.6508 55.3548 19.9821V33.894C55.0206 33.776 54.665 33.7002 54.2903 33.7002H39.3871C37.6264 33.7002 36.1935 35.1177 36.1935 36.8596V47.3909C36.1935 47.7616 36.2702 48.1133 36.3894 48.444H34.0645V50.5503H39.3871H54.2903H62.8064C63.393 50.5503 63.871 51.0221 63.871 51.6034V54.7628H34.0645V56.8691H66V51.6034C66 50.2322 65.1069 49.0738 63.871 48.6378V19.9821C65.1558 19.0206 66 17.5104 66 15.797ZM60.6774 18.9564C58.9167 18.9564 57.4839 17.5388 57.4839 15.797V14.7438H63.871V15.797C63.871 17.5388 62.4381 18.9564 60.6774 18.9564ZM58.9039 2.10626H19.8713L15.4355 12.6376H63.3387L58.9039 2.10626ZM14.9032 15.797V14.7438H21.2903V15.797C21.2903 17.5388 19.8575 18.9564 18.0968 18.9564C16.3361 18.9564 14.9032 17.5388 14.9032 15.797ZM18.0968 21.0626C17.7327 21.0626 17.3761 21.0258 17.0322 20.9563V25.2752H21.2903V19.9821C20.3982 20.6509 19.2997 21.0626 18.0968 21.0626ZM10.6452 28.4345C10.6452 27.8532 11.1231 27.3814 11.7097 27.3814H22.3548C22.9414 27.3814 23.4193 27.8532 23.4193 28.4345V32.6471C23.4193 33.2284 22.9414 33.7002 22.3548 33.7002H11.7097C11.1231 33.7002 10.6452 33.2284 10.6452 32.6471V28.4345ZM6.38709 33.7002V58.9753H27.6774V33.7002H25.3525C24.9118 34.9229 23.7408 35.8065 22.3548 35.8065H11.7097C10.3237 35.8065 9.1527 34.9229 8.71199 33.7002H6.38709ZM26.6129 18.9564C24.8522 18.9564 23.4193 17.5388 23.4193 15.797V14.7438H29.8064V15.797C29.8064 17.5388 28.3736 18.9564 26.6129 18.9564ZM31.9355 15.797C31.9355 17.5388 33.3683 18.9564 35.129 18.9564C36.8897 18.9564 38.3226 17.5388 38.3226 15.797V14.7438H31.9355V15.797ZM43.6452 18.9564C41.8844 18.9564 40.4516 17.5388 40.4516 15.797V14.7438H46.8387V15.797C46.8387 17.5388 45.4059 18.9564 43.6452 18.9564ZM48.9677 15.797C48.9677 17.5388 50.4006 18.9564 52.1613 18.9564C53.922 18.9564 55.3548 17.5388 55.3548 15.797V14.7438H48.9677V15.797ZM39.3871 48.444C38.8005 48.444 38.3226 47.9722 38.3226 47.3909V36.8596C38.3226 36.2783 38.8005 35.8065 39.3871 35.8065H54.2903C54.8769 35.8065 55.3548 36.2783 55.3548 36.8596V47.3909C55.3548 47.9722 54.8769 48.444 54.2903 48.444H39.3871ZM57.4839 48.4441H61.7419V20.9563C61.3981 21.0258 61.0415 21.0626 60.6774 21.0626C59.4745 21.0626 58.3759 20.6509 57.4839 19.9821V36.8596V47.3909V48.4441Z" fill="black"/>
<path d="M17.0323 50.1142L15.6559 48.7525L14.1506 50.2416L17.0323 53.0924L25.2365 44.9759L23.7313 43.4868L17.0323 50.1142Z" fill="black"/>
<path d="M23.4193 37.9126H25.5484V40.0189H23.4193V37.9126Z" fill="black"/>
<path d="M8.51611 37.9126H21.2903V40.0189H8.51611V37.9126Z" fill="black"/>
<path d="M21.3563 10.9019L23.0925 6.31866H31.9355V4.2124H21.6171L19.3614 10.1605L21.3563 10.9019Z" fill="black"/>
<path d="M34.0645 4.2124H36.1936V6.31866H34.0645V4.2124Z" fill="black"/>
</svg>
