<svg width="17" height="18" viewBox="0 0 17 18" fill="none" xmlns="http://www.w3.org/2000/svg">
<g opacity="0.30412">
<path fill-rule="evenodd" clip-rule="evenodd" d="M5.54929 14.4485L2.45717 16.6184L2.988 12.8933C1.70163 11.6452 0.984314 9.916 0.984314 8.00519C0.984314 4.19964 3.82951 1.11462 8.34861 1.11462C12.8677 1.11462 15.7129 4.19964 15.7129 8.00519C15.7129 11.8107 12.8677 14.8958 8.34861 14.8958C7.32511 14.8958 6.38746 14.7375 5.54929 14.4485Z" stroke="black" stroke-width="1.47286" stroke-linecap="round" stroke-linejoin="round"/>
<path fill-rule="evenodd" clip-rule="evenodd" d="M7.70264 11.1921C7.70264 11.6189 8.0506 11.9672 8.47783 11.9672C8.90466 11.9672 9.25301 11.6189 9.25301 11.1921C9.25301 10.7652 8.90466 10.4169 8.47783 10.4169C8.0506 10.4169 7.70264 10.7652 7.70264 11.1921Z" fill="black" stroke="black" stroke-width="0.5"/>
<path fill-rule="evenodd" clip-rule="evenodd" d="M5.68336 7.14592C5.83709 7.42222 6.20152 7.52964 6.49632 7.38557C6.79172 7.24178 6.90657 6.9012 6.75284 6.62519C6.24282 5.70833 6.94515 4.5538 8.11923 4.5679C9.54591 4.59073 10.1849 6.383 8.91923 7.15636C8.21297 7.58772 7.79157 8.28889 7.79157 9.03208C7.79157 9.84659 8.9973 9.84321 8.9973 9.03208C8.9973 8.6712 9.21463 8.32273 9.57876 8.10028C11.8386 6.71992 10.7447 3.48131 8.13973 3.44043C6.04447 3.41421 4.75404 5.47742 5.68336 7.14592Z" fill="black" stroke="black" stroke-width="0.5"/>
</g>
</svg>
