<svg width="17" height="16" viewBox="0 0 17 16" fill="none" xmlns="http://www.w3.org/2000/svg">
<g opacity="0.30412">
<path fill-rule="evenodd" clip-rule="evenodd" d="M1.5199 7.74304H3.39445C3.69024 7.74304 3.93003 7.98283 3.93003 8.27863V14.5718C3.93003 14.8675 3.69024 15.1073 3.39445 15.1073H1.5199C1.2241 15.1073 0.984314 14.8675 0.984314 14.5718V8.27863C0.984314 7.98283 1.2241 7.74304 1.5199 7.74304Z" stroke="black" stroke-width="1.47286" stroke-linecap="round" stroke-linejoin="round"/>
<path fill-rule="evenodd" clip-rule="evenodd" d="M13.3028 0.378784H15.1773C15.4731 0.378784 15.7129 0.618574 15.7129 0.914369V14.5718C15.7129 14.8676 15.4731 15.1074 15.1773 15.1074H13.3028C13.007 15.1074 12.7672 14.8676 12.7672 14.5718V0.914369C12.7672 0.618574 13.007 0.378784 13.3028 0.378784Z" stroke="black" stroke-width="1.47286" stroke-linecap="round" stroke-linejoin="round"/>
<path fill-rule="evenodd" clip-rule="evenodd" d="M7.41132 4.06091H9.28587C9.58166 4.06091 9.82145 4.31783 9.82145 4.63475V14.5335C9.82145 14.8504 9.58166 15.1074 9.28587 15.1074H7.41132C7.11552 15.1074 6.87573 14.8504 6.87573 14.5335V4.63475C6.87573 4.31783 7.11552 4.06091 7.41132 4.06091Z" stroke="black" stroke-width="1.47286" stroke-linecap="round" stroke-linejoin="round"/>
</g>
</svg>
