<svg width="139" height="25" viewBox="0 0 139 25" fill="none" xmlns="http://www.w3.org/2000/svg">
<path fill-rule="evenodd" clip-rule="evenodd" d="M37.7221 20.2941H43.5057L44.7934 24.7902H47.6853L43.0088 9.63379C42.873 9.12624 42.534 8.87246 41.9919 8.87246H39.2359C38.6937 8.87246 38.3547 9.12624 38.2189 9.63379L33.5425 24.7902H36.4343L37.7221 20.2941ZM41.2689 12.4262L42.8275 17.9171H38.4011L39.9588 12.4262L40.3199 11.0642H40.9302C40.9451 11.1415 41.058 11.5955 41.2689 12.4262Z" fill="white"/>
<path fill-rule="evenodd" clip-rule="evenodd" d="M57.6253 24.7902H60.6297L59.2294 19.8069C59.0787 19.1143 58.8073 18.576 58.4153 18.192C58.068 17.8324 57.631 17.5767 57.1516 17.4527V17.3368C58.1906 17.2014 58.9359 16.8067 59.3876 16.1525C59.8392 15.4983 60.065 14.5559 60.065 13.3254C60.065 11.5569 59.6545 10.3379 58.8335 9.66847C58.0126 8.99906 56.6158 8.66436 54.6432 8.66436C52.2035 8.66436 50.3132 8.73373 48.9722 8.87246V24.7902H51.7746V18.3984L54.5761 18.4212C55.4948 18.4212 56.0971 18.8983 56.3831 19.8525L57.6253 24.7902ZM54.5753 16.0484H51.7737V11.0414H54.5761C55.5875 11.0414 56.2777 11.2106 56.6464 11.549C57.0152 11.8873 57.1996 12.5409 57.1996 13.5098C57.2018 14.4787 57.0172 15.1402 56.6456 15.4943C56.2741 15.8485 55.584 16.0332 54.5753 16.0484Z" fill="white"/>
<path d="M66.8201 17.6176H65.2839C65.3916 18.1334 65.4447 18.6595 65.4421 19.1868V24.7902H62.6182V8.87246H65.4421V13.5563C65.4469 14.1748 65.394 14.7923 65.2839 15.4005H66.8201L71.0899 8.87077H74.1623L69.9604 15.2854C69.6739 15.7356 69.3237 16.1398 68.9211 16.4849V16.5543C69.3943 16.9406 69.8058 17.3998 70.1409 17.9154L74.4563 24.7902H71.2928L66.8201 17.6176Z" fill="white"/>
<path fill-rule="evenodd" clip-rule="evenodd" d="M78.4325 20.2941H84.2162L85.5039 24.7902H88.3957L83.7234 9.6304C83.5882 9.12285 83.2492 8.86907 82.7065 8.86907H79.9463C79.4042 8.86907 79.0652 9.12285 78.9294 9.6304L74.2529 24.7902H77.1448L78.4325 20.2941ZM81.9794 12.4262L83.5379 17.9171H79.1099L80.6693 12.4262L81.0303 11.0642H81.6407C81.655 11.1415 81.7679 11.5955 81.9794 12.4262Z" fill="white"/>
<path fill-rule="evenodd" clip-rule="evenodd" d="M89.6826 8.87246V24.7902C91.7458 24.9306 93.6888 25.0006 95.5118 25C97.8792 25 99.5321 24.4078 100.471 23.2236C101.409 22.0393 101.878 19.9087 101.878 16.8318C101.882 13.7554 101.413 11.6251 100.471 10.4408C99.5288 9.25651 97.8759 8.66436 95.5118 8.66436C93.6894 8.66436 91.7463 8.73373 89.6826 8.87246ZM92.5065 22.5324V11.0862C92.7953 11.0874 93.2673 11.084 93.9226 11.0761C94.578 11.0682 95.1091 11.0642 95.516 11.0642C96.7929 11.0642 97.6763 11.4796 98.166 12.3103C98.6557 13.141 98.9005 14.6484 98.9005 16.8326C98.9005 19.0173 98.6595 20.5211 98.1776 21.3439C97.6956 22.1667 96.807 22.5781 95.5118 22.5781C94.6837 22.5781 93.6819 22.5629 92.5065 22.5324Z" fill="white"/>
<path d="M114.218 22.4631L114.353 24.6549C112.982 24.7784 110.692 24.8398 107.485 24.8393C106.46 24.8393 105.651 24.5703 105.056 24.0323C104.461 23.4943 104.158 22.7558 104.145 21.8168V11.8476C104.159 10.9092 104.463 10.1707 105.056 9.6321C105.649 9.09353 106.459 8.82424 107.485 8.82424C110.693 8.82424 112.982 8.88599 114.353 9.0095L114.218 11.2241H108.118C107.711 11.2241 107.42 11.3248 107.248 11.5244C107.076 11.7241 106.988 12.0701 106.988 12.5624V15.3539H113.381V17.5686H106.988V21.1214C106.988 21.6138 107.075 21.9597 107.248 22.1594C107.42 22.3599 107.711 22.4597 108.118 22.4597L114.218 22.4631Z" fill="white"/>
<path d="M128.924 8.87246H131.838C132.546 8.87246 132.915 9.24918 132.945 10.0026L133.578 24.7902H130.799L130.28 11.1996H129.851L127.162 21.7906C126.996 22.4357 126.604 22.7586 125.987 22.7591H123.819C123.186 22.7597 122.788 22.438 122.622 21.7939L119.889 11.203H119.505L119.008 24.7936H116.252L116.839 10.0026C116.869 9.24974 117.238 8.87302 117.946 8.87246H120.883C121.501 8.87246 121.885 9.1956 122.035 9.84189L124.249 18.4703C124.279 18.5775 124.437 19.3004 124.724 20.6393H125.062C125.228 19.7477 125.386 19.0171 125.537 18.4475L127.751 9.84104C127.915 9.19532 128.306 8.87246 128.924 8.87246Z" fill="white"/>
<path d="M139 24.7902H136.176V8.87246H139V24.7902Z" fill="white"/>
<path d="M13.0484 11.5448L11.274 14.6186C10.6451 15.7067 10.0165 16.7949 9.38842 17.883C8.70243 19.0699 8.01643 20.2571 7.33044 21.4444C6.75163 22.4455 6.17283 23.4481 5.59402 24.4522C5.48083 24.6481 5.28018 24.9993 4.95862 24.9993H0.284427C0.0413279 24.9993 -0.107876 24.7558 0.0953499 24.447C0.335876 24.0318 0.575545 23.6161 0.814357 23.2C1.31427 22.3369 1.81462 21.4734 2.3154 20.6094C2.87277 19.6466 3.42821 18.6832 3.98172 17.7191C4.49621 16.8268 5.01221 15.9346 5.52971 15.0423C6.10937 14.0378 6.68861 13.033 7.26741 12.028C7.82478 11.0604 8.38215 10.0926 8.93952 9.12463C9.49346 8.16708 10.0478 7.20952 10.6026 6.25197C11.0149 5.53772 11.4232 4.82021 11.8348 4.10531C12.3905 3.14166 12.9404 2.17475 13.507 1.21828C13.7224 0.854632 13.5211 1.19739 14.1552 0.117533C14.1974 0.0439484 14.2752 -0.000940893 14.3591 1.49666e-05H14.5893C14.6763 0.000401883 14.7566 0.0476186 14.8003 0.124062C15.4112 1.20653 15.3386 1.07335 15.4222 1.21894C16.001 2.22306 16.5798 3.22697 17.1586 4.23066C17.5042 4.8287 17.8497 5.42673 18.1953 6.02477C18.895 7.23869 19.5949 8.4526 20.2951 9.66652C20.9086 10.7281 21.5226 11.7895 22.137 12.8506C22.6463 13.732 23.1548 14.6138 23.6624 15.4961C24.2134 16.4497 24.765 17.4033 25.3172 18.357C25.8849 19.3393 26.4519 20.3223 27.0182 21.306C27.5996 22.3128 28.1814 23.3195 28.7637 24.3262C28.9566 24.6207 28.8923 25 28.5109 25H23.7235L23.6727 24.9935C23.6519 24.9865 23.6303 24.9826 23.6084 24.9817C22.5884 24.9817 21.5682 24.9843 20.5478 24.9896C20.517 24.9907 20.4863 24.9937 20.4559 24.9987H20.4321H10.1614C9.91192 24.9987 9.83989 24.746 9.98588 24.4895C10.3949 23.7713 10.8084 23.0531 11.2207 22.335L12.8818 19.4414C13.2896 18.7328 13.6969 18.0238 14.1038 17.3143L14.1726 17.1948C14.2072 17.134 14.2712 17.0966 14.3404 17.0969H14.6331C14.7019 17.0967 14.7656 17.1338 14.8003 17.1942L14.8376 17.2595C15.1385 17.7713 15.4312 18.2884 15.727 18.8042C16.0829 19.4257 16.4385 20.0471 16.7939 20.6682C16.815 20.7117 16.8602 20.7376 16.9078 20.7334C18.2995 20.73 19.691 20.7278 21.0823 20.7269C21.108 20.7269 21.1337 20.7223 21.1742 20.7184L14.4652 9.10896" fill="white"/>
</svg>
