<svg width="82" height="14" viewBox="0 0 82 14" fill="none" xmlns="http://www.w3.org/2000/svg">
<path d="M16.0618 8.22219H15.3551V3.45775L13.911 6.7107H13.4961L12.0828 3.44129V8.20589H11.4375V2.68555H12.3746L13.7574 5.77421L15.1093 2.68555H16.0772V8.20589H16.0618V8.22219Z" fill="#021D34"/>
<path fill-rule="evenodd" clip-rule="evenodd" d="M21.0019 8.22205H21.7393L19.8956 2.66895H18.9739L17.0842 8.22205H17.7909L18.2826 6.67764H20.5102L21.0019 8.22205ZM19.3582 3.30979L20.2799 6.05342H18.4365L19.3582 3.30979Z" fill="#021D34"/>
<path d="M26.6182 7.05508C26.5414 7.36719 26.4031 7.5807 26.2033 7.81082C26.0189 8.00787 25.8193 8.12293 25.5735 8.22154C25.3276 8.32014 25.051 8.3366 24.7592 8.3366C24.4366 8.3366 24.1293 8.30368 23.8989 8.22154C23.6685 8.13939 23.4534 7.99157 23.269 7.81082C23.0846 7.61378 22.9464 7.36735 22.8542 7.05508C22.7774 6.77573 22.7466 6.4307 22.7466 5.98706V2.68473H23.4533V6.05274C23.4533 6.36486 23.4841 6.57852 23.5148 6.77557C23.5456 6.97262 23.5916 7.1206 23.7299 7.25197C23.8067 7.41625 23.9603 7.53131 24.1447 7.61346C24.329 7.6956 24.5288 7.72852 24.79 7.72852C25.0204 7.72852 25.2662 7.6956 25.4352 7.61346C25.6195 7.53131 25.7579 7.41641 25.8499 7.25197C25.9267 7.08768 26.0035 6.93985 26.065 6.74249C26.0958 6.54544 26.1264 6.33193 26.1264 6.05258V2.68457L26.7258 2.68457V5.98706C26.7258 6.39778 26.695 6.74281 26.6182 7.05508Z" fill="#021D34"/>
<path fill-rule="evenodd" clip-rule="evenodd" d="M32.1262 6.5295C32.1262 6.84162 32.0648 7.12096 31.9112 7.36739C31.7576 7.61382 31.5886 7.84379 31.3581 7.99161C31.1277 8.1396 30.8665 8.22158 30.5746 8.22158H27.8401V2.53711H30.3136C30.6362 2.53711 30.9434 2.60295 31.2046 2.76708C31.4659 2.9312 31.6501 3.11211 31.7883 3.35854C31.8959 3.60497 31.9728 3.88432 31.9728 4.17997C31.9728 4.65636 31.8191 5.00155 31.5579 5.24798C31.9112 5.51087 32.1262 5.97097 32.1262 6.5295ZM30.8973 4.16366C30.8973 3.99938 30.8358 3.88432 30.7436 3.80217C30.6668 3.72003 30.5286 3.63789 30.421 3.63789H28.8694V4.6236H30.3904C30.544 4.6236 30.6822 4.55776 30.7744 4.50854C30.8665 4.42655 30.8973 4.32795 30.8973 4.16366ZM30.9125 5.98743C31.0355 6.11879 31.0969 6.26678 31.0969 6.4309C31.0969 6.57889 31.0509 6.74301 30.9739 6.84193C30.8665 6.98976 30.7435 7.0719 30.5285 7.0719H28.8846V5.75746H30.4362C30.6513 5.75746 30.8051 5.87236 30.9125 5.98743Z" fill="#021D34"/>
<path d="M37.097 8.22174H33.1333V2.53711H37.0201V3.65435H34.1934V4.6073H35.8218V5.72454H34.1934V7.07174H37.097V8.22174Z" fill="#021D34"/>
<path d="M42.0679 8.22174H38.1042V2.53711H39.149V7.1045H42.0525V8.22174H42.0679Z" fill="#021D34"/>
<path fill-rule="evenodd" clip-rule="evenodd" d="M47.3154 8.22228H48.4675L46.3475 2.50488H45.2259L43.075 8.22228H44.2273L44.7189 6.90783H46.839L47.3154 8.22228ZM45.8098 4.18066L46.3935 5.77429H45.1647L45.8098 4.18066Z" fill="#021D34"/>
<path d="M53.8069 5.90528C53.8069 6.4146 53.73 6.85808 53.5457 7.18681C53.3615 7.53184 53.1002 7.81103 52.7776 8.0247C52.455 8.25466 52.1017 8.33681 51.7329 8.33681C51.1492 8.33681 50.6883 8.13976 50.2581 7.81103C49.8434 7.466 49.6128 7.05528 49.4746 6.61165L50.5192 6.26678C50.7498 6.891 51.1644 7.21957 51.7177 7.21957C51.9787 7.21957 52.2399 7.1045 52.4551 6.8747C52.6702 6.64473 52.7778 6.36522 52.7778 6.03681V2.53711H53.8071V5.90528H53.8069Z" fill="#021D34"/>
<path fill-rule="evenodd" clip-rule="evenodd" d="M59.0237 8.22228H60.176L58.0866 2.50488H56.9652L54.8142 8.22228H55.9665L56.4582 6.90783H58.532L59.0237 8.22228ZM57.549 4.18066L58.1327 5.77429H56.9039L57.549 4.18066Z" fill="#021D34"/>
<path fill-rule="evenodd" clip-rule="evenodd" d="M64.3787 8.22174H65.5002L64.6553 5.83944C65.1623 5.47795 65.4235 5.00155 65.4235 4.32795C65.4235 4.01568 65.3466 3.76925 65.1929 3.45714C65.0395 3.14503 64.8243 2.94782 64.5631 2.78354C64.3018 2.61925 63.9792 2.53711 63.5952 2.53711H61.1831V8.22174H62.2278V6.08603H63.6412L64.3787 8.22174ZM64.1944 3.86801C64.3172 3.96646 64.3787 4.11444 64.3787 4.31149C64.3787 4.5087 64.3172 4.67298 64.1944 4.75512C64.056 4.88665 63.933 4.95233 63.718 4.95233H62.274V3.67081H63.718C63.9026 3.67081 64.0868 3.75295 64.1944 3.86801Z" fill="#021D34"/>
<path fill-rule="evenodd" clip-rule="evenodd" d="M70.4248 8.22205H71.1623L69.3034 2.66895H68.3816L66.5073 8.22205H67.214L67.7055 6.67764H69.9332L70.4248 8.22205ZM68.7811 3.30979L69.7029 6.05342H67.8747L68.7811 3.30979Z" fill="#021D34"/>
<path fill-rule="evenodd" clip-rule="evenodd" d="M75.4415 5.05139C75.5185 4.83788 75.5491 4.60791 75.5491 4.36148C75.5491 4.04937 75.5185 3.75356 75.4264 3.5399C75.2882 3.32639 75.165 3.1784 74.9501 3.01412C74.9441 3.01119 74.9381 3.00825 74.932 3.00528C74.7669 2.92499 74.5737 2.83103 74.3663 2.76769C74.1667 2.71847 73.9054 2.68555 73.5828 2.68555H72.1694V8.27158H72.8761V6.18493H73.552C73.9207 6.18493 74.2433 6.10294 74.4737 6.02064C74.735 5.9222 74.9346 5.77421 75.119 5.57716C75.1491 5.53116 75.1817 5.48644 75.2146 5.44121C75.2991 5.32492 75.3862 5.20522 75.4415 5.05139ZM74.7656 3.88493C74.8118 4.04921 74.8426 4.19704 74.8426 4.39424C74.8426 4.453 74.8377 4.5143 74.8328 4.57611C74.8253 4.66999 74.8177 4.76505 74.827 4.85418C74.781 4.96924 74.7042 5.10061 74.5966 5.21567C74.4737 5.34704 74.3355 5.39642 74.1511 5.4621C73.9669 5.51148 73.7364 5.5444 73.4752 5.5444H72.8915V3.30993H73.5674C73.7672 3.30993 73.9362 3.32639 74.0897 3.37561C74.2433 3.42483 74.3661 3.47405 74.4737 3.5399C74.6121 3.6385 74.7042 3.72064 74.7656 3.88493Z" fill="#021D34"/>
<path fill-rule="evenodd" clip-rule="evenodd" d="M79.7329 8.30408H80.4704L78.6115 2.75098H77.6898L75.8154 8.30408H76.5221L77.0138 6.75983H79.2413L79.7329 8.30408ZM78.0891 3.39166L79.0108 6.13529H77.1828L78.0891 3.39166Z" fill="#021D34"/>
<path d="M7.46522 4.11914C7.46522 4.15229 7.46522 4.18544 7.46522 4.20196C7.46522 6.00838 6.00997 7.46667 4.20742 7.46667C2.40477 7.46667 0.933028 6.00838 0.933028 4.20196C0.933028 4.16892 0.933028 4.13566 0.933028 4.11914H0.0566406C0.122802 7.1517 4.20742 12.2724 4.20742 12.2724C4.20742 12.2724 8.30852 7.1517 8.37469 4.11914H7.46522Z" fill="#7CCFE2"/>
<path fill-rule="evenodd" clip-rule="evenodd" d="M4.20724 0.0419922C6.52239 0.0419922 8.35802 2.04711 8.3911 3.73745C8.42418 6.04101 6.52239 7.48268 4.20724 7.4992C1.8755 7.4992 -0.00970284 6.04101 0.023378 3.73745C0.0564589 2.04711 1.89199 0.0419922 4.20724 0.0419922ZM0.949437 4.21807C0.949437 6.02439 2.40459 7.48268 4.20724 7.48268C6.00979 7.48268 7.46504 6.00776 7.46504 4.20144C7.46504 2.39513 6.00979 0.93694 4.20724 0.93694C2.40459 0.93694 0.949437 2.41176 0.949437 4.21807Z" fill="#1290A1"/>
<path d="M0.93292 4.20144C0.93292 2.39513 2.38817 0.93694 4.20731 0.93694C6.02645 0.93694 7.46511 2.39513 7.46511 4.20144C7.46511 4.68207 7.34938 5.17922 7.151 5.57681C7.44862 5.02999 7.54786 4.36719 7.49819 3.72082C7.29981 1.81516 5.86105 0.274042 4.20741 0.0419922C2.53719 0.240892 1.13151 1.81516 0.916533 3.72082C0.833882 4.40034 0.982695 5.04662 1.26383 5.57681C1.06524 5.14607 0.93292 4.68207 0.93292 4.20144Z" fill="#136D79"/>
<path d="M4.20742 7.48313C3.84363 7.48313 3.49634 7.41683 3.16553 7.31738C3.49634 7.41673 3.86012 7.48313 4.20742 7.48313C4.55472 7.48313 4.91851 7.41683 5.24921 7.31738C4.91851 7.41673 4.5877 7.48313 4.20742 7.48313Z" fill="#136D79"/>
<path d="M4.15754 5.84271H2.57007V2.59473H2.76845L4.15754 3.83759V5.84271Z" fill="#B9F2FE"/>
<path d="M4.29004 5.84271H5.8941V2.59473H5.66264L4.29004 3.83759V5.84271Z" fill="#7CCFE2"/>
</svg>
