<svg width="65" height="68" viewBox="0 0 65 68" fill="none" xmlns="http://www.w3.org/2000/svg">
<path d="M61.6794 4.36572H33.9368C32.1226 4.36572 30.6526 5.83126 30.6526 7.64V30.4875C30.6526 32.2962 32.1226 33.7618 33.9368 33.7618H45.9789L45.9886 22.2244C45.9886 21.0184 46.9684 20.0415 48.178 20.0415C49.3877 20.0415 50.3675 21.0184 50.3675 22.2244L50.3579 33.7618H61.6794C63.4937 33.7618 64.9636 32.2962 64.9636 30.4875V7.64C64.9636 5.83126 63.4937 4.36572 61.6794 4.36572Z" fill="#4BA3DD"/>
<path d="M30.6526 13.0972H4.37894V54.5714H35.0316V33.7618H33.9368C33.5504 33.7618 33.1858 33.6835 32.8421 33.5609V52.3885H6.56841V15.28H30.6526V13.0972Z" fill="black"/>
<path fill-rule="evenodd" clip-rule="evenodd" d="M61.6794 57.2697C62.145 56.6898 62.4 55.9629 62.4 55.2232V40.3829C62.4 39.7818 61.9093 39.2915 61.3052 39.2915C60.7012 39.2915 60.2105 39.7818 60.2105 40.3829V51.2972H58.021V38.2001C58.021 37.5989 57.5303 37.1086 56.9263 37.1086C56.3223 37.1086 55.8316 37.5989 55.8316 38.2001V51.2972H53.6421V36.0172C53.6421 35.4161 53.1514 34.9258 52.5473 34.9258C51.9433 34.9258 51.4526 35.4161 51.4526 36.0172V51.2972H49.2631L49.2728 22.2245C49.2728 21.6233 48.782 21.1331 48.178 21.1331C47.574 21.1331 47.0833 21.6233 47.0833 22.2245L47.0737 53.48H42.8754L40.8794 42.5322C40.7682 41.9199 40.2326 41.4743 39.6088 41.4743C38.8947 41.4743 38.3158 42.0515 38.3158 42.7624V43.4595C38.3158 43.5314 38.3211 43.6039 38.3323 43.6737L40.3027 55.4524C40.3946 56.0045 40.6276 56.5252 40.9762 56.9595L43.6841 60.3329C44.4571 61.298 44.8842 62.5094 44.8842 63.7425V65.4857H58.021V63.7425C58.021 62.5094 58.4481 61.2991 59.2211 60.335L61.6794 57.2697Z" fill="black"/>
<path d="M10.9474 4.36572H13.1368V6.54858H10.9474V4.36572Z" fill="black"/>
<path d="M15.3263 4.36572H24.0842V6.54858H15.3263V4.36572Z" fill="black"/>
<path d="M26.2737 4.36572H28.4632V6.54858H26.2737V4.36572Z" fill="black"/>
<path d="M16.4211 61.1199H22.9895V63.3027H16.4211V61.1199Z" fill="black"/>
<path fill-rule="evenodd" clip-rule="evenodd" d="M10.9474 41.4741C10.9474 39.6691 12.4211 38.1998 14.2316 38.1998C14.617 38.1998 14.9826 38.2782 15.3263 38.4007V22.7749L25.3147 24.0198L25.0432 26.1856L17.5158 25.2477V41.4741C17.5158 43.2791 16.0421 44.7484 14.2316 44.7484C12.4211 44.7484 10.9474 43.2791 10.9474 41.4741ZM13.1368 41.4741C13.1368 42.0752 13.6275 42.5655 14.2316 42.5655C14.8356 42.5655 15.3263 42.0752 15.3263 41.4741C15.3263 40.873 14.8356 40.3827 14.2316 40.3827C13.6275 40.3827 13.1368 40.873 13.1368 41.4741Z" fill="black"/>
</svg>
