<svg width="11" height="11" viewBox="0 0 11 11" fill="none" xmlns="http://www.w3.org/2000/svg">
<path d="M10.3786 0H6.62121C6.27801 0 5.99977 0.278302 5.99977 0.621586C5.99977 0.964869 6.27801 1.24317 6.62121 1.24317H8.87834C8.87834 1.24317 3.58072 6.48279 3.33803 6.72554C3.09533 6.96829 3.09533 7.36181 3.33803 7.60457C3.45934 7.72593 3.61837 7.78661 3.77741 7.78661C3.93645 7.78661 4.09552 7.72596 4.21685 7.60454L9.75719 2.1222V4.41113C9.75719 4.75442 10.0354 5.03272 10.3786 5.03272C10.7218 5.03272 11.0001 4.75442 11.0001 4.41113V0.621586C11 0.278302 10.7218 0 10.3786 0Z" fill="#0872C7"/>
<path d="M9.77774 10.0278H10.0277V9.77779V7.25847C10.0277 7.05903 10.1894 6.89735 10.3889 6.89735C10.5883 6.89735 10.75 7.05902 10.75 7.25847C10.75 7.25847 10.75 7.25848 10.75 7.25849V10.3889C10.75 10.5883 10.5883 10.75 10.3889 10.75H0.611117C0.41168 10.75 0.25 10.5883 0.25 10.3889V0.611118C0.25 0.411686 0.411687 0.25 0.611117 0.25H3.76642C3.96586 0.25 4.12753 0.411674 4.12753 0.611092C4.12753 0.810524 3.96585 0.972211 3.76642 0.972211H1.22221H0.972208V1.22221V9.77779V10.0278H1.22221H9.77774Z" fill="#0872C7" stroke="#0872C7" stroke-width="0.5"/>
</svg>
