<svg width="42" height="44" viewBox="0 0 42 44" fill="none" xmlns="http://www.w3.org/2000/svg">
<path d="M40.0704 22.0015L41.9131 17.1954C42.1152 16.6652 41.9577 16.0641 41.5141 15.7045L37.519 12.4655L36.7105 7.38122C36.6213 6.8195 36.1803 6.38116 35.6185 6.29192L30.5341 5.48347L27.2975 1.48587C26.9405 1.04228 26.3263 0.884791 25.8092 1.0869L21.0003 2.93215L16.1941 1.08953C15.6613 0.884791 15.0654 1.04753 14.7058 1.4885L11.4666 5.4861L6.38215 6.29454C5.82304 6.38379 5.38206 6.82475 5.29281 7.38384L4.48433 12.4681L0.486576 15.7071C0.0455894 16.0641 -0.114531 16.6652 0.0875881 17.1954L1.93028 22.0015L0.0875881 26.8075C-0.117156 27.3377 0.0455894 27.9388 0.486576 28.2958L4.48433 31.5322L5.29281 36.6164C5.38206 37.1782 5.82042 37.6191 6.38215 37.7084L11.4666 38.5168L14.7058 42.5118C15.0654 42.958 15.6665 43.1155 16.1967 42.9108L21.0003 41.0708L25.8066 42.9134C25.9588 42.9711 26.1163 43 26.2764 43C26.6623 43 27.0429 42.8294 27.2975 42.5118L30.5341 38.5168L35.6185 37.7084C36.1803 37.6191 36.6213 37.1782 36.7105 36.6164L37.519 31.5322L41.5141 28.2958C41.9577 27.9362 42.1152 27.3377 41.9131 26.8075L40.0704 22.0015Z" fill="#2196F3"/>
<path d="M14.6667 16C13.9307 16 13.3333 16.5376 13.3333 17.2V21.7168L10.5253 16.6648C10.248 16.1656 9.624 15.904 9.02667 16.0336C8.42667 16.1608 8 16.6432 8 17.2V26.8C8 27.4624 8.59733 28 9.33333 28C10.0693 28 10.6667 27.4648 10.6667 26.8V22.2856L13.4747 27.3376C13.704 27.7504 14.1707 28 14.6667 28C14.768 28 14.872 27.9904 14.9733 27.9664C15.5733 27.8416 16 27.3568 16 26.8V17.2C16 16.5376 15.4027 16 14.6667 16Z" fill="#FAFAFA"/>
<path d="M22.25 18.4C22.94 18.4 23.5 17.8624 23.5 17.2C23.5 16.5376 22.94 16 22.25 16H19.75C19.06 16 18.5 16.5376 18.5 17.2V26.8C18.5 27.4624 19.06 28 19.75 28H22.25C22.94 28 23.5 27.4624 23.5 26.8C23.5 26.1376 22.94 25.6 22.25 25.6H21V23.2H22.25C22.94 23.2 23.5 22.6624 23.5 22C23.5 21.3376 22.94 20.8 22.25 20.8H21V18.4H22.25Z" fill="#FAFAFA"/>
<path d="M32.6667 16C31.9307 16 31.3333 16.5374 31.3333 17.1997V21.7152L31.192 21.4632C30.7387 20.6499 29.2587 20.6499 28.8053 21.4632L28.6667 21.7152V17.1997C28.6667 16.5374 28.0693 16 27.3333 16C26.5973 16 26 16.5374 26 17.1997V26.7969C26 27.3512 26.424 27.8382 27.0267 27.963C27.6373 28.1045 28.2507 27.8286 28.528 27.332L30 24.6831L31.4747 27.3344C31.704 27.747 32.1707 27.9966 32.6667 27.9966C32.768 27.9966 32.8693 27.987 32.9733 27.963C33.576 27.8382 34 27.3536 34 26.7969V17.1997C34 16.5374 33.4027 16 32.6667 16Z" fill="#FAFAFA"/>
</svg>
