<svg width="68" height="68" viewBox="0 0 68 68" fill="none" xmlns="http://www.w3.org/2000/svg">
<path d="M26.3226 0H22.5453C12.5328 0 4.3871 8.10712 4.3871 18.0707C4.3871 22.897 6.27574 27.4341 9.70535 30.8481L10.3426 31.4822L6.93271 33.7447C5.3391 34.8023 4.3871 36.5715 4.3871 38.4772C4.3871 39.4125 4.02077 40.2944 3.35613 40.9558L2.32735 41.9795C0.825871 43.4726 0 45.459 0 47.5698C0 48.8566 0.503419 50.0659 1.41813 50.9762C1.91826 51.475 2.19355 52.1375 2.19355 52.8414C2.19355 56.2019 4.94097 58.937 8.31903 58.937H9.87097V46.6126C9.87097 42.1291 12.4155 38.0308 16.4417 36.0225V27.2857L13.5254 25.1039C12.6052 24.4163 12.0645 23.338 12.0645 22.192C12.0645 20.1827 13.7009 18.5543 15.7201 18.5543H16.4417V15.28C16.4417 13.4715 17.9147 12.0057 19.7321 12.0057H29.6129C30.4223 12.0057 31.1221 12.4477 31.5026 13.0971H32.9032C34.7173 13.0971 36.1936 11.6281 36.1936 9.82284C36.1936 4.40609 31.7648 0 26.3226 0Z" fill="#4BA3DD"/>
<path fill-rule="evenodd" clip-rule="evenodd" d="M64.7097 15.28C62.8956 15.28 61.4194 16.7491 61.4194 18.5543V19.017C55.9728 22.276 49.7596 24.0114 43.395 24.0114H42.7742C39.7504 24.0114 37.2903 26.4595 37.2903 29.4685V33.8342C37.2903 35.7148 38.2511 37.3759 39.7109 38.3582C38.896 39.1517 38.3871 40.2529 38.3871 41.4742V42.0876C38.3871 42.4947 38.4376 42.9007 38.5363 43.2947L39.4389 46.8877L35.0968 59.8517V58.3826C35.0968 51.0024 31.7428 44.2847 26.3226 39.8098V33.8342H27.4194C30.4432 33.8342 32.9032 31.3862 32.9032 28.3771V24.6859L33.1741 24.5517C34.3597 23.9612 35.0968 22.7737 35.0968 21.4542C35.0968 20.7688 34.895 20.1052 34.5122 19.5344L33.1182 17.4541C32.9778 17.2435 32.9032 16.9979 32.9032 16.7458V14.1886C32.9032 12.3834 31.427 10.9143 29.6129 10.9143H23.0323H21.9355C21.3312 10.9143 20.8387 10.4253 20.8387 9.82286C20.8387 9.2204 21.3312 8.73144 21.9355 8.73144H23.0323V6.54858H21.9355C20.1214 6.54858 18.6452 8.01764 18.6452 9.82286C18.6452 10.2387 18.7318 10.6338 18.8744 11.0005C16.8651 11.3989 15.345 13.1648 15.345 15.28V17.4781C12.8992 17.668 10.9677 19.7101 10.9677 22.192C10.9677 23.672 11.6774 25.0876 12.8663 25.9771L15.345 27.8303V35.3743C11.2759 37.6739 8.7742 41.9152 8.7742 46.6127V67.6685H45.9494L47.6548 52.3885H50.3058L51.4025 44.7485H51.5484C53.3625 44.7485 54.8387 43.2795 54.8387 41.4742C54.8387 41.4207 54.8317 41.3691 54.8246 41.3174L54.8246 41.3173L54.8245 41.3172C54.8198 41.2825 54.815 41.2477 54.8124 41.2123C57.1068 42.0014 59.3201 43.0295 61.4194 44.2858V44.7485C61.4194 46.5537 62.8956 48.0228 64.7097 48.0228C66.5238 48.0228 68 46.5537 68 44.7485V18.5543C68 16.7491 66.5238 15.28 64.7097 15.28ZM39.6857 34.9257H41.6774V32.7428H39.4839V30.56H41.6774V28.3771H39.6857C40.1397 27.11 41.3462 26.1943 42.7742 26.1943H43.395C43.4811 26.1943 43.5669 26.1901 43.6527 26.1859L43.6528 26.1859C43.7254 26.1824 43.7981 26.1789 43.871 26.1779V37.1085H43.395H42.7742C41.3462 37.1085 40.1397 36.1928 39.6857 34.9257ZM43.7028 39.3013H43.7027H43.7026H43.7025H43.7025H43.7024H43.7023H43.7022H43.7021C43.6 39.2964 43.4978 39.2914 43.395 39.2914H42.7742C41.5645 39.2914 40.5807 40.2704 40.5807 41.4742V42.0876C40.5807 42.3157 40.6092 42.5427 40.664 42.7654L41.4976 46.0855L43.6736 46.8069L43.5365 43.6571H42.7742V41.4742H43.871C44.4753 41.4742 44.9678 40.9853 44.9678 40.3828C44.9678 39.8153 44.5268 39.3645 43.9708 39.311C43.8813 39.31 43.7921 39.3057 43.7028 39.3013ZM28.5161 27.2857C27.3064 27.2857 26.3226 26.3067 26.3226 25.1028H30.7097V27.2857H28.5161ZM13.1613 22.192C13.1613 22.9898 13.5441 23.7527 14.1846 24.2308L17.5385 26.7411V35.1996C19.9163 35.8796 22.1351 36.8804 24.129 38.1781V33.8342H23.9437C22.2733 33.8342 20.7718 32.9098 20.0271 31.4233L19.8385 31.0467L21.8017 30.0721L21.9903 30.4486C22.3621 31.1908 23.1101 31.6514 23.9437 31.6514H27.4194C28.8474 31.6514 30.0538 30.7357 30.5079 29.4685H28.5161C26.0967 29.4685 24.129 27.5105 24.129 25.1028V22.92H31.5476L32.1936 22.5991C32.6301 22.3808 32.9032 21.9421 32.9032 21.4542C32.9032 21.2021 32.8287 20.9565 32.6883 20.7459L31.2943 18.6656C30.9115 18.0948 30.7097 17.4312 30.7097 16.7458V14.1886C30.7097 13.5861 30.2172 13.0971 29.6129 13.0971H23.0323H21.9355H19.7321C18.5223 13.0971 17.5385 14.0762 17.5385 15.28V19.6457H15.7201C14.3096 19.6457 13.1613 20.7884 13.1613 22.192ZM19.7419 65.4856V50.3825C19.7419 47.8482 18.1187 45.6064 15.7014 44.8053L15.0072 46.8746C16.5273 47.38 17.5484 48.789 17.5484 50.3825V65.4856H10.9677V46.6127C10.9677 42.6465 13.1097 39.0688 16.5854 37.1784C26.214 39.7629 32.9032 48.4223 32.9032 58.3826V65.4856H19.7419ZM35.5223 65.4856H43.9861L45.4481 52.3885H43.917L43.7766 49.1404L41.2749 48.3109L35.5223 65.4856ZM51.5484 42.5657H50.4516V40.3828H51.5484C52.1527 40.3828 52.6452 40.8718 52.6452 41.4742C52.6452 42.0767 52.1527 42.5657 51.5484 42.5657ZM48.404 50.2057L49.2397 44.3829C48.6485 43.9911 48.2581 43.3231 48.2581 42.5657V40.3828C48.2581 40.1252 48.3107 39.8818 48.3941 39.6515C48.0424 39.6008 47.688 39.5658 47.3336 39.5308C47.2305 39.5206 47.1273 39.5104 47.0242 39.4998C47.1043 39.7825 47.1613 40.075 47.1613 40.3828C47.1613 41.5113 46.5844 42.5089 45.7081 43.0983L46.0185 50.2057H48.404ZM46.0645 37.2057V26.0971C51.4574 25.7118 56.6868 24.1489 61.4194 21.5349V41.7678C56.6868 39.1539 51.4574 37.5909 46.0645 37.2057ZM64.7097 45.8399C65.314 45.8399 65.8065 45.351 65.8065 44.7485V18.5543C65.8065 17.9518 65.314 17.4629 64.7097 17.4629C64.1054 17.4629 63.6129 17.9518 63.6129 18.5543V44.7485C63.6129 45.351 64.1054 45.8399 64.7097 45.8399Z" fill="black"/>
<path d="M25.2258 18.5543C27.0399 18.5543 28.5161 17.0852 28.5161 15.28H26.3226C26.3226 15.8825 25.8301 16.3715 25.2258 16.3715C24.6215 16.3715 24.129 15.8825 24.129 15.28H21.9355C21.9355 17.0852 23.4117 18.5543 25.2258 18.5543Z" fill="black"/>
<path fill-rule="evenodd" clip-rule="evenodd" d="M42.7742 15.28H41.6774C39.8634 15.28 38.3871 13.8109 38.3871 12.0057V3.27428C38.3871 1.46906 39.8634 0 41.6774 0H59.2258C61.0399 0 62.5161 1.46906 62.5161 3.27428V12.0057C62.5161 13.8109 61.0399 15.28 59.2258 15.28H53.0301L48.5136 18.8762C47.8885 19.3728 47.1054 19.6457 46.3069 19.6457C44.359 19.6457 42.7742 18.0697 42.7742 16.1302V15.28ZM41.6774 2.18285C41.0731 2.18285 40.5807 2.67181 40.5807 3.27428V12.0057C40.5807 12.6082 41.0731 13.0971 41.6774 13.0971H44.9677V16.1302C44.9677 16.8647 45.5688 17.4628 46.3069 17.4628C46.6096 17.4628 46.9068 17.3591 47.1437 17.1703L52.2602 13.0971H59.2258C59.8301 13.0971 60.3226 12.6082 60.3226 12.0057V3.27428C60.3226 2.67181 59.8301 2.18285 59.2258 2.18285H41.6774Z" fill="black"/>
<path d="M51.5484 6.54858H53.742V8.73144H51.5484V6.54858Z" fill="black"/>
<path d="M55.9355 6.54858H58.129V8.73144H55.9355V6.54858Z" fill="black"/>
<path d="M47.1613 6.54858H49.3549V8.73144H47.1613V6.54858Z" fill="black"/>
<path d="M42.7742 6.54858H44.9678V8.73144H42.7742V6.54858Z" fill="black"/>
</svg>
