<svg width="79" height="78" viewBox="0 0 79 78" fill="none" xmlns="http://www.w3.org/2000/svg">
<path d="M51.3882 8.12532L44.6856 7.14793L41.6882 1.05321C41.3711 0.408298 40.7166 0 40 0C39.2834 0 38.6289 0.408298 38.3118 1.05321L35.3144 7.14793L28.6118 8.12532C27.9027 8.22878 27.3136 8.72725 27.0922 9.41118C26.8708 10.0951 27.0554 10.8459 27.5685 11.3478L32.4184 16.0922L31.2732 22.7915C31.1521 23.5003 31.4425 24.2166 32.0222 24.6392C32.602 25.0619 33.3706 25.1176 34.0049 24.7829L40 21.6201L45.9948 24.7829C46.6291 25.1176 47.3977 25.0619 47.9774 24.6392C48.5572 24.2166 48.8476 23.5003 48.7265 22.7915L47.5812 16.0922L52.4315 11.3478C52.9446 10.8459 53.1292 10.0951 52.9078 9.41118C52.6864 8.72725 52.0973 8.22878 51.3882 8.12532Z" fill="url(#paint0_linear)"/>
<path d="M72.784 23.8559L73.0613 16.9883C73.0907 16.2616 72.708 15.581 72.0741 15.2329C71.4402 14.8849 70.6651 14.9297 70.0749 15.3485L64.4969 19.3039L58.1002 16.9159C57.4234 16.6633 56.6631 16.8197 56.1387 17.3193C55.6144 17.8189 55.417 18.5751 55.6296 19.27L57.6393 25.8381L53.4087 31.2299C52.9611 31.8003 52.8737 32.5773 53.1833 33.2342C53.4929 33.8911 54.1458 34.3139 54.8675 34.3249L61.6881 34.4286L65.4702 40.1487C65.8217 40.6804 66.4137 40.9998 67.0478 41C67.1296 40.9999 67.2113 40.9946 67.2924 40.9841C68.0081 40.8904 68.6091 40.3954 68.8424 39.7073L71.0481 33.2033L77.6161 31.3469C78.3109 31.1504 78.8349 30.5736 78.9676 29.8588C79.1003 29.1441 78.8188 28.4154 78.2415 27.9791L72.784 23.8559Z" fill="url(#paint1_linear)"/>
<path d="M21.3607 25.8382L23.3704 19.2702C23.583 18.5753 23.3857 17.819 22.8613 17.3193C22.337 16.8197 21.5765 16.6633 20.8998 16.9159L14.503 19.3039L8.9252 15.3485C8.33497 14.9297 7.5599 14.8849 6.92599 15.2329C6.29209 15.581 5.90936 16.2615 5.93879 16.9883L6.2161 23.8558L0.758549 27.9792C0.18117 28.4154 -0.100329 29.1441 0.0324027 29.8589C0.165135 30.5736 0.68908 31.1505 1.38396 31.3469L7.95201 33.2034L10.1574 39.7073C10.3907 40.3954 10.9916 40.8903 11.7073 40.984C12.423 41.0777 13.1295 40.7539 13.5296 40.1487L17.3118 34.4286L24.1325 34.325C24.8542 34.314 25.5071 33.8911 25.8167 33.2343C26.1263 32.5774 26.0389 31.8004 25.5913 31.2299L21.3607 25.8382Z" fill="url(#paint2_linear)"/>
<path d="M61.2373 48.1253H47.4407V39.5675C47.4407 37.2394 47.4407 32.5981 41.2868 32.0055C40.9351 31.9727 40.5858 32.0886 40.3247 32.3247C40.0636 32.5609 39.9149 32.8953 39.9153 33.2459V41.7048C39.9152 41.9351 39.8508 42.1609 39.7292 42.357L36.1525 48.1253H36.3093L28.6271 53.1044L28 61.9464L28.6271 73.0209C28.6271 75.7708 30.8733 78 33.6441 78H58.7288C60.8069 78 62.4915 76.3281 62.4915 74.2657C62.4915 72.2033 60.8069 70.5313 58.7288 70.5313H59.9831C62.0611 70.5313 63.7458 68.8594 63.7458 66.797C63.7458 64.7346 62.0611 63.0627 59.9831 63.0627H61.2373C63.3154 63.0627 65 61.3907 65 59.3283C65 57.2659 63.3154 55.594 61.2373 55.594C63.3154 55.594 65 53.9221 65 51.8597C65 49.7972 63.3154 48.1253 61.2373 48.1253Z" fill="url(#paint3_linear)"/>
<rect x="13" y="48" width="16" height="30" rx="2" fill="url(#paint4_linear)"/>
<circle cx="21" cy="72" r="2" fill="white"/>
<defs>
<linearGradient id="paint0_linear" x1="44.5635" y1="25.1088" x2="56.2948" y2="7.67615" gradientUnits="userSpaceOnUse">
<stop stop-color="#FFBA21"/>
<stop offset="1" stop-color="#FFDC77"/>
</linearGradient>
<linearGradient id="paint1_linear" x1="70.5635" y1="41.1131" x2="82.9373" y2="23.4329" gradientUnits="userSpaceOnUse">
<stop stop-color="#FFBA21"/>
<stop offset="1" stop-color="#FFDC77"/>
</linearGradient>
<linearGradient id="paint2_linear" x1="17.5635" y1="41.1131" x2="29.9373" y2="23.4329" gradientUnits="userSpaceOnUse">
<stop stop-color="#FFBA21"/>
<stop offset="1" stop-color="#FFDC77"/>
</linearGradient>
<linearGradient id="paint3_linear" x1="41.4802" y1="94.3344" x2="76.1236" y2="72.0901" gradientUnits="userSpaceOnUse">
<stop stop-color="#F7BEB7"/>
<stop offset="1" stop-color="#F4E2DD"/>
</linearGradient>
<linearGradient id="paint4_linear" x1="18.9386" y1="42.4325" x2="2.93523" y2="65.4281" gradientUnits="userSpaceOnUse">
<stop stop-color="#91CBF1"/>
<stop offset="1" stop-color="#2C92D6"/>
</linearGradient>
</defs>
</svg>
