<svg width="68" height="68" viewBox="0 0 68 68" fill="none" xmlns="http://www.w3.org/2000/svg">
<path d="M12.0645 16.3714C12.0645 17.5775 11.0829 18.5543 9.87097 18.5543H24.129C20.8694 18.5543 18.1703 16.1935 17.6471 13.0972H9.87097C11.0829 13.0972 12.0645 15.1654 12.0645 16.3714Z" fill="#4BA3DD"/>
<path d="M60.3226 13.0972H30.611C30.0878 16.1935 27.3886 18.5543 24.129 18.5543H59.2258C59.8312 18.5543 60.3226 19.0433 60.3226 19.6457V52.3885C60.3226 52.991 59.8312 53.48 59.2258 53.48H8.77419C8.16877 53.48 7.67741 52.991 7.67741 52.3885V19.6457C7.67741 19.0433 8.16877 18.5543 8.77419 18.5543H9.87096C8.65903 18.5543 7.67741 17.5775 7.67741 16.3714C7.67741 15.1654 8.65903 13.0972 9.87096 13.0972H7.67741C4.65361 13.0972 2.19354 15.5452 2.19354 18.5543V57.8457H65.8064V18.5543C65.8064 15.5452 63.3464 13.0972 60.3226 13.0972Z" fill="#4BA3DD"/>
<path d="M43.871 33.8342H52.6452V38.1999H43.871V33.8342Z" fill="#4BA3DD"/>
<path fill-rule="evenodd" clip-rule="evenodd" d="M8.77418 54.5713H59.2258C60.4355 54.5713 61.4193 53.5923 61.4193 52.3885V19.6457C61.4193 18.4418 60.4355 17.4628 59.2258 17.4628H29.4911C30.918 16.0745 31.8064 14.1427 31.8064 12.0057C31.8064 11.6553 31.7757 11.3072 31.7275 10.9634C31.9183 10.9186 32.0444 10.8881 32.0719 10.8815L32.9032 10.6752V6.54856C34.1129 6.54856 35.0968 5.56955 35.0968 4.36571V2.18285C35.0968 0.97901 34.1129 0 32.9032 0H15.3548C14.1451 0 13.1613 0.97901 13.1613 2.18285H12.0645C10.2504 2.18285 8.77418 3.65191 8.77418 5.45713V12.3167C7.42734 13.0469 6.58063 14.982 6.58063 16.3714C6.58063 17.0481 6.78792 17.6778 7.14327 18.2006C6.79779 18.5859 6.58063 19.0891 6.58063 19.6457V52.3885C6.58063 53.5923 7.56443 54.5713 8.77418 54.5713ZM8.77418 19.6457H16.8695C13.317 21.9933 10.9677 26.0065 10.9677 30.5599V41.4742C10.9677 44.7125 13.3444 47.4017 16.4516 47.9245V52.3885H8.77418V19.6457ZM29.6129 52.3885V27.2857H31.8064V45.6849C33.6929 45.1971 35.0968 43.5032 35.0968 41.4742V30.5599C35.0968 24.5418 30.1766 19.6457 24.129 19.6457C18.0814 19.6457 13.1613 24.5418 13.1613 30.5599V41.4742C13.1613 43.5032 14.5651 45.1971 16.4516 45.6849V27.2857H18.6451V52.3885H23.0322V42.5656H25.2258V52.3885H29.6129ZM59.2258 52.3885H31.8064V47.9245C34.9136 47.4028 37.2903 44.7136 37.2903 41.4742V30.5599C37.2903 26.0065 34.941 21.9933 31.3886 19.6457H59.2258V52.3885ZM24.129 17.4629C27.1528 17.4629 29.6129 15.0148 29.6129 12.0058C29.6129 11.8151 29.5919 11.6263 29.5709 11.4377L29.5679 11.411C27.9897 11.7035 25.9233 12.0058 24.129 12.0058C22.3336 12.0058 20.2673 11.7024 18.6879 11.411L18.685 11.4389L18.685 11.4389C18.6651 11.6272 18.6451 11.8155 18.6451 12.0058C18.6451 15.0148 21.1052 17.4629 24.129 17.4629ZM30.7097 8.95406C29.3102 9.25857 26.4125 9.82284 24.129 9.82284C21.8455 9.82284 18.9479 9.25857 17.5484 8.95406V6.54856H30.7097V8.95406ZM32.9032 2.18285H15.3548H15.3537L15.3548 4.36571H32.9032V2.18285ZM12.0645 4.36571H13.1613C13.1613 5.56955 14.1451 6.54856 15.3548 6.54856V10.6752L16.1851 10.8804L16.2157 10.8878C16.2689 10.9007 16.3781 10.9271 16.5273 10.9623C16.4801 11.3072 16.4516 11.6553 16.4516 12.0057C16.4516 14.1427 17.34 16.0745 18.7669 17.4628H12.9595C13.0823 17.1201 13.1613 16.7556 13.1613 16.3714C13.1613 14.982 12.3146 13.0469 10.9677 12.3167V5.45713C10.9677 4.85467 11.4602 4.36571 12.0645 4.36571ZM10.9677 16.3714C10.9677 15.4764 10.2219 14.2366 9.86766 14.1885C9.51998 14.2366 8.77418 15.4764 8.77418 16.3714C8.77418 16.9739 9.26663 17.4628 9.87095 17.4628C10.4753 17.4628 10.9677 16.9739 10.9677 16.3714Z" fill="black"/>
<path fill-rule="evenodd" clip-rule="evenodd" d="M0 56.7542V60.0284C0 64.2402 3.44387 67.6684 7.67742 67.6684H60.3226C64.5561 67.6684 68 64.2402 68 60.0284V56.7542H0ZM42.5724 58.937C42.1183 60.2042 40.9119 61.1199 39.4839 61.1199H28.5161C27.0881 61.1199 25.8817 60.2042 25.4276 58.937H42.5724ZM60.3226 65.4856C63.3464 65.4856 65.8064 63.0375 65.8064 60.0284V58.937H44.857C44.347 61.4244 42.1315 63.3027 39.4839 63.3027H28.5161C25.8674 63.3027 23.653 61.4244 23.143 58.937H2.19355V60.0284C2.19355 63.0375 4.65361 65.4856 7.67742 65.4856H60.3226Z" fill="black"/>
<path d="M54.8387 48.0227H57.0322V50.2056H54.8387V48.0227Z" fill="black"/>
<path d="M50.4516 48.0227H52.6451V50.2056H50.4516V48.0227Z" fill="black"/>
<path d="M46.0645 48.0227H48.2581V50.2056H46.0645V48.0227Z" fill="black"/>
<path fill-rule="evenodd" clip-rule="evenodd" d="M57.0323 29.0167L49.8089 21.8286H39.4839V45.84H57.0323V29.0167ZM50.4516 25.5547L53.2879 28.3772H50.4516V25.5547ZM41.6774 24.0115V43.6571H54.8387V30.56H48.2581V24.0115H41.6774Z" fill="black"/>
<path d="M43.871 26.1943H46.0645V28.3772H43.871V26.1943Z" fill="black"/>
<path d="M43.871 32.7427H52.6452V34.9255H43.871V32.7427Z" fill="black"/>
<path d="M43.871 37.1084H52.6452V39.2912H43.871V37.1084Z" fill="black"/>
</svg>
