<svg width="22" height="21" viewBox="0 0 22 21" fill="none" xmlns="http://www.w3.org/2000/svg">
<g opacity="0.302257">
<path fill-rule="evenodd" clip-rule="evenodd" d="M6.62132 13.1213C5.44975 14.2929 3.55025 14.2929 2.37868 13.1213C1.20711 11.9497 1.20711 10.0503 2.37868 8.87868C3.55025 7.70711 5.44975 7.70711 6.62132 8.87868C7.79289 10.0503 7.79289 11.9497 6.62132 13.1213Z" stroke="black" stroke-width="1.5" stroke-linecap="round" stroke-linejoin="round"/>
<path fill-rule="evenodd" clip-rule="evenodd" d="M17.5 20C15.8431 20 14.5 18.6569 14.5 17C14.5 15.3431 15.8431 14 17.5 14C19.1569 14 20.5 15.3431 20.5 17C20.5 18.6569 19.1569 20 17.5 20Z" stroke="black" stroke-width="1.5" stroke-linecap="round" stroke-linejoin="round"/>
<path fill-rule="evenodd" clip-rule="evenodd" d="M17.5 7C15.8431 7 14.5 5.65685 14.5 4C14.5 2.34315 15.8431 1 17.5 1C19.1569 1 20.5 2.34315 20.5 4C20.5 5.65685 19.1569 7 17.5 7Z" stroke="black" stroke-width="1.5" stroke-linecap="round" stroke-linejoin="round"/>
<path d="M14.5 5L7.5 9" stroke="black" stroke-width="1.5" stroke-linecap="round" stroke-linejoin="round"/>
<path d="M14.5 16L7.5 12" stroke="black" stroke-width="1.5" stroke-linecap="round" stroke-linejoin="round"/>
</g>
</svg>
