<?xml version="1.0" encoding="UTF-8"?>
<svg width="13px" height="15px" viewBox="0 0 13 15" version="1.1" xmlns="http://www.w3.org/2000/svg" xmlns:xlink="http://www.w3.org/1999/xlink">
    <title>Shape</title>
    <g id="PROFILE" stroke="none" stroke-width="1" fill="none" fill-rule="evenodd">
        <g id="Artboard-Copy-7" transform="translate(-746.000000, -333.000000)" fill="#2BA0E7" fill-rule="nonzero" stroke="#2BA0E7" stroke-width="0.5">
            <g id="Group-5" transform="translate(479.225806, 240.000000)">
                <g id="Group-3" transform="translate(207.000000, 84.000000)">
                    <path d="M70.0543171,18.0944832 C69.2983186,18.0944832 68.6215205,18.4402878 68.172452,18.9823383 L65.2512815,17.3193407 C65.3421223,17.0630196 65.3920505,16.7874172 65.3920505,16.5002003 C65.3920505,16.2130405 65.3421223,15.9374381 65.2512815,15.681117 L68.1722238,14.0177189 C68.6212352,14.559941 69.2981474,14.9058601 70.054203,14.9058601 C71.4027779,14.9058601 72.5,13.8053386 72.5,12.4525581 C72.5,11.1001782 71.402892,10 70.0543171,10 C68.705571,10 67.6082919,11.1001782 67.6082919,12.4525009 C67.6082919,12.7397179 67.658163,13.0153775 67.7490609,13.2717558 L64.8279474,14.9352111 C64.378936,14.3932751 63.7021949,14.0475849 62.9463676,14.0475849 C61.5974503,14.0475849 60.5,15.1477631 60.5,16.500143 C60.5,17.8524657 61.5974503,18.952644 62.9463676,18.952644 C63.7021949,18.952644 64.3788789,18.6069538 64.8278904,18.0650749 L67.7490609,19.7281297 C67.658163,19.9845081 67.6082348,20.2602249 67.6082348,20.5474991 C67.6082348,21.8998218 68.705514,23 70.0542601,23 C71.402835,23 72.5,21.8997645 72.5,20.5474991 C72.5,19.1949475 71.402892,18.0944832 70.0543171,18.0944832 Z M70.0543171,10.858218 C70.9309422,10.858218 71.6441451,11.5733996 71.6441451,12.4525009 C71.6441451,13.3320599 70.9309422,14.0475849 70.0543171,14.0475849 C69.1775209,14.0475849 68.4642039,13.3320599 68.4642039,12.4525009 C68.4642039,11.5733996 69.1775209,10.858218 70.0543171,10.858218 Z M62.9464247,18.0944832 C62.0694573,18.0944832 61.355969,17.3792443 61.355969,16.5002003 C61.355969,15.6210417 62.0694573,14.9058601 62.9464247,14.9058601 C63.8230497,14.9058601 64.5361956,15.6210417 64.5361956,16.5002003 C64.5361956,17.3792443 63.8229926,18.0944832 62.9464247,18.0944832 Z M70.0543171,22.1418392 C69.1775209,22.1418392 68.4642039,21.4266004 68.4642039,20.5475563 C68.4642039,19.6681689 69.1775209,18.9527012 70.0543171,18.9527012 C70.9309422,18.9527012 71.6441451,19.6681689 71.6441451,20.5475563 C71.6441451,21.4266004 70.9309422,22.1418392 70.0543171,22.1418392 Z" id="Shape"></path>
                </g>
            </g>
        </g>
    </g>
</svg>