<?xml version='1.0' encoding='utf-8'?>
<!DOCTYPE svg PUBLIC '-//W3C//DTD SVG 1.1//EN' 'http://www.w3.org/Graphics/SVG/1.1/DTD/svg11.dtd'>
<svg version="1.1" xmlns="http://www.w3.org/2000/svg" viewBox="0 0 512 512" xmlns:xlink="http://www.w3.org/1999/xlink" enable-background="new 0 0 512 512">
  <g>
    <g>
      <path d="m444.4,177.8h-376.8c-54.8,3.1-61.1,63.5-54.4,83.4l43.3,190.6c6.5,28.8 28.9,48.9 54.4,48.9h290.2c25.5,0 47.9-20.1 54.4-48.9l43.3-190.6c8.9-25.2-7.7-83.4-54.4-83.4zm-269.1,229.1c0,11.3-9.1,20.4-20.4,20.4-11.3,0-20.4-9.1-20.4-20.4v-127.4c0-11.3 9.1-20.4 20.4-20.4 11.3,0 20.4,9.1 20.4,20.4v127.4zm98.7,0c0,11.3-9.1,20.4-20.4,20.4-11.3,0-20.4-9.1-20.4-20.4v-127.4c0-11.3 9.1-20.4 20.4-20.4 11.3,0 20.4,9.1 20.4,20.4v127.4zm98.7,0c0,11.3-9.1,20.4-20.4,20.4-11.3,0-20.4-9.1-20.4-20.4v-127.4c0-11.3 9.1-20.4 20.4-20.4 11.3,0 20.4,9.1 20.4,20.4v127.4z"/>
      <path d="m256,52.1c47.1,0 87.3,35 103.6,84.3h42.4c-18.5-72.1-76.8-125-146-125s-127.4,52.9-146,125h42.3c16.4-49.3 56.6-84.3 103.7-84.3z"/>
    </g>
  </g>
</svg>
