<svg width="68" height="68" viewBox="0 0 68 68" fill="none" xmlns="http://www.w3.org/2000/svg">
<path d="M25.2258 63.3028C23.1562 63.3028 21.2248 62.0978 20.3035 60.2337L18.9577 57.5073L15.9208 57.8151C15.7266 57.8358 15.5391 57.8456 15.3548 57.8456C11.7256 57.8456 8.7742 54.9086 8.7742 51.2971C8.7742 50.067 9.12955 48.861 9.80297 47.8078L12.0557 44.2836L8.61736 41.889C5.96755 40.0423 4.3871 37.0321 4.3871 33.8342C4.3871 30.3024 6.32181 27.0237 9.43446 25.2785L12.6623 23.469L11.4097 19.9982C11.1169 19.1862 10.9677 18.3327 10.9677 17.4628C10.9677 13.8437 13.5496 10.6949 17.1075 9.97566L19.2747 9.53799L20.2618 7.53304C21.1634 5.60886 23.1112 4.36572 25.2258 4.36572C28.2496 4.36572 30.7097 6.81379 30.7097 9.82286V57.8456C30.7097 60.8547 28.2496 63.3028 25.2258 63.3028Z" fill="#4BA3DD"/>
<ellipse cx="58.129" cy="9.82285" rx="5.48387" ry="5.45713" fill="#4BA3DD"/>
<ellipse cx="62.5161" cy="28.3771" rx="5.48387" ry="5.45713" fill="#4BA3DD"/>
<ellipse cx="62.5161" cy="39.2914" rx="5.48387" ry="5.45713" fill="#4BA3DD"/>
<ellipse cx="58.129" cy="57.8456" rx="5.48387" ry="5.45713" fill="#4BA3DD"/>
<path fill-rule="evenodd" clip-rule="evenodd" d="M50.4516 40.3828H35.0968V44.7485H40.5806V46.9313H35.0968V57.8456C35.0968 63.2613 30.668 67.6684 25.2258 67.6684C21.465 67.6684 18.009 65.4867 16.3672 62.16C16.0206 62.1939 15.685 62.2113 15.3548 62.2113C9.30723 62.2113 4.3871 57.3152 4.3871 51.2971C4.3871 49.1513 5.02103 47.154 6.10026 45.4645C2.312 42.8254 0 38.4761 0 33.8342C0 28.7165 2.82639 23.9721 7.28039 21.4749C6.81535 20.1838 6.58065 18.838 6.58065 17.4628C6.58065 11.7754 10.6398 6.82687 16.2334 5.69725L16.2849 5.68633C17.8588 2.33347 21.2697 0 25.2258 0C30.668 0 35.0968 4.40718 35.0968 9.82284V20.7371H46.0645V22.92H35.0968V27.2857H37.2903V29.4685H35.0968V38.1999H50.4516V40.3828ZM25.2258 65.4856C29.4594 65.4856 32.9032 62.0585 32.9032 57.8456V9.82284C32.9032 5.60993 29.4594 2.18285 25.2258 2.18285C20.9923 2.18285 17.5484 5.60993 17.5484 9.82284C17.5484 11.1653 17.9037 12.487 18.575 13.6417L16.6765 14.7343C15.8122 13.2477 15.3548 11.5495 15.3548 9.82284C15.3548 9.25421 15.4141 8.69976 15.5084 8.15732C11.5403 9.48559 8.77419 13.2183 8.77419 17.4628C8.77419 18.8697 9.07581 20.2383 9.67026 21.5338L10.1221 22.5161L9.13942 22.9756C4.92013 24.95 2.19355 29.212 2.19355 33.8342C2.19355 37.8027 4.20503 41.5026 7.47013 43.7291C9.46626 41.6707 12.2597 40.3828 15.3548 40.3828V42.5656C10.517 42.5656 6.58065 46.4828 6.58065 51.2971C6.58065 56.1113 10.517 60.0285 15.3548 60.0285C15.8243 60.0285 16.3145 59.9837 16.8519 59.8899L17.7403 59.7371L18.0628 60.5753C19.1946 63.5123 22.0726 65.4856 25.2258 65.4856Z" fill="black"/>
<path d="M25.2258 61.12V63.3028C28.2496 63.3028 30.7097 60.8548 30.7097 57.8457H28.5161C28.5161 59.6509 27.0399 61.12 25.2258 61.12Z" fill="black"/>
<path d="M10.9677 51.2971H8.7742C8.7742 54.9087 11.7256 57.8457 15.3548 57.8457V55.6628C12.9354 55.6628 10.9677 53.7048 10.9677 51.2971Z" fill="black"/>
<path fill-rule="evenodd" clip-rule="evenodd" d="M59.2258 50.2057V54.7722C60.4992 55.224 61.4194 56.4246 61.4194 57.8457C61.4194 59.6509 59.9431 61.1199 58.129 61.1199C56.315 61.1199 54.8387 59.6509 54.8387 57.8457C54.8387 56.4246 55.7589 55.224 57.0323 54.7722V50.2057C57.0323 48.4004 55.556 46.9314 53.7419 46.9314H42.7742V44.7485H53.7419C56.7657 44.7485 59.2258 47.1966 59.2258 50.2057ZM57.0323 57.8457C57.0323 58.447 57.5247 58.9371 58.129 58.9371C58.7334 58.9371 59.2258 58.447 59.2258 57.8457C59.2258 57.2443 58.7334 56.7542 58.129 56.7542C57.5247 56.7542 57.0323 57.2443 57.0323 57.8457Z" fill="black"/>
<path fill-rule="evenodd" clip-rule="evenodd" d="M59.4276 38.1999C59.8817 36.9328 61.0881 36.0171 62.5161 36.0171C64.3302 36.0171 65.8065 37.4861 65.8065 39.2914C65.8065 41.0966 64.3302 42.5656 62.5161 42.5656C61.0881 42.5656 59.8817 41.6499 59.4276 40.3828H52.6452V38.1999H59.4276ZM61.4194 39.2914C61.4194 39.8927 61.9118 40.3828 62.5161 40.3828C63.1205 40.3828 63.6129 39.8927 63.6129 39.2914C63.6129 38.69 63.1205 38.1999 62.5161 38.1999C61.9118 38.1999 61.4194 38.69 61.4194 39.2914Z" fill="black"/>
<path fill-rule="evenodd" clip-rule="evenodd" d="M39.4839 27.2856H59.4276C59.8817 26.0185 61.0881 25.1028 62.5161 25.1028C64.3302 25.1028 65.8064 26.5718 65.8064 28.3771C65.8064 30.1823 64.3302 31.6513 62.5161 31.6513C61.0881 31.6513 59.8817 30.7356 59.4276 29.4685H39.4839V27.2856ZM63.6129 28.3771C63.6129 27.7757 63.1205 27.2856 62.5161 27.2856C61.9118 27.2856 61.4194 27.7757 61.4194 28.3771C61.4194 28.9784 61.9118 29.4685 62.5161 29.4685C63.1205 29.4685 63.6129 28.9784 63.6129 28.3771Z" fill="black"/>
<path fill-rule="evenodd" clip-rule="evenodd" d="M59.2258 12.8963V17.4629C59.2258 20.4719 56.7657 22.92 53.7419 22.92H48.2581V20.7371H53.7419C55.556 20.7371 57.0322 19.2681 57.0322 17.4629V12.8963C55.7589 12.4445 54.8387 11.2439 54.8387 9.82286C54.8387 8.01764 56.315 6.54858 58.129 6.54858C59.9431 6.54858 61.4193 8.01764 61.4193 9.82286C61.4193 11.2439 60.4992 12.4445 59.2258 12.8963ZM59.2258 9.82286C59.2258 9.22149 58.7333 8.73144 58.129 8.73144C57.5247 8.73144 57.0322 9.22149 57.0322 9.82286C57.0322 10.4242 57.5247 10.9143 58.129 10.9143C58.7333 10.9143 59.2258 10.4242 59.2258 9.82286Z" fill="black"/>
<path d="M11.9318 28.245C9.7931 30.3722 9.7931 33.8353 11.9318 35.9624L13.4826 34.4192C12.2005 33.1422 12.2005 31.0652 13.4826 29.7882C14.7659 28.5102 16.853 28.5113 18.1363 29.7882L19.6871 28.245C17.5484 26.1178 14.0694 26.1167 11.9318 28.245Z" fill="black"/>
<path d="M25.2258 4.36572C22.202 4.36572 19.7419 6.81379 19.7419 9.82285H21.9355C21.9355 8.01764 23.4117 6.54858 25.2258 6.54858C27.0399 6.54858 28.5161 8.01764 28.5161 9.82285H30.7097C30.7097 6.81379 28.2496 4.36572 25.2258 4.36572Z" fill="black"/>
<path d="M29.6129 25.1029C29.6129 22.0938 27.1528 19.6458 24.129 19.6458V21.8286C25.9431 21.8286 27.4194 23.2977 27.4194 25.1029C27.4194 26.9081 25.9431 28.3772 24.129 28.3772V30.56C27.1528 30.56 29.6129 28.1119 29.6129 25.1029Z" fill="black"/>
<path d="M18.6452 48.0228C18.6452 51.0319 21.1052 53.4799 24.129 53.4799V51.2971C22.315 51.2971 20.8387 49.828 20.8387 48.0228C20.8387 46.2176 22.315 44.7485 24.129 44.7485V42.5657C21.1052 42.5657 18.6452 45.0137 18.6452 48.0228Z" fill="black"/>
</svg>
