<svg width="15" height="17" viewBox="0 0 15 17" fill="none" xmlns="http://www.w3.org/2000/svg">
<path d="M7.45182 7.67361C8.4936 7.67361 9.3957 7.29551 10.1328 6.54951C10.8698 5.80364 11.2435 4.89102 11.2435 3.83668C11.2435 2.78271 10.8698 1.86997 10.1327 1.12385C9.39546 0.378102 8.49348 0 7.45182 0C6.40993 0 5.50807 0.378102 4.77099 1.12398C4.03392 1.86985 3.66016 2.78259 3.66016 3.83668C3.66016 4.89102 4.03392 5.80376 4.77111 6.54964C5.50831 7.29539 6.41029 7.67361 7.45182 7.67361Z" fill="#1C1D20" fill-opacity="0.2444"/>
<path d="M14.1276 12.8341C14.1059 12.5226 14.062 12.1828 13.9973 11.824C13.9321 11.4625 13.848 11.1208 13.7474 10.8085C13.6435 10.4856 13.5021 10.1668 13.3274 9.86132C13.1461 9.54423 12.9331 9.26812 12.6941 9.04091C12.4442 8.80322 12.1382 8.61211 11.7844 8.47271C11.4318 8.33404 11.041 8.26379 10.623 8.26379C10.4588 8.26379 10.3001 8.33075 9.99345 8.52917C9.80476 8.6515 9.58404 8.79297 9.33767 8.94944C9.12701 9.08287 8.84164 9.20787 8.48915 9.32105C8.14525 9.43167 7.79607 9.48777 7.45143 9.48777C7.1068 9.48777 6.75774 9.43167 6.41348 9.32105C6.06135 9.20799 5.77598 9.08299 5.56556 8.94956C5.32153 8.79456 5.10069 8.65308 4.90917 8.52905C4.60294 8.33063 4.44405 8.26367 4.27989 8.26367C3.86176 8.26367 3.47112 8.33404 3.11863 8.47283C2.76504 8.61198 2.45892 8.80309 2.20876 9.04103C1.96988 9.26836 1.75677 9.54436 1.57568 9.86132C1.40109 10.1668 1.25975 10.4855 1.15571 10.8086C1.05523 11.1209 0.971182 11.4625 0.905911 11.824C0.841253 12.1823 0.79733 12.5222 0.775614 12.8344C0.754266 13.1403 0.743469 13.4578 0.743469 13.7784C0.743469 14.6128 1.01032 15.2883 1.53654 15.7865C2.05625 16.2782 2.74393 16.5276 3.58019 16.5276H11.3234C12.1597 16.5276 12.8471 16.2783 13.3669 15.7865C13.8933 15.2887 14.1601 14.6131 14.1601 13.7783C14.16 13.4562 14.1491 13.1385 14.1276 12.8341Z" fill="#1C1D20" fill-opacity="0.2444"/>
</svg>
