<?xml version="1.0" encoding="UTF-8"?>
<svg width="110px" height="110px" viewBox="0 0 110 110" version="1.1" xmlns="http://www.w3.org/2000/svg" xmlns:xlink="http://www.w3.org/1999/xlink">
    <title>Group 4</title>
    <defs>
        <linearGradient x1="68.457151%" y1="-25.2579561%" x2="45.14565%" y2="100%" id="linearGradient-1">
            <stop stop-color="#2D99DF" offset="0%"></stop>
            <stop stop-color="#0977BE" offset="100%"></stop>
        </linearGradient>
        <circle id="path-2" cx="55" cy="55" r="55"></circle>
        <linearGradient x1="50%" y1="23.9009639%" x2="45.9903833%" y2="50%" id="linearGradient-4">
            <stop stop-color="#76C7F9" offset="0%"></stop>
            <stop stop-color="#2BA0E7" offset="100%"></stop>
        </linearGradient>
    </defs>
    <g id="PROFILE" stroke="none" stroke-width="1" fill="none" fill-rule="evenodd">
        <g id="Artboard-Copy-2" transform="translate(-236.000000, -148.000000)">
            <g id="Group-16" transform="translate(157.000000, 120.000000)">
                <g id="Group-344" transform="translate(79.000000, 28.000000)">
                    <mask id="mask-3" fill="white">
                        <use xlink:href="#path-2"></use>
                    </mask>
                    <use id="Mask" fill="url(#linearGradient-1)" xlink:href="#path-2"></use>
                    <g mask="url(#mask-3)">
                        <g transform="translate(-15.000000, 10.000000)">
                            <path d="M90.7946834,22.6427709 C89.8882745,24.4681472 89.6176493,28.2085804 88.6778757,36.7656156 C87.738102,45.3245191 84.3293373,48.736123 84.3293373,48.736123 L83.148596,50.3204824 C82.6740752,50.5839195 82.1810184,50.8006479 81.6657185,50.9687992 C73.836125,53.526568 73.5302815,37.6138457 73.5302815,37.6138457 L85.3043293,10.8703084 C85.3043293,10.8703084 90.1829964,10.6423699 92.2460498,15.0143049 C92.2460498,15.0161732 92.2479034,15.0199099 92.2479034,15.0217782 C93.4230838,19.156433 91.6992387,20.819263 90.7946834,22.6427709" id="Fill-318" fill="#061B57"></path>
                            <path d="M86.7668172,12.032421 L73.5302815,37.6138457 C73.5302815,37.6138457 65.1909489,50.8062529 58.6792629,49.7076641 C57.8043652,49.5600646 57.0165865,49.277944 56.3010981,48.8631707 C54.9201683,47.3927806 52.5234675,43.9942551 51.8098327,37.6138457 C50.7866472,28.4813593 49.9729181,26.5868541 48.9775366,22.1868939 C47.982155,17.7869337 47.0850141,13.6130436 51.7709072,11.6101743 C51.7709072,11.6101743 52.695852,7.15603197 57.9841641,4.22459352 L57.9860177,4.22459352 C61.3317601,2.50010805 65.4689885,1.5808807 70.3791668,1.7901357 C87.5434744,2.52252823 86.7668172,12.032421 86.7668172,12.032421" id="Fill-319" fill="#061B57"></path>
                            <path d="M90.8243409,74.5978 C86.2737605,78.4167039 81.8640534,83.2930929 77.7119962,84.5579647 L77.6841923,84.5617014 L77.6804851,84.5617014 C63.9842573,88.7019612 53.0721322,78.7249813 48.8255416,75.139621 C49.1350923,75.0181783 49.4390822,74.9023407 49.7449257,74.7771614 C50.5642156,74.4445954 51.3334583,74.055979 52.0452395,73.6150488 C53.4057796,72.7724237 54.5661313,71.8326445 55.5503913,70.8312098 C62.4012856,63.8772175 60.8961649,54.0011285 60.8961649,54.0011285 L80.1142579,54.0011285 C80.1142579,54.0011285 79.7490993,57.3847072 80.1902553,61.7809307 C80.5758035,65.6110447 81.5730386,68.2510208 83.9549107,70.472487 C85.5471505,71.9578238 87.756638,73.2563259 90.8243409,74.5978" id="Fill-320" fill="#FCC5B8"></path>
                            <path d="M80.1884017,61.7790624 C79.065122,63.7202763 77.4524927,65.0916439 75.1688612,65.2822154 C66.2159881,66.0332914 61.1797652,57.1661105 61.2854202,56.3477739 L61.750673,54.0011285 L80.1105507,54.0011285 C80.1105507,54.0011285 79.7472457,57.3865756 80.1884017,61.7790624" id="Fill-321" fill="#F0AA98"></path>
                            <path d="M92.2441962,37.0514729 C92.2441962,34.5217293 90.4721575,32.4721512 88.2867667,32.4721512 C86.1013759,32.4721512 84.3293373,34.5217293 84.3293373,37.0514729 C84.3293373,39.5793481 86.1013759,42.7574085 88.2867667,42.7574085 C90.4721575,42.7574085 92.2441962,39.5793481 92.2441962,37.0514729" id="Fill-322" fill="#FCC5B8"></path>
                            <path d="M48.2879985,37.0514729 C48.2879985,34.5217293 50.0600372,32.4721512 52.245428,32.4721512 C54.4308188,32.4721512 56.2028574,34.5217293 56.2028574,37.0514729 C56.2028574,39.5793481 54.4308188,42.7574085 52.245428,42.7574085 C50.0600372,42.7574085 48.2879985,39.5793481 48.2879985,37.0514729" id="Fill-325" fill="#FCC5B8"></path>
                            <path d="M70.4848218,60.1367842 C66.0361891,60.2115182 62.3197273,58.0236823 59.387337,54.6288935 C59.3725082,54.6064733 59.3558258,54.5859215 59.3354362,54.5653697 C54.0823425,47.8729461 53.0128171,38.1257731 54.4345259,26.5214619 C55.4595651,18.1718135 63.2687689,14.9358342 67.6061858,13.7737216 C69.495001,13.2673992 71.4746425,13.2673992 73.3653114,13.7737216 C77.7008746,14.9377026 85.5119321,18.1718135 86.5351176,26.5214619 C87.9623873,38.1631401 86.8835939,47.93647 81.5823066,54.6288935 C78.6499163,58.0236823 74.9390152,60.2115182 70.4848218,60.1367842 Z" id="Fill-328" fill="#FCC5B8"></path>
                            <path d="M85.4971033,21.4713165 L86.542532,37.2140192 L87.669519,31.90791 C87.669519,31.90791 91.0226758,24.8567636 85.4971033,21.4713165" id="Fill-336" fill="#061B57"></path>
                            <path d="M55.4743938,19.6309935 L54.0007843,37.2140192 L53.3001246,31.90791 C53.3001246,31.90791 49.9469678,24.8567636 55.4743938,19.6309935" id="Fill-337" fill="#061B57"></path>
                            <path d="M83.9549107,70.472487 C85.5471505,71.9578238 87.756638,73.2563259 90.8206337,74.5978 L90.8243409,74.5978 L90.825,74.599487 C90.9241681,74.6111022 92.1099649,74.7487469 94.0533068,75.1695145 C94.8670358,75.3432709 95.8105167,75.5693411 96.8633597,75.8608034 C96.8633597,75.8608034 96.8670669,75.8608034 96.8689205,75.8626718 C96.8744813,75.8664084 96.8818957,75.8682768 96.8911637,75.8701451 C109.389968,79.2948275 137.077145,91.3793042 139.876077,131.455375 C140.267186,137.066025 139.71296,142.090013 138.413589,146.583391 C138.397784,146.636491 138.38198,149.624508 138.366176,152.766994 L138.362663,153.466737 C138.346274,156.733522 138.329884,159.944933 138.313494,160 L1.1124737,160 C-3.88297004,129.299301 7.57930268,82.8577677 42.932957,75.9616942 C44.0562367,75.7393608 45.2073204,75.5525259 46.3843545,75.4030581 C47.1851083,75.2965622 47.9988374,75.2106182 48.8255416,75.139621 L48.8292488,75.139621 L49.017,75.065487 L49.0574729,75.0504073 C49.1332387,75.0205138 49.2092362,74.9901531 49.2852337,74.9583912 L49.4792792,74.8840512 C49.5333525,74.8626015 49.5874503,74.8409944 49.6415932,74.8191468 C49.6749348,74.8051491 49.7089579,74.7912471 49.7430721,74.7771614 C49.9592719,74.6895997 50.1718738,74.598282 50.3807764,74.5031742 C50.9648659,74.236563 51.5206582,73.9400134 52.0452395,73.6150488 C52.8010951,73.1469237 53.4951642,72.6488128 54.1315785,72.126803 C54.2758788,72.0090305 54.4161801,71.8903537 54.5536027,71.7705179 C54.9041497,71.4641949 55.23624,71.1508429 55.5503913,70.8312098 L55.5522449,70.8293415 C59.3632402,72.8882613 69.4468075,76.7445321 83.9530571,70.472487 L83.9549107,70.472487 Z" id="Combined-Shape" fill="url(#linearGradient-4)"></path>
                            <path d="M138.413589,146.583391 C139.763007,89.430617 97.5195331,76.0644534 96.8689205,75.8645401 C109.356603,79.2798808 137.075292,91.3550157 139.876077,131.455375 C140.269039,137.066025 139.71296,142.088145 138.413589,146.583391" id="Fill-340" fill="#006AAF"></path>
                            <path d="M86.7019414,10.9824093 C86.7019414,10.9824093 86.4535594,4.21338343 81.5637707,1.29502341 C76.6739819,-1.62520496 70.6090128,1.38470413 62.5532805,0.837278079 C54.4975482,0.289852032 48.8644672,6.05183814 51.7709072,11.6101743 C54.6792007,17.1685104 86.7019414,10.9824093 86.7019414,10.9824093" id="Fill-342" fill="#061B57"></path>
                            <path d="M87.0874895,27.5696053 C87.0874895,27.5696053 84.4702106,24.8306067 82.8353382,19.6309935 C82.8353382,19.6309935 76.7370042,18.8107886 73.3115571,19.9971897 C69.88611,21.1835909 71.578444,25.2584585 66.8981117,26.2916551 C62.2177795,27.3248517 55.3131309,29.5295027 52.7792639,25.7666492 C50.2435433,22.0037958 54.0007843,13.1440882 54.0007843,13.1440882 L60.7441699,9.41486505 L77.142942,10.1435209 L87.7158589,15.8008795 L87.0874895,27.5696053" id="Fill-343" fill="#061B57"></path>
                        </g>
                    </g>
                </g>
            </g>
        </g>
    </g>
</svg>