<svg width="142" height="142" viewBox="0 0 142 142" fill="none" xmlns="http://www.w3.org/2000/svg">
<path opacity="0.198969" fill-rule="evenodd" clip-rule="evenodd" d="M52.3283 21.5021C81.2595 6.46942 114.344 33.8035 121.481 70.0809C128.617 106.358 75.3713 135.081 35.5719 111.018C-4.2275 86.9547 23.3972 36.5347 52.3283 21.5021Z" fill="#C6CEE4"/>
<path d="M64.5 91.5254C60.3534 91.5254 56.98 94.9172 56.98 99.0863C56.98 103.255 60.3534 106.647 64.5 106.647C68.6466 106.647 72.02 103.255 72.02 99.0863C72.02 94.9172 68.6466 91.5254 64.5 91.5254Z" fill="#EB7EEA"/>
<path d="M64.5 74.7231C56.9184 74.7231 50.1403 78.243 45.6938 83.7418L53.8652 91.9578C53.8652 91.9578 57.6765 86.4906 64.5002 86.4906C71.1846 86.4906 75.1352 91.9578 75.1352 91.9578L83.3066 83.7418C78.8597 78.243 72.0816 74.7231 64.5 74.7231Z" fill="url(#paint0_linear)"/>
<path d="M64.5 52.8803C78.07 52.8803 90.2834 58.8265 98.703 68.2611L107 59.919C106.436 59.3014 91.3494 41.1187 64.5 41.1187C37.6159 41.1187 22.564 59.3012 22 59.919L30.297 68.2611C38.7166 58.8263 50.93 52.8803 64.5 52.8803Z" fill="url(#paint1_linear)"/>
<path d="M64.5 57.9209C52.3121 57.9209 41.3531 63.3052 33.8464 71.8298L42.135 80.1636C47.5038 73.7589 55.5366 69.6822 64.5 69.6822C73.4634 69.6822 81.496 73.7589 86.865 80.1636L95.1536 71.8298C87.6469 63.3051 76.688 57.9209 64.5 57.9209Z" fill="url(#paint2_linear)"/>
<defs>
<linearGradient id="paint0_linear" x1="66.2087" y1="69.5969" x2="57.4223" y2="92.3016" gradientUnits="userSpaceOnUse">
<stop stop-color="#91CBF1"/>
<stop offset="1" stop-color="#2C92D6"/>
</linearGradient>
<linearGradient id="paint1_linear" x1="68.361" y1="33.0454" x2="58.0253" y2="71.3702" gradientUnits="userSpaceOnUse">
<stop stop-color="#91CBF1"/>
<stop offset="1" stop-color="#2C92D6"/>
</linearGradient>
<linearGradient id="paint2_linear" x1="67.2848" y1="51.3051" x2="57.8477" y2="82.104" gradientUnits="userSpaceOnUse">
<stop stop-color="#91CBF1"/>
<stop offset="1" stop-color="#2C92D6"/>
</linearGradient>
</defs>
</svg>
