<svg width="19" height="16" viewBox="0 0 19 16" fill="none" xmlns="http://www.w3.org/2000/svg">
<path fill-rule="evenodd" clip-rule="evenodd" d="M9.11865 2.50284C9.95085 0.981725 11.5236 0.0270389 13.242 0C16.0435 0.123138 18.2207 2.51214 18.115 5.34698C18.115 8.79559 14.5269 12.562 11.5177 15.1156C10.1307 16.2948 8.10663 16.2948 6.71964 15.1156C3.71037 12.562 0.122346 8.79559 0.122346 5.34698C0.0166096 2.51214 2.19384 0.123138 4.99535 0C6.71365 0.0270389 8.28645 0.981725 9.11865 2.50284ZM1.62173 5.34698C1.62173 7.54872 3.83107 10.6856 7.68299 13.9552C8.51261 14.662 9.72469 14.662 10.5543 13.9522C14.4062 10.6856 16.6156 7.54872 16.6156 5.34698C16.7223 3.3494 15.2157 1.63899 13.242 1.51687C11.2682 1.63899 9.86835 3.17817 9.86835 4.39432C9.86835 4.81319 9.61215 5.15275 9.11865 5.15275C8.62515 5.15275 8.36896 4.81319 8.36896 4.39432C8.36896 3.19779 6.96909 1.63899 4.99535 1.51687C3.0216 1.63899 1.51505 3.3494 1.62173 5.34698Z" fill="black"/>
</svg>
