<svg xmlns="http://www.w3.org/2000/svg" viewBox="0 0 1781.77 385.49"><title>Asset 4</title><g id="Layer_2" data-name="Layer 2"><g id="_Persegi_Panjang_logo_Arkademi_Putih-Hitam" data-name="(Persegi Panjang) logo Arkademi Putih-Hitam"><path d="M628.64,329.85H558.8L543.25,383H508.33L564.8,203.83q2.46-9,12.28-9h33.28q9.82,0,12.28,9L679.11,383H644.19Zm-8.19-28.1-18.82-64.91q-3.82-14.73-4.09-16.1h-7.37l-4.36,16.1L567,301.75Z"/><path d="M835.42,383H799.14l-15-58.37q-5.18-16.92-21.82-16.92l-33.83-.27V383H694.65V194.83q24.29-2.46,68.48-2.46,35.73,0,50.6,11.87t14.87,43.23q0,21.82-8.18,33.42t-27,14v1.37A32.72,32.72,0,0,1,808.68,305q7.1,6.81,9.83,19.09ZM728.48,279.66h33.83q18.27-.27,25-6.55T794,249.65q0-17.18-6.68-23.18t-25-6H728.48Z"/><path d="M910.17,298.21H891.62a86.83,86.83,0,0,1,1.91,18.55V383h-34.1V194.83h34.1V250.2A114.87,114.87,0,0,1,891.62,272h18.55l51.56-77.19h37.1l-50.74,75.83a64.13,64.13,0,0,1-12.55,14.18v.82a70.53,70.53,0,0,1,14.73,16.09L1002.38,383h-38.2Z"/><path d="M1120.23,329.85h-69.84L1034.84,383H999.92l56.47-179.21q2.46-9,12.28-9H1102q9.83,0,12.28,9L1170.7,383h-34.92Zm-8.19-28.1-18.82-64.91q-3.83-14.73-4.09-16.1h-7.37l-4.36,16.1-18.83,64.91Z"/><path d="M1186.24,383V194.83q37.38-2.46,70.39-2.46,42.82,0,59.88,21t17,75.55q0,54.56-17,75.56t-59.88,21Q1223.61,385.49,1186.24,383Zm34.1-162V356.31q21.29.54,36.29.54,23.46,0,32.19-14.59t8.73-53.33q0-38.73-8.87-53.46t-32-14.73q-7.37,0-19.24.14T1220.34,221Z"/><path d="M1482.51,355.49l1.63,25.91q-24.83,2.19-82.93,2.18-18.56,0-29.33-9.54t-11-26.19V230q.26-16.64,11-26.19t29.33-9.55q58.11,0,82.93,2.19l-1.63,26.18h-73.66c-4.91,0-8.42,1.19-10.5,3.55s-3.14,6.45-3.14,12.27v33h77.2v26.18h-77.2v42q0,8.73,3.14,12.27c2.08,2.37,5.59,3.55,10.5,3.55Z"/><path d="M1660.1,194.83h35.19q12.82,0,13.37,13.36L1716.3,383h-33.56l-6.27-160.66h-5.18l-32.47,125.2q-3,11.44-14.19,11.45h-26.18Q1587,359,1584,347.58l-33-125.2h-4.64l-6,160.66h-33.28l7.09-174.85q.54-13.35,13.37-13.36H1563q11.19,0,13.91,11.46l26.74,102q.54,1.9,5.73,25.64h4.09q3-15.81,5.73-25.91l26.73-101.74Q1648.91,194.83,1660.1,194.83Z"/><path d="M1781.77,383h-34.1V194.83h34.1Z"/><path d="M202.89,176.83,175.3,223.91q-14.67,25-29.32,50-16,27.27-32,54.55-13.5,23-27,46.07c-1.76,3-4.88,8.38-9.88,8.38H4.42c-3.78,0-6.1-3.73-2.94-8.46q5.61-9.54,11.18-19.1Q24.32,335.52,36,315.67q13-22.12,25.91-44.27,12-20.5,24.07-41Q99.5,207.32,113,184.23q13-22.23,26-44.47,12.92-22,25.86-44c6.41-10.94,12.76-21.93,19.16-32.88,8.64-14.76,17.19-29.57,26-44.22,3.35-5.57.22-.32,10.08-16.86A3.62,3.62,0,0,1,223.27,0h3.58a3.81,3.81,0,0,1,3.28,1.9c9.5,16.58,8.37,14.54,9.67,16.77q13.5,23.07,27,46.13,8.06,13.74,16.12,27.48,16.32,27.89,32.65,55.78,14.31,24.39,28.64,48.77,11.88,20.25,23.72,40.52,12.85,21.91,25.73,43.82,13.24,22.57,26.45,45.17,13.56,23.13,27.14,46.26c3,4.51,2,10.32-3.93,10.32H368.88l-.79-.1a3.64,3.64,0,0,0-1-.18q-23.79,0-47.59.12a11.73,11.73,0,0,0-1.43.14l-.37,0H158c-3.88,0-5-3.87-2.73-7.8,6.36-11,12.79-22,19.2-33l25.83-44.32q9.51-16.28,19-32.58l1.07-1.83a3,3,0,0,1,2.61-1.5h4.55a3,3,0,0,1,2.6,1.49l.58,1c4.68,7.84,9.23,15.76,13.83,23.66q8.3,14.28,16.59,28.55a1.8,1.8,0,0,0,1.77,1q32.46-.08,64.91-.1c.4,0,.8-.07,1.43-.13L224.92,139.52"/></g></g></svg>